SplineFontDB: 3.0
FontName: BoonBaan-400
FullName: BoonBaan Regular
FamilyName: BoonBaan
Weight: 400
Copyright: Copyright 2014-2017, Sungsit Sawaiwan (https://fontuni.com | uni@fontuni.com). This Font Software is licensed under the SIL Open Font License, Version 1.1 (http://scripts.sil.org/OFL).
UComments: "BoonHome Font Information+AA0ACgANAAoA-BoonHome is a Unicode typeface family that supports Lao and Thai languages. Since version 0.2, it was expanded to completely support the following Unicode ranges:+AAoACgAA-- Basic Latin+AAoA-- Latin-1 Supplement+AAoA-- Latin Extended-A+AAoACgAA-And partially included some glyphs from Latin Extended-B and Latin Extended Additional for Vietnamese language.+AAoA +AAoA-2014-1-12: Initiated.+AAoACgAA-2014-1-29: BoonHome v0.1+AAoACgAA-- Created basic OpenType features for Lao and Thai languages.+AAoA-- Completed Lao and Thai glyphs.+AAoA-- Generated 400 & 700 weights with Oblique style.+AAoACgAA-2014-2-09: BoonHome v0.2+AAoACgAA-- Corrected some Lao and Thai glyphs.+AAoA-- Corrected OpenType features for Lao and Thai's vowels and tone marks.+AAoA-- Completed Basic Latin, Latin-1 Supplement, Latin Extended-A.+AAoA-- Partially included Latin Extended-B and Latin Extended Additional.+AAoA-- Kerned diacritic glyphs, especially for Vietnamese language."
Version: 2.0
ItalicAngle: 0
UnderlinePosition: -60
UnderlineWidth: 30
Ascent: 960
Descent: 240
InvalidEm: 0
woffMajor: 0
woffMinor: 2
LayerCount: 4
Layer: 0 0 "Back" 1
Layer: 1 0 "Fore" 0
Layer: 2 0 "400" 0
Layer: 3 0 "700" 0
StyleMap: 0x0040
FSType: 0
OS2Version: 0
OS2_WeightWidthSlopeOnly: 0
OS2_UseTypoMetrics: 0
CreationTime: 1389497698
ModificationTime: 1486297429
PfmFamily: 33
TTFWeight: 400
TTFWidth: 5
LineGap: 0
VLineGap: 0
Panose: 0 0 0 0 0 0 0 0 0 0
OS2TypoAscent: 1220
OS2TypoAOffset: 0
OS2TypoDescent: -360
OS2TypoDOffset: 0
OS2TypoLinegap: 0
OS2WinAscent: 1220
OS2WinAOffset: 0
OS2WinDescent: 360
OS2WinDOffset: 0
HheadAscent: 1220
HheadAOffset: 0
HheadDescent: -360

StartChar: uni0E81
Encoding: 495 3713 0
Width: 700
VWidth: 0
Flags: HMW
LayerCount: 4
Layer: 2
SplineSet
150 555 m 0
 122 555 100 533 100 505 c 0
 100 477 122 455 150 455 c 0
 178 455 200 477 200 505 c 0
 200 533 178 555 150 555 c 0
150 145 m 0
 122 145 100 123 100 95 c 0
 100 67 122 45 150 45 c 0
 178 45 200 67 200 95 c 0
 200 123 178 145 150 145 c 0
257 531 m 1
 292 569 354 610 430 610 c 0
 536 610 610 545 610 420 c 2
 610 0 l 1
 520 0 l 1
 520 420 l 2
 520 489 501 535 410 535 c 0
 336 535 291 499 260 458 c 1
 260 95 l 2
 260 34 210 -10 150 -10 c 0
 90 -10 40 34 40 95 c 0
 40 156 90 200 150 200 c 0
 157 200 164 199 170 198 c 1
 170 402 l 1
 164 401 157 400 150 400 c 0
 90 400 40 444 40 505 c 0
 40 566 90 610 150 610 c 0
 201 610 245 578 257 531 c 1
EndSplineSet
Validated: 1
Layer: 3
SplineSet
155 545 m 0
 127 545 105 523 105 495 c 0
 105 467 127 445 155 445 c 0
 183 445 205 467 205 495 c 0
 205 523 183 545 155 545 c 0
155 155 m 0
 127 155 105 133 105 105 c 0
 105 77 127 55 155 55 c 0
 183 55 205 77 205 105 c 0
 205 133 183 155 155 155 c 0
133 382 m 1
 75 390 30 433 30 495 c 0
 30 565 87 610 155 610 c 0
 214 610 265 576 277 521 c 1
 315 567 373 610 460 610 c 0
 565 610 630 544 630 400 c 2
 630 0 l 1
 480 0 l 1
 480 400 l 2
 480 472 451 500 400 500 c 0
 350 500 310 468 280 430 c 1
 280 300 l 1
 280 105 l 2
 280 35 223 -10 155 -10 c 0
 87 -10 30 35 30 105 c 0
 30 167 75 210 133 218 c 1
 131 224 130 231 130 240 c 2
 130 300 l 1
 130 360 l 2
 130 369 131 376 133 382 c 1
EndSplineSet
Colour: ffff00
EndChar

StartChar: uni0E82
Encoding: 496 3714 1
Width: 700
VWidth: 0
Flags: HMW
LayerCount: 4
Layer: 2
SplineSet
550 0 m 1
 550 60 l 2
 550 80 554 98 558 111 c 1
 521 61 443 -20 310 -20 c 0
 176 -20 90 43 90 130 c 0
 90 249 237 276 340 305 c 0
 453 337 520 371 520 430 c 0
 520 503 451 550 350 550 c 0
 305 550 270 544 243 538 c 1
 282 524 310 490 310 445 c 0
 310 384 260 340 200 340 c 0
 140 340 90 384 90 445 c 0
 90 551 218 620 350 620 c 0
 481 620 610 555 610 430 c 0
 610 317 490 271 370 235 c 0
 257 201 180 185 180 130 c 0
 180 89 224 55 310 55 c 0
 477 55 540 175 560 210 c 1
 610 210 l 1
 610 0 l 1
 550 0 l 1
200 395 m 0
 228 395 250 417 250 445 c 0
 250 473 228 495 200 495 c 0
 172 495 150 473 150 445 c 0
 150 417 172 395 200 395 c 0
EndSplineSet
Validated: 1
Layer: 3
SplineSet
185 395 m 0
 213 395 235 417 235 445 c 0
 235 473 213 495 185 495 c 0
 157 495 135 473 135 445 c 0
 135 417 157 395 185 395 c 0
550 0 m 1
 550 70 l 2
 550 83 553 95 556 107 c 1
 516 45 441 -20 320 -20 c 0
 172 -20 60 55 60 145 c 0
 60 268 199 287 340 325 c 0
 459 357 500 374 500 420 c 0
 500 483 446 525 350 525 c 0
 319 525 296 522 280 518 c 1
 299 501 310 476 310 445 c 0
 310 375 253 330 185 330 c 0
 117 330 60 375 60 445 c 0
 60 527 162 620 350 620 c 0
 521 620 640 533 640 410 c 0
 640 295 523 256 370 215 c 0
 243 181 210 175 210 140 c 0
 210 104 262 85 320 85 c 0
 444 85 529 151 550 210 c 1
 640 210 l 1
 640 0 l 1
 550 0 l 1
EndSplineSet
Colour: ffff00
EndChar

StartChar: uni0E84
Encoding: 497 3716 2
Width: 700
VWidth: 0
Flags: HMW
LayerCount: 4
Layer: 2
SplineSet
260 145 m 0
 232 145 210 123 210 95 c 0
 210 67 232 45 260 45 c 0
 288 45 310 67 310 95 c 0
 310 123 288 145 260 145 c 0
260 200 m 0
 320 200 370 156 370 95 c 0
 370 34 320 -10 260 -10 c 0
 156 -10 80 53 80 150 c 0
 80 213 126 268 189 303 c 1
 127 322 80 356 80 420 c 0
 80 535 200 620 345 620 c 0
 490 620 610 545 610 420 c 2
 610 0 l 1
 520 0 l 1
 520 420 l 2
 520 491 455 545 345 545 c 0
 235 545 170 491 170 420 c 0
 170 355 259 345 345 345 c 1
 345 285 l 1
 244 285 150 226 150 150 c 0
 150 133 152 119 156 108 c 1
 164 160 206 200 260 200 c 0
EndSplineSet
Validated: 1
Layer: 3
SplineSet
250 155 m 0
 222 155 200 133 200 105 c 0
 200 77 222 55 250 55 c 0
 278 55 300 77 300 105 c 0
 300 133 278 155 250 155 c 0
250 220 m 0
 318 220 375 175 375 105 c 0
 375 35 318 -10 250 -10 c 0
 145 -10 50 42 50 160 c 0
 50 222 89 269 147 300 c 1
 81 323 50 363 50 420 c 0
 50 511 152 620 345 620 c 0
 538 620 640 515 640 390 c 2
 640 0 l 1
 490 0 l 1
 490 390 l 2
 490 461 425 510 345 510 c 0
 265 510 201 477 200 420 c 0
 200 370 251 345 345 345 c 1
 345 275 l 1
 229 275 145 230 145 160 c 0
 145 155 145 150 146 146 c 1
 163 185 201 220 250 220 c 0
EndSplineSet
Colour: ffff00
EndChar

StartChar: uni0E87
Encoding: 498 3719 3
Width: 540
VWidth: 0
Flags: HMW
LayerCount: 4
Layer: 2
SplineSet
150 475 m 0
 122 475 100 453 100 425 c 0
 100 397 122 375 150 375 c 0
 178 375 200 397 200 425 c 0
 200 453 178 475 150 475 c 0
40 425 m 0
 40 536 125 610 235 610 c 0
 345 610 440 552 440 410 c 2
 440 -90 l 2
 440 -226 358 -260 260 -260 c 0
 187 -260 100 -231 60 -190 c 1
 100 -140 l 1
 122 -158 186 -190 260 -190 c 0
 329 -190 350 -155 350 -90 c 2
 350 410 l 2
 350 503 305 540 235 540 c 0
 204 540 178 534 158 525 c 1
 215 521 260 483 260 425 c 0
 260 364 210 320 150 320 c 0
 90 320 40 364 40 425 c 0
EndSplineSet
Validated: 1
Layer: 3
SplineSet
155 445 m 0
 127 445 105 423 105 395 c 0
 105 367 127 345 155 345 c 0
 183 345 205 367 205 395 c 0
 205 423 183 445 155 445 c 0
30 395 m 0
 30 517 120 610 250 610 c 0
 365 610 470 534 470 400 c 2
 470 -90 l 2
 470 -197 381 -260 240 -260 c 0
 136 -260 68 -210 40 -185 c 1
 100 -110 l 1
 120 -133 183 -160 225 -160 c 0
 285 -160 320 -130 320 -90 c 2
 320 410 l 2
 320 495 272 520 215 520 c 0
 190 520 169 512 153 500 c 1
 218 497 280 462 280 395 c 0
 280 325 223 280 155 280 c 0
 87 280 30 325 30 395 c 0
EndSplineSet
Colour: ffff00
EndChar

StartChar: uni0E88
Encoding: 499 3720 4
Width: 650
VWidth: 0
Flags: HMW
LayerCount: 4
Layer: 2
SplineSet
240 315 m 0
 212 315 190 293 190 265 c 0
 190 237 212 215 240 215 c 0
 268 215 290 237 290 265 c 0
 290 293 268 315 240 315 c 0
257 161 m 1
 252 160 246 160 240 160 c 0
 180 160 130 204 130 265 c 0
 130 326 180 370 240 370 c 0
 311 370 355 320 355 260 c 0
 355 187 320 164 320 120 c 0
 320 88 345 60 391 60 c 0
 432 60 470 75 470 130 c 2
 470 420 l 2
 470 491 413 545 310 545 c 0
 207 545 150 491 150 420 c 1
 60 420 l 1
 60 535 170 620 310 620 c 0
 450 620 560 545 560 420 c 2
 560 130 l 2
 560 41 502 -10 391 -10 c 0
 280 -10 240 45 240 100 c 0
 240 126 248 145 257 161 c 1
EndSplineSet
Validated: 1
Layer: 3
SplineSet
220 295 m 0
 192 295 170 273 170 245 c 0
 170 217 192 195 220 195 c 0
 248 195 270 217 270 245 c 0
 270 273 248 295 220 295 c 0
220 360 m 0
 299 360 345 308 345 250 c 0
 345 186 320 163 320 130 c 0
 320 98 346 80 380 80 c 0
 416 80 440 99 440 130 c 2
 440 390 l 2
 440 453 394 500 310 500 c 0
 226 500 180 450 180 390 c 1
 30 390 l 1
 30 504 122 620 310 620 c 0
 498 620 590 505 590 390 c 2
 590 140 l 2
 590 51 513 -10 380 -10 c 0
 259 -10 200 38 200 100 c 0
 200 114 202 126 206 136 c 1
 144 141 95 180 95 245 c 0
 95 315 152 360 220 360 c 0
EndSplineSet
Colour: ffff00
EndChar

StartChar: uni0E8A
Encoding: 500 3722 5
Width: 710
VWidth: 0
Flags: HMW
LayerCount: 4
Layer: 2
SplineSet
200 395 m 0
 228 395 250 417 250 445 c 0
 250 473 228 495 200 495 c 0
 172 495 150 473 150 445 c 0
 150 417 172 395 200 395 c 0
540 -240 m 1
 540 60 l 2
 540 79 543 94 546 106 c 1
 510 56 439 -20 310 -20 c 0
 176 -20 90 43 90 130 c 0
 90 249 237 276 340 305 c 0
 453 337 520 371 520 430 c 0
 520 503 451 550 350 550 c 0
 305 550 270 544 243 538 c 1
 282 524 310 490 310 445 c 0
 310 384 260 340 200 340 c 0
 140 340 90 384 90 445 c 0
 90 551 218 620 350 620 c 0
 481 620 610 555 610 430 c 0
 610 317 490 271 370 235 c 0
 257 201 180 185 180 130 c 0
 180 89 224 55 310 55 c 0
 477 55 530 175 550 210 c 1
 620 210 l 1
 620 -240 l 1
 540 -240 l 1
EndSplineSet
Validated: 1
Layer: 3
SplineSet
185 395 m 0
 213 395 235 417 235 445 c 0
 235 473 213 495 185 495 c 0
 157 495 135 473 135 445 c 0
 135 417 157 395 185 395 c 0
510 -240 m 1
 510 0 l 2
 510 25 516 50 522 70 c 1
 482 22 417 -20 320 -20 c 0
 172 -20 60 55 60 145 c 0
 60 268 199 287 340 325 c 0
 459 357 500 374 500 420 c 0
 500 483 446 525 350 525 c 0
 319 525 296 522 280 518 c 1
 299 501 310 476 310 445 c 0
 310 375 253 330 185 330 c 0
 117 330 60 375 60 445 c 0
 60 527 162 620 350 620 c 0
 521 620 640 533 640 410 c 0
 640 295 523 256 370 215 c 0
 243 181 210 175 210 140 c 0
 210 104 262 85 320 85 c 0
 444 85 519 151 540 210 c 1
 640 210 l 1
 640 -240 l 1
 510 -240 l 1
EndSplineSet
Colour: ffff00
EndChar

StartChar: uni0E8D
Encoding: 501 3725 6
Width: 700
VWidth: 0
Flags: HMW
LayerCount: 4
Layer: 2
SplineSet
260 455 m 0
 288 455 310 477 310 505 c 0
 310 533 288 555 260 555 c 0
 232 555 210 533 210 505 c 0
 210 477 232 455 260 455 c 0
260 400 m 0
 206 400 164 440 156 492 c 1
 152 481 150 467 150 450 c 0
 150 374 244 315 345 315 c 1
 345 255 l 1
 259 255 170 245 170 180 c 0
 170 109 235 55 345 55 c 0
 455 55 520 109 520 180 c 2
 520 600 l 1
 610 600 l 1
 610 180 l 2
 610 55 490 -20 345 -20 c 0
 200 -20 80 65 80 180 c 0
 80 244 127 278 189 297 c 1
 126 332 80 387 80 450 c 0
 80 547 156 610 260 610 c 0
 320 610 370 566 370 505 c 0
 370 444 320 400 260 400 c 0
EndSplineSet
Validated: 1
Layer: 3
SplineSet
250 445 m 0
 278 445 300 467 300 495 c 0
 300 523 278 545 250 545 c 0
 222 545 200 523 200 495 c 0
 200 467 222 445 250 445 c 0
250 380 m 0
 201 380 163 415 146 454 c 1
 145 450 145 445 145 440 c 0
 145 370 229 325 345 325 c 1
 345 255 l 1
 251 255 200 230 200 180 c 0
 201 123 265 90 345 90 c 0
 425 90 490 139 490 210 c 2
 490 600 l 1
 640 600 l 1
 640 210 l 2
 640 85 538 -20 345 -20 c 0
 152 -20 50 89 50 180 c 0
 50 237 81 277 147 300 c 1
 89 331 50 378 50 440 c 0
 50 558 145 610 250 610 c 0
 318 610 375 565 375 495 c 0
 375 425 318 380 250 380 c 0
EndSplineSet
Colour: ffff00
EndChar

StartChar: uni0E94
Encoding: 502 3732 7
Width: 700
VWidth: 0
Flags: HMW
LayerCount: 4
Layer: 2
SplineSet
250 145 m 0
 222 145 200 123 200 95 c 0
 200 67 222 45 250 45 c 0
 278 45 300 67 300 95 c 0
 300 123 278 145 250 145 c 0
250 200 m 0
 310 200 360 156 360 95 c 0
 360 34 310 -10 250 -10 c 0
 153 -10 90 63 90 160 c 2
 90 420 l 2
 90 535 205 620 350 620 c 0
 495 620 610 545 610 420 c 2
 610 0 l 1
 520 0 l 1
 520 420 l 2
 520 491 460 545 350 545 c 0
 240 545 180 491 180 420 c 2
 180 173 l 1
 198 190 223 200 250 200 c 0
EndSplineSet
Validated: 1
Layer: 3
SplineSet
250 155 m 0
 222 155 200 133 200 105 c 0
 200 77 222 55 250 55 c 0
 278 55 300 77 300 105 c 0
 300 133 278 155 250 155 c 0
250 220 m 0
 318 220 375 175 375 105 c 0
 375 35 318 -10 250 -10 c 0
 146 -10 60 58 60 160 c 2
 60 390 l 2
 60 505 157 620 350 620 c 0
 543 620 640 515 640 390 c 2
 640 0 l 1
 490 0 l 1
 490 390 l 2
 490 461 430 510 350 510 c 0
 270 510 210 461 210 390 c 2
 210 240 l 2
 210 231 208 219 206 208 c 1
 219 215 233 220 250 220 c 0
EndSplineSet
Colour: ffff00
EndChar

StartChar: uni0E95
Encoding: 503 3733 8
Width: 700
VWidth: 0
Flags: HMW
LayerCount: 4
Layer: 2
SplineSet
250 145 m 0
 222 145 200 123 200 95 c 0
 200 67 222 45 250 45 c 0
 278 45 300 67 300 95 c 0
 300 123 278 145 250 145 c 0
250 200 m 0
 310 200 360 156 360 95 c 0
 360 34 310 -10 250 -10 c 0
 153 -10 90 63 90 160 c 2
 90 420 l 2
 90 551 205 620 235 620 c 1
 350 525 l 1
 465 620 l 1
 495 620 610 551 610 420 c 2
 610 0 l 1
 520 0 l 1
 520 420 l 2
 520 459 508 509 465 540 c 1
 350 450 l 1
 235 540 l 1
 192 509 180 459 180 420 c 2
 180 173 l 1
 198 190 223 200 250 200 c 0
EndSplineSet
Validated: 1
Layer: 3
SplineSet
250 155 m 0
 222 155 200 133 200 105 c 0
 200 77 222 55 250 55 c 0
 278 55 300 77 300 105 c 0
 300 133 278 155 250 155 c 0
250 220 m 0
 318 220 375 175 375 105 c 0
 375 35 318 -10 250 -10 c 0
 146 -10 60 58 60 160 c 2
 60 390 l 2
 60 552 184 620 245 620 c 1
 350 525 l 1
 455 620 l 1
 516 620 640 552 640 390 c 2
 640 0 l 1
 490 0 l 1
 490 390 l 2
 490 460 480 492 455 510 c 1
 350 420 l 1
 245 510 l 1
 220 492 210 460 210 390 c 2
 210 240 l 2
 210 231 208 219 206 208 c 1
 219 215 233 220 250 220 c 0
EndSplineSet
Colour: ffff00
EndChar

StartChar: uni0E96
Encoding: 504 3734 9
Width: 710
VWidth: 0
Flags: HMW
LayerCount: 4
Layer: 2
SplineSet
150 555 m 0
 122 555 100 533 100 505 c 0
 100 477 122 455 150 455 c 0
 178 455 200 477 200 505 c 0
 200 533 178 555 150 555 c 0
250 145 m 0
 222 145 200 123 200 95 c 0
 200 67 222 45 250 45 c 0
 278 45 300 67 300 95 c 0
 300 123 278 145 250 145 c 0
250 200 m 0
 310 200 360 156 360 95 c 0
 360 34 310 -10 250 -10 c 0
 190 -10 140 34 140 95 c 2
 140 400 l 1
 85 405 40 447 40 505 c 0
 40 566 90 610 150 610 c 0
 200 610 243 580 256 534 c 1
 295 572 358 610 430 610 c 0
 536 610 610 545 610 420 c 2
 610 -240 l 1
 520 -240 l 1
 520 420 l 2
 520 489 501 535 410 535 c 0
 318 535 262 478 230 427 c 1
 230 198 l 1
 236 199 243 200 250 200 c 0
EndSplineSet
Validated: 1
Layer: 3
SplineSet
155 545 m 0
 127 545 105 523 105 495 c 0
 105 467 127 445 155 445 c 0
 183 445 205 467 205 495 c 0
 205 523 183 545 155 545 c 0
235 155 m 0
 207 155 185 133 185 105 c 0
 185 77 207 55 235 55 c 0
 263 55 285 77 285 105 c 0
 285 133 263 155 235 155 c 0
115 386 m 1
 66 400 30 440 30 495 c 0
 30 565 87 610 155 610 c 0
 214 610 265 576 277 521 c 1
 315 567 373 610 460 610 c 0
 565 610 630 544 630 400 c 2
 630 -240 l 1
 480 -240 l 1
 480 400 l 2
 480 472 451 500 400 500 c 0
 338 500 292 452 260 402 c 1
 260 300 l 1
 260 240 l 2
 260 231 259 224 257 218 c 1
 315 210 360 167 360 105 c 0
 360 35 303 -10 235 -10 c 0
 167 -10 110 35 110 105 c 2
 110 300 l 1
 110 360 l 2
 110 372 112 380 115 386 c 1
EndSplineSet
Colour: ffff00
EndChar

StartChar: uni0E97
Encoding: 505 3735 10
Width: 780
VWidth: 0
Flags: HMW
LayerCount: 4
Layer: 2
SplineSet
160 555 m 0
 132 555 110 533 110 505 c 0
 110 477 132 455 160 455 c 0
 188 455 210 477 210 505 c 0
 210 533 188 555 160 555 c 0
200 300 m 2
 200 130 l 2
 200 75 243 65 275 65 c 0
 307 65 350 75 350 130 c 2
 350 470 l 2
 350 559 420 610 515 610 c 0
 610 610 680 559 680 470 c 2
 680 0 l 1
 590 0 l 1
 590 470 l 2
 590 525 547 535 515 535 c 0
 483 535 440 525 440 470 c 2
 440 130 l 2
 440 41 370 -10 275 -10 c 0
 180 -10 110 41 110 130 c 2
 110 300 l 2
 110 353 147 379 177 406 c 1
 171 405 166 405 160 405 c 0
 100 405 50 444 50 505 c 0
 50 566 100 610 160 610 c 0
 231 610 280 560 280 500 c 0
 280 403 200 380 200 300 c 2
EndSplineSet
Validated: 1
Layer: 3
SplineSet
155 445 m 0
 183 445 205 467 205 495 c 0
 205 523 183 545 155 545 c 0
 127 545 105 523 105 495 c 0
 105 467 127 445 155 445 c 0
155 385 m 0
 87 385 30 425 30 495 c 0
 30 565 87 610 155 610 c 0
 235 610 300 554 300 480 c 0
 300 383 240 364 240 270 c 2
 240 150 l 2
 240 114 263 100 290 100 c 0
 317 100 340 114 340 150 c 2
 340 450 l 2
 340 548 415 610 525 610 c 0
 635 610 720 548 720 450 c 2
 720 0 l 1
 570 0 l 1
 570 450 l 2
 570 486 547 500 520 500 c 0
 493 500 470 486 470 450 c 2
 470 150 l 2
 470 52 395 -10 285 -10 c 0
 175 -10 90 52 90 150 c 2
 90 270 l 2
 90 325 126 356 160 385 c 1
 159 385 157 385 155 385 c 0
EndSplineSet
Colour: ffff00
EndChar

StartChar: uni0E99
Encoding: 506 3737 11
Width: 690
VWidth: 0
Flags: HMW
LayerCount: 4
Layer: 2
SplineSet
60 15 m 1
 85 70 l 1
 95 65 116 55 135 55 c 0
 162 55 170 83 170 120 c 2
 170 402 l 1
 164 401 157 400 150 400 c 0
 90 400 40 444 40 505 c 0
 40 566 90 610 150 610 c 0
 210 610 260 566 260 505 c 2
 260 144 l 1
 292 102 336 65 400 65 c 0
 485 65 510 107 510 170 c 2
 510 600 l 1
 600 600 l 1
 600 170 l 2
 600 57 537 -10 430 -10 c 0
 356 -10 295 26 255 72 c 1
 243 28 209 -10 150 -10 c 0
 108 -10 78 6 60 15 c 1
150 555 m 0
 122 555 100 533 100 505 c 0
 100 477 122 455 150 455 c 0
 178 455 200 477 200 505 c 0
 200 533 178 555 150 555 c 0
EndSplineSet
Validated: 1
Layer: 3
SplineSet
165 445 m 0
 193 445 215 467 215 495 c 0
 215 523 193 545 165 545 c 0
 137 545 115 523 115 495 c 0
 115 467 137 445 165 445 c 0
290 495 m 2
 290 158 l 1
 319 125 355 100 400 100 c 0
 451 100 480 128 480 200 c 2
 480 600 l 1
 630 600 l 1
 630 200 l 2
 630 56 565 -10 460 -10 c 0
 377 -10 321 29 283 72 c 1
 267 21 223 -10 155 -10 c 0
 98 -10 62 4 40 15 c 1
 65 85 l 1
 65 85 86 76 107 76 c 0
 124 76 140 83 140 120 c 2
 140 360 l 2
 140 372 142 380 145 386 c 1
 86 393 40 432 40 495 c 0
 40 565 97 610 165 610 c 0
 233 610 290 565 290 495 c 2
EndSplineSet
Colour: ffff00
EndChar

StartChar: uni0E9A
Encoding: 507 3738 12
Width: 710
VWidth: 0
Flags: HMW
LayerCount: 4
Layer: 2
SplineSet
150 555 m 0
 122 555 100 533 100 505 c 0
 100 477 122 455 150 455 c 0
 178 455 200 477 200 505 c 0
 200 533 178 555 150 555 c 0
100 300 m 2
 100 353 137 379 167 406 c 1
 161 405 156 405 150 405 c 0
 90 405 40 444 40 505 c 0
 40 566 90 610 150 610 c 0
 221 610 270 560 270 500 c 0
 270 403 190 380 190 300 c 2
 190 170 l 2
 190 105 255 55 360 55 c 0
 465 55 530 105 530 170 c 2
 530 600 l 1
 620 600 l 1
 620 170 l 2
 620 34 495 -20 360 -20 c 0
 225 -20 100 34 100 170 c 2
 100 300 l 2
EndSplineSet
Validated: 1
Layer: 3
SplineSet
155 445 m 0
 183 445 205 467 205 495 c 0
 205 523 183 545 155 545 c 0
 127 545 105 523 105 495 c 0
 105 467 127 445 155 445 c 0
155 385 m 0
 87 385 30 425 30 495 c 0
 30 565 87 610 155 610 c 0
 235 610 300 554 300 480 c 0
 300 383 240 364 240 270 c 2
 240 190 l 2
 240 119 290 90 370 90 c 0
 450 90 500 119 500 190 c 2
 500 600 l 1
 650 600 l 1
 650 190 l 2
 650 65 574 -20 370 -20 c 0
 166 -20 90 75 90 190 c 2
 90 270 l 2
 90 325 126 356 160 385 c 1
 159 385 157 385 155 385 c 0
EndSplineSet
Colour: ffff00
EndChar

StartChar: uni0E9B
Encoding: 508 3739 13
Width: 720
VWidth: 0
Flags: HMW
LayerCount: 4
Layer: 2
SplineSet
150 555 m 0
 122 555 100 533 100 505 c 0
 100 477 122 455 150 455 c 0
 178 455 200 477 200 505 c 0
 200 533 178 555 150 555 c 0
100 300 m 2
 100 353 137 379 167 406 c 1
 161 405 156 405 150 405 c 0
 90 405 40 444 40 505 c 0
 40 566 90 610 150 610 c 0
 221 610 270 560 270 500 c 0
 270 403 190 380 190 300 c 2
 190 170 l 2
 190 105 255 55 360 55 c 0
 465 55 530 105 530 170 c 2
 530 840 l 1
 620 840 l 1
 620 170 l 2
 620 34 495 -20 360 -20 c 0
 225 -20 100 34 100 170 c 2
 100 300 l 2
EndSplineSet
Validated: 1
Layer: 3
SplineSet
155 445 m 0
 183 445 205 467 205 495 c 0
 205 523 183 545 155 545 c 0
 127 545 105 523 105 495 c 0
 105 467 127 445 155 445 c 0
155 385 m 0
 87 385 30 425 30 495 c 0
 30 565 87 610 155 610 c 0
 235 610 300 554 300 480 c 0
 300 383 240 364 240 270 c 2
 240 190 l 2
 240 119 290 90 370 90 c 0
 450 90 500 119 500 190 c 2
 500 840 l 1
 650 840 l 1
 650 190 l 2
 650 65 574 -20 370 -20 c 0
 166 -20 90 75 90 190 c 2
 90 270 l 2
 90 325 126 356 160 385 c 1
 159 385 157 385 155 385 c 0
EndSplineSet
Colour: ffff00
EndChar

StartChar: uni0E9C
Encoding: 509 3740 14
Width: 800
VWidth: 0
Flags: HMW
LayerCount: 4
Layer: 2
SplineSet
240 555 m 0
 212 555 190 533 190 505 c 0
 190 477 212 455 240 455 c 0
 268 455 290 477 290 505 c 0
 290 533 268 555 240 555 c 0
240 610 m 0
 300 610 350 566 350 505 c 0
 350 444 300 405 240 405 c 0
 216 405 195 413 180 427 c 1
 180 150 l 2
 180 102 213 65 265 65 c 0
 317 65 350 98 350 150 c 2
 350 300 l 1
 440 300 l 1
 440 150 l 2
 440 98 473 65 525 65 c 0
 577 65 610 102 610 150 c 2
 610 400 l 2
 610 407 613 416 618 425 c 1
 604 416 586 410 565 410 c 0
 505 410 460 449 460 510 c 0
 460 571 505 610 565 610 c 0
 589 610 608 602 623 591 c 1
 621 598 620 606 620 615 c 2
 620 660 l 1
 700 660 l 1
 700 150 l 2
 700 47 632 -10 525 -10 c 0
 461 -10 419 22 395 61 c 1
 371 22 329 -10 265 -10 c 0
 158 -10 90 47 90 150 c 2
 90 450 l 2
 90 527 132 610 240 610 c 0
570 560 m 0
 542 560 520 538 520 510 c 0
 520 482 542 460 570 460 c 0
 598 460 620 482 620 510 c 0
 620 538 598 560 570 560 c 0
EndSplineSet
Validated: 1
Layer: 3
SplineSet
610 660 m 1
 730 660 l 1
 730 150 l 2
 730 49 654 -10 540 -10 c 0
 483 -10 429 14 395 54 c 1
 361 14 307 -10 250 -10 c 0
 136 -10 60 49 60 150 c 2
 60 450 l 2
 60 527 102 610 210 610 c 0
 278 610 335 565 335 495 c 0
 335 425 278 385 210 385 c 0
 208 385 206 385 203 385 c 1
 207 375 210 363 210 350 c 2
 210 150 l 2
 210 115 244 100 270 100 c 0
 296 100 330 115 330 150 c 2
 330 330 l 1
 460 330 l 1
 460 150 l 2
 460 115 494 100 520 100 c 0
 546 100 580 115 580 150 c 2
 580 350 l 2
 580 363 583 374 587 383 c 1
 578 381 569 380 560 380 c 0
 492 380 435 425 435 495 c 0
 435 565 492 610 560 610 c 0
 580 610 599 605 615 596 c 1
 612 604 610 612 610 620 c 2
 610 660 l 1
560 545 m 0
 532 545 510 523 510 495 c 0
 510 467 532 445 560 445 c 0
 588 445 610 467 610 495 c 0
 610 523 588 545 560 545 c 0
210 445 m 0
 238 445 260 467 260 495 c 0
 260 523 238 545 210 545 c 0
 182 545 160 523 160 495 c 0
 160 467 182 445 210 445 c 0
EndSplineSet
Colour: ffff00
EndChar

StartChar: uni0E9D
Encoding: 510 3741 15
Width: 800
VWidth: 0
Flags: HMW
LayerCount: 4
Layer: 2
SplineSet
240 555 m 0
 212 555 190 533 190 505 c 0
 190 477 212 455 240 455 c 0
 268 455 290 477 290 505 c 0
 290 533 268 555 240 555 c 0
240 610 m 0
 300 610 350 566 350 505 c 0
 350 444 300 405 240 405 c 0
 216 405 195 413 180 427 c 1
 180 150 l 2
 180 102 213 65 265 65 c 0
 317 65 350 98 350 150 c 2
 350 300 l 1
 440 300 l 1
 440 150 l 2
 440 98 473 65 525 65 c 0
 577 65 610 102 610 150 c 2
 610 840 l 1
 700 840 l 1
 700 150 l 2
 700 47 632 -10 525 -10 c 0
 461 -10 419 22 395 61 c 1
 371 22 329 -10 265 -10 c 0
 158 -10 90 47 90 150 c 2
 90 450 l 2
 90 527 132 610 240 610 c 0
EndSplineSet
Validated: 1
Layer: 3
SplineSet
210 445 m 0
 238 445 260 467 260 495 c 0
 260 523 238 545 210 545 c 0
 182 545 160 523 160 495 c 0
 160 467 182 445 210 445 c 0
203 385 m 1
 207 375 210 363 210 350 c 2
 210 150 l 2
 210 115 244 100 270 100 c 0
 296 100 330 115 330 150 c 2
 330 330 l 1
 460 330 l 1
 460 150 l 2
 460 115 494 100 520 100 c 0
 546 100 580 115 580 150 c 2
 580 840 l 1
 730 840 l 1
 730 150 l 2
 730 49 654 -10 540 -10 c 0
 483 -10 429 14 395 54 c 1
 361 14 307 -10 250 -10 c 0
 136 -10 60 49 60 150 c 2
 60 450 l 2
 60 527 102 610 210 610 c 0
 278 610 335 565 335 495 c 0
 335 425 278 385 210 385 c 0
 208 385 206 385 203 385 c 1
EndSplineSet
Colour: ffff00
EndChar

StartChar: uni0E9E
Encoding: 511 3742 16
Width: 780
VWidth: 0
Flags: HMW
LayerCount: 4
Layer: 2
SplineSet
150 555 m 0
 122 555 100 533 100 505 c 0
 100 477 122 455 150 455 c 0
 178 455 200 477 200 505 c 0
 200 533 178 555 150 555 c 0
395 58 m 1
 368 15 322 -10 270 -10 c 0
 161 -10 100 56 100 150 c 2
 100 300 l 2
 100 353 137 379 167 406 c 1
 161 405 156 405 150 405 c 0
 90 405 40 444 40 505 c 0
 40 566 90 610 150 610 c 0
 221 610 270 560 270 500 c 0
 270 403 190 380 190 300 c 2
 190 150 l 2
 190 97 221 65 270 65 c 0
 319 65 350 97 350 150 c 2
 350 300 l 1
 440 300 l 1
 440 150 l 2
 440 97 471 65 520 65 c 0
 569 65 600 97 600 150 c 2
 600 600 l 1
 690 600 l 1
 690 150 l 2
 690 56 629 -10 520 -10 c 0
 468 -10 422 15 395 58 c 1
EndSplineSet
Validated: 1
Layer: 3
SplineSet
155 445 m 0
 183 445 205 467 205 495 c 0
 205 523 183 545 155 545 c 0
 127 545 105 523 105 495 c 0
 105 467 127 445 155 445 c 0
155 385 m 0
 87 385 30 425 30 495 c 0
 30 565 87 610 155 610 c 0
 235 610 300 554 300 480 c 0
 300 383 240 364 240 270 c 2
 240 150 l 2
 240 115 264 100 290 100 c 0
 316 100 340 115 340 150 c 2
 340 330 l 1
 470 330 l 1
 470 150 l 2
 470 115 494 100 520 100 c 0
 546 100 570 115 570 150 c 2
 570 600 l 1
 720 600 l 1
 720 150 l 2
 720 49 654 -10 540 -10 c 0
 485 -10 436 12 405 49 c 1
 374 12 325 -10 270 -10 c 0
 156 -10 90 49 90 150 c 2
 90 270 l 2
 90 325 126 356 160 385 c 1
 159 385 157 385 155 385 c 0
EndSplineSet
Colour: ffff00
EndChar

StartChar: uni0E9F
Encoding: 512 3743 17
Width: 790
VWidth: 0
Flags: HMW
LayerCount: 4
Layer: 2
SplineSet
150 555 m 0
 122 555 100 533 100 505 c 0
 100 477 122 455 150 455 c 0
 178 455 200 477 200 505 c 0
 200 533 178 555 150 555 c 0
395 58 m 1
 368 15 322 -10 270 -10 c 0
 161 -10 100 56 100 150 c 2
 100 300 l 2
 100 353 137 379 167 406 c 1
 161 405 156 405 150 405 c 0
 90 405 40 444 40 505 c 0
 40 566 90 610 150 610 c 0
 221 610 270 560 270 500 c 0
 270 403 190 380 190 300 c 2
 190 150 l 2
 190 97 221 65 270 65 c 0
 319 65 350 97 350 150 c 2
 350 300 l 1
 440 300 l 1
 440 150 l 2
 440 97 471 65 520 65 c 0
 569 65 600 97 600 150 c 2
 600 840 l 1
 690 840 l 1
 690 150 l 2
 690 56 629 -10 520 -10 c 0
 468 -10 422 15 395 58 c 1
EndSplineSet
Validated: 1
Layer: 3
SplineSet
155 445 m 0
 183 445 205 467 205 495 c 0
 205 523 183 545 155 545 c 0
 127 545 105 523 105 495 c 0
 105 467 127 445 155 445 c 0
155 385 m 0
 87 385 30 425 30 495 c 0
 30 565 87 610 155 610 c 0
 235 610 300 554 300 480 c 0
 300 383 240 364 240 270 c 2
 240 150 l 2
 240 115 264 100 290 100 c 0
 316 100 340 115 340 150 c 2
 340 330 l 1
 470 330 l 1
 470 150 l 2
 470 115 494 100 520 100 c 0
 546 100 570 115 570 150 c 2
 570 840 l 1
 720 840 l 1
 720 150 l 2
 720 49 654 -10 540 -10 c 0
 485 -10 436 12 405 49 c 1
 374 12 325 -10 270 -10 c 0
 156 -10 90 49 90 150 c 2
 90 270 l 2
 90 325 126 356 160 385 c 1
 159 385 157 385 155 385 c 0
EndSplineSet
Colour: ffff00
EndChar

StartChar: uni0EA1
Encoding: 513 3745 18
Width: 700
VWidth: 0
Flags: HMW
LayerCount: 4
Layer: 2
SplineSet
140 610 m 1
 237 610 260 560 260 500 c 2
 260 134 l 1
 291 96 336 65 410 65 c 0
 501 65 520 111 520 180 c 2
 520 600 l 1
 610 600 l 1
 610 180 l 2
 610 55 536 -10 430 -10 c 0
 352 -10 290 27 255 63 c 1
 241 19 199 -10 150 -10 c 0
 90 -10 40 34 40 95 c 0
 40 156 90 200 150 200 c 0
 157 200 164 199 170 198 c 1
 170 500 l 2
 170 531 161 545 140 545 c 1
 140 610 l 1
150 45 m 0
 178 45 200 67 200 95 c 0
 200 123 178 145 150 145 c 0
 122 145 100 123 100 95 c 0
 100 67 122 45 150 45 c 0
EndSplineSet
Validated: 1
Layer: 3
SplineSet
155 155 m 0
 127 155 105 133 105 105 c 0
 105 77 127 55 155 55 c 0
 183 55 205 77 205 105 c 0
 205 133 183 155 155 155 c 0
100 610 m 1
 244 610 280 565 280 460 c 2
 280 170 l 1
 310 132 350 100 400 100 c 0
 451 100 480 128 480 200 c 2
 480 600 l 1
 630 600 l 1
 630 200 l 2
 630 56 565 -10 460 -10 c 0
 373 -10 315 33 277 79 c 1
 265 24 214 -10 155 -10 c 0
 87 -10 30 35 30 105 c 0
 30 167 75 210 133 218 c 1
 131 224 130 231 130 240 c 2
 130 460 l 2
 130 508 126 520 100 520 c 1
 100 610 l 1
EndSplineSet
Colour: ffff00
EndChar

StartChar: uni0EA2
Encoding: 514 3746 19
Width: 710
VWidth: 0
Flags: HMW
LayerCount: 4
Layer: 2
SplineSet
260 455 m 0
 288 455 310 477 310 505 c 0
 310 533 288 555 260 555 c 0
 232 555 210 533 210 505 c 0
 210 477 232 455 260 455 c 0
260 400 m 0
 206 400 164 440 156 492 c 1
 152 481 150 467 150 450 c 0
 150 374 244 315 345 315 c 1
 345 255 l 1
 259 255 170 245 170 180 c 0
 170 109 235 55 345 55 c 0
 455 55 520 109 520 180 c 2
 520 840 l 1
 610 840 l 1
 610 180 l 2
 610 55 490 -20 345 -20 c 0
 200 -20 80 65 80 180 c 0
 80 244 127 278 189 297 c 1
 126 332 80 387 80 450 c 0
 80 547 156 610 260 610 c 0
 320 610 370 566 370 505 c 0
 370 444 320 400 260 400 c 0
EndSplineSet
Validated: 1
Layer: 3
SplineSet
250 445 m 0
 278 445 300 467 300 495 c 0
 300 523 278 545 250 545 c 0
 222 545 200 523 200 495 c 0
 200 467 222 445 250 445 c 0
250 380 m 0
 201 380 163 415 146 454 c 1
 145 450 145 445 145 440 c 0
 145 370 229 325 345 325 c 1
 345 255 l 1
 251 255 200 230 200 180 c 0
 201 123 265 90 345 90 c 0
 425 90 490 139 490 210 c 2
 490 840 l 1
 640 840 l 1
 640 210 l 2
 640 85 538 -20 345 -20 c 0
 152 -20 50 89 50 180 c 0
 50 237 81 277 147 300 c 1
 89 331 50 378 50 440 c 0
 50 558 145 610 250 610 c 0
 318 610 375 565 375 495 c 0
 375 425 318 380 250 380 c 0
EndSplineSet
Colour: ffff00
EndChar

StartChar: uni0EA3
Encoding: 515 3747 20
Width: 680
VWidth: 0
Flags: HMW
LayerCount: 4
Layer: 2
SplineSet
335 620 m 0
 475 620 590 545 590 420 c 1
 505 420 l 1
 505 491 438 550 335 550 c 0
 232 550 165 498 165 445 c 0
 165 389 264 374 355 350 c 0
 460 322 600 292 600 165 c 0
 600 24 466 -20 335 -20 c 0
 233 -20 80 26 80 155 c 0
 80 216 130 260 190 260 c 0
 250 260 300 216 300 155 c 0
 300 108 270 74 229 61 c 1
 256 55 291 50 335 50 c 0
 436 50 510 88 510 155 c 0
 510 230 422 249 325 275 c 0
 241 297 80 315 80 435 c 0
 80 544 195 620 335 620 c 0
190 205 m 0
 162 205 140 183 140 155 c 0
 140 127 162 105 190 105 c 0
 218 105 240 127 240 155 c 0
 240 183 218 205 190 205 c 0
EndSplineSet
Validated: 1
Layer: 3
SplineSet
175 205 m 0
 147 205 125 183 125 155 c 0
 125 127 147 105 175 105 c 0
 203 105 225 127 225 155 c 0
 225 183 203 205 175 205 c 0
175 270 m 0
 243 270 300 225 300 155 c 0
 300 124 289 99 270 82 c 1
 286 78 309 75 340 75 c 0
 436 75 490 107 490 170 c 0
 490 213 449 234 330 265 c 0
 198 300 60 316 60 429 c 0
 60 538 185 620 340 620 c 0
 533 620 630 507 630 400 c 1
 490 400 l 1
 490 471 429 510 340 510 c 0
 254 510 205 469 205 440 c 0
 205 398 284 388 360 370 c 0
 540 328 630 295 630 180 c 0
 630 57 511 -20 340 -20 c 0
 152 -20 50 73 50 155 c 0
 50 225 107 270 175 270 c 0
EndSplineSet
Colour: ffff00
EndChar

StartChar: uni0EA5
Encoding: 516 3749 21
Width: 690
VWidth: 0
Flags: HMW
LayerCount: 4
Layer: 2
SplineSet
210 135 m 0
 182 135 160 113 160 85 c 0
 160 57 182 35 210 35 c 0
 238 35 260 57 260 85 c 0
 260 113 238 135 210 135 c 0
220 185 m 0
 273 185 320 146 320 85 c 0
 320 24 270 -20 210 -20 c 0
 143 -20 80 34 80 120 c 0
 80 217 157 280 250 280 c 0
 404 280 459 151 483 60 c 1
 500 61 510 70 510 100 c 2
 510 420 l 2
 510 498 441 545 340 545 c 0
 239 545 170 498 170 420 c 1
 80 420 l 1
 80 534 191 620 340 620 c 0
 489 620 600 534 600 420 c 2
 600 100 l 2
 600 37 591 0 520 0 c 2
 430 0 l 1
 416 74 378 220 250 220 c 0
 200 220 164 194 151 160 c 1
 168 176 192 185 220 185 c 0
EndSplineSet
Validated: 1
Layer: 3
SplineSet
200 130 m 0
 175 130 155 110 155 85 c 0
 155 60 175 40 200 40 c 0
 225 40 245 60 245 85 c 0
 245 110 225 130 200 130 c 0
200 185 m 0
 264 185 315 149 315 85 c 0
 315 21 264 -20 200 -20 c 0
 119 -20 50 44 50 130 c 0
 50 227 141 290 240 290 c 0
 382 290 447 208 480 130 c 1
 480 390 l 2
 480 453 429 500 340 500 c 0
 251 500 200 450 200 390 c 1
 50 390 l 1
 50 504 142 620 340 620 c 0
 538 620 630 505 630 390 c 2
 630 80 l 2
 630 3 592 0 480 0 c 2
 430 0 l 1
 415 79 371 200 230 200 c 0
 203 200 183 193 171 181 c 1
 180 184 190 185 200 185 c 0
EndSplineSet
Colour: ffff00
EndChar

StartChar: uni0EA7
Encoding: 517 3751 22
Width: 660
VWidth: 0
Flags: HMW
LayerCount: 4
Layer: 2
SplineSet
200 205 m 0
 172 205 150 183 150 155 c 0
 150 127 172 105 200 105 c 0
 228 105 250 127 250 155 c 0
 250 183 228 205 200 205 c 0
200 260 m 0
 260 260 310 216 310 155 c 0
 310 106 278 72 235 60 c 1
 258 54 289 50 330 50 c 0
 419 50 480 103 480 180 c 2
 480 420 l 2
 480 491 423 545 320 545 c 0
 217 545 160 491 160 420 c 1
 70 420 l 1
 70 535 180 620 320 620 c 0
 460 620 570 545 570 420 c 2
 570 180 l 2
 570 34 439 -20 330 -20 c 0
 228 -20 90 26 90 155 c 0
 90 216 140 260 200 260 c 0
EndSplineSet
Validated: 1
Layer: 3
SplineSet
185 205 m 0
 157 205 135 183 135 155 c 0
 135 127 157 105 185 105 c 0
 213 105 235 127 235 155 c 0
 235 183 213 205 185 205 c 0
185 270 m 0
 253 270 310 225 310 155 c 0
 310 122 297 96 276 79 c 1
 290 76 308 75 330 75 c 0
 416 75 450 118 450 190 c 2
 450 390 l 2
 450 453 404 500 320 500 c 0
 236 500 190 450 190 390 c 1
 40 390 l 1
 40 504 132 620 320 620 c 0
 508 620 600 505 600 390 c 2
 600 190 l 2
 600 67 501 -20 330 -20 c 0
 159 -20 60 59 60 155 c 0
 60 225 117 270 185 270 c 0
EndSplineSet
Colour: ffff00
EndChar

StartChar: uni0EAA
Encoding: 518 3754 23
Width: 700
VWidth: 0
Flags: HMW
LayerCount: 4
Layer: 2
SplineSet
220 135 m 0
 192 135 170 113 170 85 c 0
 170 57 192 35 220 35 c 0
 248 35 270 57 270 85 c 0
 270 113 248 135 220 135 c 0
230 185 m 0
 283 185 330 146 330 85 c 0
 330 24 280 -20 220 -20 c 0
 153 -20 90 34 90 120 c 0
 90 217 167 280 260 280 c 0
 414 280 469 151 493 60 c 1
 510 61 520 70 520 100 c 2
 520 360 l 2
 520 371 523 380 526 386 c 1
 481 365 417 345 340 345 c 0
 205 345 80 391 80 455 c 0
 80 539 200 620 340 620 c 0
 423 620 492 589 535 542 c 1
 532 551 530 560 530 570 c 2
 530 660 l 1
 610 660 l 1
 610 100 l 2
 610 37 601 0 530 0 c 2
 440 0 l 1
 426 74 388 220 260 220 c 0
 210 220 174 194 161 160 c 1
 178 176 202 185 230 185 c 0
528 455 m 1
 505 509 432 550 340 550 c 0
 231 550 170 489 170 460 c 0
 170 436 241 405 340 405 c 0
 431 405 495 434 528 455 c 1
EndSplineSet
Validated: 1
Layer: 3
SplineSet
510 660 m 1
 630 660 l 1
 630 80 l 2
 630 3 592 0 480 0 c 2
 430 0 l 1
 415 79 371 200 230 200 c 0
 203 200 183 193 171 181 c 1
 180 184 190 185 200 185 c 0
 264 185 315 149 315 85 c 0
 315 21 264 -20 200 -20 c 0
 119 -20 50 44 50 130 c 0
 50 227 141 290 240 290 c 0
 382 290 447 208 480 130 c 1
 480 320 l 2
 480 336 486 349 494 360 c 1
 453 344 401 330 340 330 c 0
 205 330 50 366 50 450 c 0
 50 517 156 620 340 620 c 0
 419 620 476 595 515 559 c 1
 512 568 510 579 510 590 c 2
 510 660 l 1
200 130 m 0
 175 130 155 110 155 85 c 0
 155 60 175 40 200 40 c 0
 225 40 245 60 245 85 c 0
 245 110 225 130 200 130 c 0
340 520 m 0
 255 520 180 481 180 450 c 0
 180 426 253 410 340 410 c 0
 412 410 468 426 505 443 c 1
 477 488 415 520 340 520 c 0
EndSplineSet
Colour: ffff00
EndChar

StartChar: uni0EAB
Encoding: 519 3755 24
Width: 830
VWidth: 0
Flags: HMW
LayerCount: 4
Layer: 2
SplineSet
415 560 m 0
 387 560 365 538 365 510 c 0
 365 482 387 460 415 460 c 0
 443 460 465 482 465 510 c 0
 465 538 443 560 415 560 c 0
160 555 m 0
 132 555 110 533 110 505 c 0
 110 477 132 455 160 455 c 0
 188 455 210 477 210 505 c 0
 210 533 188 555 160 555 c 0
520 517 m 1
 546 556 576 600 630 600 c 0
 681 600 730 561 730 480 c 2
 730 0 l 1
 640 0 l 1
 640 460 l 2
 640 501 630 525 600 525 c 0
 552 525 524 437 470 418 c 1
 470 130 l 2
 470 41 395 -10 290 -10 c 0
 185 -10 110 40 110 130 c 2
 110 300 l 2
 110 353 147 379 177 406 c 1
 171 405 166 405 160 405 c 0
 100 405 50 444 50 505 c 0
 50 566 100 610 160 610 c 0
 231 610 280 560 280 500 c 0
 280 403 200 380 200 300 c 2
 200 130 l 2
 200 85 248 65 290 65 c 0
 332 65 380 85 380 130 c 2
 380 416 l 1
 343 430 310 463 310 510 c 0
 310 571 363 610 415 610 c 0
 465 610 516 574 520 517 c 1
EndSplineSet
Validated: 1
Layer: 3
SplineSet
425 550 m 0
 397 550 375 528 375 500 c 0
 375 472 397 450 425 450 c 0
 453 450 475 472 475 500 c 0
 475 528 453 550 425 550 c 0
155 445 m 0
 183 445 205 467 205 495 c 0
 205 523 183 545 155 545 c 0
 127 545 105 523 105 495 c 0
 105 467 127 445 155 445 c 0
155 385 m 0
 87 385 30 425 30 495 c 0
 30 565 87 610 155 610 c 0
 235 610 300 554 300 480 c 0
 300 383 240 364 240 270 c 2
 240 150 l 2
 240 114 273 100 300 100 c 0
 327 100 360 114 360 150 c 2
 360 370 l 2
 360 384 363 396 366 405 c 1
 334 423 310 455 310 500 c 0
 310 570 368 610 425 610 c 0
 477 610 530 576 539 517 c 1
 571 554 611 600 670 600 c 0
 741 600 770 551 770 470 c 2
 770 0 l 1
 620 0 l 1
 620 420 l 2
 620 461 613 480 590 480 c 0
 559 480 521 419 490 407 c 1
 490 150 l 2
 490 52 405 -10 295 -10 c 0
 185 -10 90 52 90 150 c 2
 90 270 l 2
 90 325 126 356 160 385 c 1
 159 385 157 385 155 385 c 0
EndSplineSet
Colour: ffff00
EndChar

StartChar: uni0EAD
Encoding: 520 3757 25
Width: 690
VWidth: 0
Flags: HMW
LayerCount: 4
Layer: 2
SplineSet
190 205 m 0
 162 205 140 183 140 155 c 0
 140 127 162 105 190 105 c 0
 218 105 240 127 240 155 c 0
 240 183 218 205 190 205 c 0
190 260 m 0
 250 260 300 216 300 155 c 0
 300 110 272 76 233 62 c 1
 260 56 295 50 340 50 c 0
 441 50 510 97 510 170 c 2
 510 350 l 2
 510 361 511 371 513 380 c 1
 469 362 410 345 340 345 c 0
 205 345 80 391 80 455 c 0
 80 539 200 620 340 620 c 0
 480 620 600 545 600 420 c 2
 600 170 l 2
 600 45 471 -20 340 -20 c 0
 208 -20 80 49 80 155 c 0
 80 216 130 260 190 260 c 0
516 448 m 1
 499 506 429 550 340 550 c 0
 231 550 170 489 170 460 c 0
 170 436 241 405 340 405 c 0
 421 405 480 428 516 448 c 1
EndSplineSet
Validated: 1
Layer: 3
SplineSet
175 205 m 0
 147 205 125 183 125 155 c 0
 125 127 147 105 175 105 c 0
 203 105 225 127 225 155 c 0
 225 183 203 205 175 205 c 0
175 270 m 0
 243 270 300 225 300 155 c 0
 300 124 288 99 269 82 c 1
 287 78 310 75 340 75 c 0
 436 75 480 128 480 190 c 2
 480 320 l 2
 480 335 483 347 487 357 c 1
 448 342 398 330 340 330 c 0
 205 330 50 366 50 450 c 0
 50 517 156 620 340 620 c 0
 538 620 630 505 630 390 c 2
 630 190 l 2
 630 50 511 -20 340 -20 c 0
 169 -20 50 59 50 155 c 0
 50 225 107 270 175 270 c 0
497 440 m 1
 471 486 409 520 340 520 c 0
 255 520 180 481 180 450 c 0
 180 426 253 410 340 410 c 0
 407 410 460 424 497 440 c 1
EndSplineSet
Colour: ffff00
EndChar

StartChar: uni0EAE
Encoding: 521 3758 26
Width: 700
VWidth: 0
Flags: HMW
LayerCount: 4
Layer: 2
SplineSet
550 600 m 1
 610 600 l 1
 610 390 l 1
 560 390 l 1
 540 425 477 545 310 545 c 0
 224 545 180 511 180 470 c 0
 180 415 257 399 370 365 c 0
 490 329 610 283 610 170 c 0
 610 45 481 -20 350 -20 c 0
 218 -20 90 49 90 155 c 0
 90 216 140 260 200 260 c 0
 260 260 310 216 310 155 c 0
 310 110 282 76 243 62 c 1
 270 56 305 50 350 50 c 0
 451 50 520 97 520 170 c 0
 520 229 453 263 340 295 c 0
 237 324 90 351 90 470 c 0
 90 557 176 620 310 620 c 0
 443 620 521 539 558 489 c 1
 554 502 550 520 550 540 c 2
 550 600 l 1
200 205 m 0
 172 205 150 183 150 155 c 0
 150 127 172 105 200 105 c 0
 228 105 250 127 250 155 c 0
 250 183 228 205 200 205 c 0
EndSplineSet
Validated: 1
Layer: 3
SplineSet
185 205 m 0
 157 205 135 183 135 155 c 0
 135 127 157 105 185 105 c 0
 213 105 235 127 235 155 c 0
 235 183 213 205 185 205 c 0
550 600 m 1
 640 600 l 1
 640 390 l 1
 550 390 l 1
 529 449 444 515 320 515 c 0
 262 515 210 496 210 460 c 0
 210 425 243 419 370 385 c 0
 523 344 640 305 640 190 c 0
 640 67 521 -20 350 -20 c 0
 162 -20 60 73 60 155 c 0
 60 225 117 270 185 270 c 0
 253 270 310 225 310 155 c 0
 310 124 299 99 280 82 c 1
 296 78 319 75 350 75 c 0
 446 75 500 117 500 180 c 0
 500 226 459 243 340 275 c 0
 199 313 60 332 60 455 c 0
 60 545 172 620 320 620 c 0
 441 620 516 555 556 493 c 1
 553 505 550 517 550 530 c 2
 550 600 l 1
EndSplineSet
Colour: ffff00
EndChar

StartChar: uni0EB0
Encoding: 523 3760 27
Width: 600
VWidth: 0
Flags: HMW
LayerCount: 4
Layer: 2
SplineSet
170 540 m 0
 145 540 125 520 125 495 c 0
 125 470 145 450 170 450 c 0
 195 450 215 470 215 495 c 0
 215 520 195 540 170 540 c 0
170 590 m 0
 225 590 270 551 270 495 c 0
 270 477 263 462 253 450 c 1
 350 450 l 2
 404 450 430 473 430 550 c 1
 520 550 l 1
 520 420 452 380 350 380 c 2
 220 380 l 2
 112 380 70 435 70 495 c 0
 70 551 115 590 170 590 c 0
170 200 m 0
 145 200 125 180 125 155 c 0
 125 130 145 110 170 110 c 0
 195 110 215 130 215 155 c 0
 215 180 195 200 170 200 c 0
170 250 m 0
 225 250 270 211 270 155 c 0
 270 137 263 122 253 110 c 1
 350 110 l 2
 404 110 430 133 430 210 c 1
 520 210 l 1
 520 80 452 40 350 40 c 2
 220 40 l 2
 112 40 70 95 70 155 c 0
 70 211 115 250 170 250 c 0
EndSplineSet
Validated: 1
Layer: 3
SplineSet
150 200 m 0
 128 200 110 182 110 160 c 0
 110 138 128 120 150 120 c 0
 172 120 190 138 190 160 c 0
 190 182 172 200 150 200 c 0
150 260 m 0
 211 260 255 215 255 160 c 0
 255 149 253 138 250 128 c 1
 260 132 270 135 280 135 c 2
 350 135 l 2
 404 135 430 153 430 230 c 1
 550 230 l 1
 550 100 482 40 380 40 c 2
 190 40 l 2
 82 40 40 100 40 160 c 0
 40 215 89 260 150 260 c 0
150 540 m 0
 128 540 110 522 110 500 c 0
 110 478 128 460 150 460 c 0
 172 460 190 478 190 500 c 0
 190 522 172 540 150 540 c 0
150 600 m 0
 211 600 255 555 255 500 c 0
 255 489 253 478 250 468 c 1
 260 472 270 475 280 475 c 2
 350 475 l 2
 404 475 430 493 430 570 c 1
 550 570 l 1
 550 440 482 380 380 380 c 2
 190 380 l 2
 82 380 40 440 40 500 c 0
 40 555 89 600 150 600 c 0
EndSplineSet
Colour: ffff
EndChar

StartChar: uni0EB1
Encoding: 524 3761 28
Width: 0
VWidth: 0
Flags: HMW
LayerCount: 4
Layer: 2
SplineSet
-460 760 m 0
 -438 760 -420 778 -420 800 c 0
 -420 822 -438 840 -460 840 c 0
 -482 840 -500 822 -500 800 c 0
 -500 778 -482 760 -460 760 c 0
-382 765 m 1
 -290 765 l 2
 -226 765 -210 798 -210 860 c 1
 -130 860 l 1
 -130 745 -195 700 -280 700 c 2
 -410 700 l 2
 -506 700 -550 740 -550 800 c 0
 -550 850 -510 885 -460 885 c 0
 -410 885 -370 850 -370 800 c 0
 -370 787 -374 775 -382 765 c 1
EndSplineSet
Validated: 1
Layer: 3
SplineSet
-480 845 m 0
 -499 845 -514 829 -514 810 c 0
 -514 791 -499 775 -480 775 c 0
 -460 775 -444 791 -444 810 c 0
 -444 829 -460 845 -480 845 c 0
-480 900 m 0
 -424 900 -384 860 -384 810 c 0
 -384 797 -387 785 -392 775 c 1
 -386 778 -380 780 -374 780 c 2
 -290 780 l 2
 -226 780 -210 808 -210 870 c 1
 -100 870 l 1
 -100 755 -164 700 -250 700 c 2
 -440 700 l 2
 -529 700 -580 750 -580 810 c 0
 -580 860 -535 900 -480 900 c 0
EndSplineSet
Colour: ffff
EndChar

StartChar: uni0EB2
Encoding: 525 3762 29
Width: 540
VWidth: 0
Flags: HMW
LayerCount: 4
Layer: 2
SplineSet
160 475 m 0
 132 475 110 453 110 425 c 0
 110 397 132 375 160 375 c 0
 188 375 210 397 210 425 c 0
 210 453 188 475 160 475 c 0
450 0 m 1
 360 0 l 1
 360 410 l 2
 360 503 315 540 245 540 c 0
 214 540 188 534 168 525 c 1
 225 521 270 483 270 425 c 0
 270 364 220 320 160 320 c 0
 100 320 50 364 50 425 c 0
 50 536 135 610 245 610 c 0
 355 610 450 552 450 410 c 2
 450 0 l 1
EndSplineSet
Validated: 1
Layer: 3
SplineSet
155 445 m 0
 127 445 105 423 105 395 c 0
 105 367 127 345 155 345 c 0
 183 345 205 367 205 395 c 0
 205 423 183 445 155 445 c 0
320 0 m 9
 320 410 l 2
 320 495 272 520 215 520 c 0
 190 520 169 512 153 500 c 1
 218 497 280 462 280 395 c 0
 280 325 223 280 155 280 c 0
 87 280 30 325 30 395 c 0
 30 517 120 610 250 610 c 0
 365 610 470 534 470 400 c 2
 470 0 l 17
 320 0 l 9
EndSplineSet
Colour: ffff00
EndChar

StartChar: uni0EBD
Encoding: 535 3773 30
Width: 630
VWidth: 0
Flags: HMW
LayerCount: 4
Layer: 2
SplineSet
460 600 m 1
 520 600 l 1
 520 390 l 1
 470 390 l 1
 456 437 368 550 240 550 c 0
 168 550 130 521 130 480 c 0
 130 439 142 409 289 365 c 0
 448 317 520 273 520 160 c 2
 520 -60 l 2
 520 -206 389 -260 280 -260 c 0
 178 -260 40 -214 40 -85 c 0
 40 -24 90 20 150 20 c 0
 210 20 260 -24 260 -85 c 0
 260 -134 228 -168 185 -180 c 1
 208 -186 239 -190 280 -190 c 0
 369 -190 430 -137 430 -60 c 2
 430 160 l 2
 430 223 383 265 270 295 c 0
 145 329 50 375 50 480 c 0
 50 546 111 620 240 620 c 0
 344 620 426 549 467 491 c 1
 463 505 460 521 460 540 c 2
 460 600 l 1
150 -35 m 0
 122 -35 100 -57 100 -85 c 0
 100 -113 122 -135 150 -135 c 0
 178 -135 200 -113 200 -85 c 0
 200 -57 178 -35 150 -35 c 0
EndSplineSet
Validated: 1
Layer: 3
SplineSet
470 600 m 1
 560 600 l 1
 560 390 l 1
 470 390 l 1
 456 437 369 530 260 530 c 0
 192 530 150 498 150 460 c 0
 150 418 217 399 330 365 c 0
 504 313 560 276 560 150 c 2
 560 -50 l 2
 560 -173 461 -260 290 -260 c 0
 119 -260 20 -181 20 -85 c 0
 20 -15 77 30 145 30 c 0
 213 30 270 -15 270 -85 c 0
 270 -118 257 -144 236 -161 c 1
 250 -164 268 -165 290 -165 c 0
 376 -165 410 -122 410 -50 c 2
 410 150 l 2
 410 211 401 237 260 275 c 0
 157 303 30 349 30 450 c 0
 30 540 118 620 260 620 c 0
 368 620 441 552 479 495 c 1
 474 508 470 524 470 540 c 2
 470 600 l 1
145 -35 m 0
 117 -35 95 -57 95 -85 c 0
 95 -113 117 -135 145 -135 c 0
 173 -135 195 -113 195 -85 c 0
 195 -57 173 -35 145 -35 c 0
EndSplineSet
Colour: ffff00
EndChar

StartChar: uni0EC0
Encoding: 536 3776 31
Width: 350
VWidth: 0
Flags: HMW
LayerCount: 4
Layer: 2
SplineSet
265 595 m 1
 250 540 l 1
 242 543 234 550 210 550 c 0
 186 550 180 531 180 503 c 2
 180 198 l 1
 186 199 193 200 200 200 c 0
 260 200 310 156 310 95 c 0
 310 34 260 -10 200 -10 c 0
 140 -10 90 34 90 95 c 2
 90 503 l 2
 90 570 120 610 190 610 c 0
 229 610 250 600 265 595 c 1
200 145 m 0
 172 145 150 123 150 95 c 0
 150 67 172 45 200 45 c 0
 228 45 250 67 250 95 c 0
 250 123 228 145 200 145 c 0
EndSplineSet
Validated: 1
Layer: 3
SplineSet
195 155 m 0
 167 155 145 133 145 105 c 0
 145 77 167 55 195 55 c 0
 223 55 245 77 245 105 c 0
 245 133 223 155 195 155 c 0
320 585 m 1
 295 515 l 1
 295 515 274 524 253 524 c 0
 236 524 220 517 220 480 c 2
 220 240 l 2
 220 228 218 220 215 214 c 1
 274 207 320 168 320 105 c 0
 320 35 263 -10 195 -10 c 0
 127 -10 70 35 70 105 c 2
 70 480 l 2
 70 558 117 610 205 610 c 0
 262 610 298 596 320 585 c 1
EndSplineSet
Colour: ffff00
EndChar

StartChar: uni0EC2
Encoding: 538 3778 33
Width: 420
VWidth: 0
Flags: HMW
LayerCount: 4
Layer: 2
SplineSet
310 960 m 1
 360 960 l 1
 360 780 l 1
 320 780 l 1
 315 798 234 930 120 930 c 0
 73 930 50 909 50 880 c 0
 50 840 92 832 155 795 c 0
 232 750 250 702 250 590 c 2
 250 198 l 1
 256 199 263 200 270 200 c 0
 330 200 380 156 380 95 c 0
 380 34 330 -10 270 -10 c 0
 210 -10 160 34 160 95 c 2
 160 590 l 2
 160 677 157 711 90 750 c 0
 43 777 -20 799 -20 880 c 0
 -20 934 27 990 120 990 c 0
 215 990 280 915 314 865 c 1
 312 872 310 881 310 890 c 2
 310 960 l 1
270 145 m 0
 242 145 220 123 220 95 c 0
 220 67 242 45 270 45 c 0
 298 45 320 67 320 95 c 0
 320 123 298 145 270 145 c 0
EndSplineSet
Validated: 1
Layer: 3
SplineSet
265 155 m 0
 237 155 215 133 215 105 c 0
 215 77 237 55 265 55 c 0
 293 55 315 77 315 105 c 0
 315 133 293 155 265 155 c 0
320 990 m 1
 400 990 l 1
 400 780 l 1
 330 780 l 1
 330 780 255 900 150 900 c 0
 108 900 80 876 80 850 c 0
 80 803 133 789 200 755 c 0
 284 712 290 666 290 590 c 2
 290 240 l 2
 290 228 288 220 285 214 c 1
 344 207 390 168 390 105 c 0
 390 35 333 -10 265 -10 c 0
 197 -10 140 35 140 105 c 2
 140 590 l 2
 140 597 140 604 140 610 c 0
 140 651 136 678 70 710 c 0
 16 736 -40 777 -40 850 c 0
 -40 918 21 990 140 990 c 0
 222 990 286 940 325 893 c 1
 322 904 320 916 320 930 c 2
 320 990 l 1
EndSplineSet
Colour: ffff00
EndChar

StartChar: uni0EC3
Encoding: 539 3779 34
Width: 420
VWidth: 0
Flags: HMW
LayerCount: 4
Layer: 2
SplineSet
270 145 m 0
 242 145 220 123 220 95 c 0
 220 67 242 45 270 45 c 0
 298 45 320 67 320 95 c 0
 320 123 298 145 270 145 c 0
130 790 m 1
 60 760 l 1
 41 783 30 808 30 840 c 0
 30 917 98 990 220 990 c 0
 342 990 410 917 410 840 c 0
 410 719 250 718 250 590 c 2
 250 198 l 1
 256 199 263 200 270 200 c 0
 330 200 380 156 380 95 c 0
 380 34 330 -10 270 -10 c 0
 210 -10 160 34 160 95 c 2
 160 590 l 2
 160 747 340 755 340 840 c 0
 340 885 303 930 220 930 c 0
 144 930 110 885 110 840 c 0
 110 819 122 800 130 790 c 1
EndSplineSet
Validated: 1
Layer: 3
SplineSet
265 155 m 0
 237 155 215 133 215 105 c 0
 215 77 237 55 265 55 c 0
 293 55 315 77 315 105 c 0
 315 133 293 155 265 155 c 0
145 770 m 1
 40 730 l 1
 21 753 0 778 0 825 c 0
 0 902 82 990 230 990 c 0
 378 990 460 902 460 825 c 0
 460 704 290 697 290 590 c 2
 290 240 l 2
 290 228 288 220 285 214 c 1
 344 207 390 168 390 105 c 0
 390 35 333 -10 265 -10 c 0
 197 -10 140 35 140 105 c 2
 140 590 l 2
 140 730 340 740 340 825 c 0
 340 870 294 900 230 900 c 0
 166 900 120 870 120 825 c 0
 120 802 135 780 145 770 c 1
EndSplineSet
Colour: ffff00
EndChar

StartChar: uni0EC4
Encoding: 540 3780 35
Width: 420
VWidth: 0
Flags: HMW
LayerCount: 4
Layer: 2
SplineSet
20 975 m 1
 31 981 61 990 90 990 c 0
 158 990 180 942 180 890 c 2
 180 820 l 2
 180 777 193 755 240 755 c 2
 380 755 l 1
 380 690 l 1
 268 690 250 644 250 580 c 2
 250 198 l 1
 256 199 263 200 270 200 c 0
 330 200 380 156 380 95 c 0
 380 34 330 -10 270 -10 c 0
 210 -10 160 34 160 95 c 2
 160 580 l 2
 160 632 183 668 217 691 c 1
 144 699 110 743 110 800 c 2
 110 870 l 2
 110 914 107 930 80 930 c 0
 62 930 44 924 35 920 c 1
 20 975 l 1
270 145 m 0
 242 145 220 123 220 95 c 0
 220 67 242 45 270 45 c 0
 298 45 320 67 320 95 c 0
 320 123 298 145 270 145 c 0
EndSplineSet
Validated: 1
Layer: 3
SplineSet
0 975 m 1
 18 985 44 990 65 990 c 0
 141 990 200 940 200 860 c 2
 200 810 l 2
 200 768 223 750 270 750 c 2
 420 750 l 1
 420 660 l 1
 300 660 290 612 290 560 c 2
 290 240 l 2
 290 228 288 220 285 214 c 1
 344 207 390 168 390 105 c 0
 390 35 333 -10 265 -10 c 0
 197 -10 140 35 140 105 c 2
 140 560 l 2
 140 605 164 639 200 664 c 1
 137 676 100 718 100 770 c 2
 100 840 l 2
 100 872 97 910 60 910 c 0
 46 910 35 906 20 900 c 1
 0 975 l 1
265 155 m 0
 237 155 215 133 215 105 c 0
 215 77 237 55 265 55 c 0
 293 55 315 77 315 105 c 0
 315 133 293 155 265 155 c 0
EndSplineSet
Colour: ffff00
EndChar

StartChar: uni0EDC
Encoding: 558 3804 36
Width: 1160
VWidth: 0
Flags: HMW
LayerCount: 4
Layer: 2
SplineSet
415 560 m 0
 387 560 365 538 365 510 c 0
 365 482 387 460 415 460 c 0
 443 460 465 482 465 510 c 0
 465 538 443 560 415 560 c 0
160 555 m 0
 132 555 110 533 110 505 c 0
 110 477 132 455 160 455 c 0
 188 455 210 477 210 505 c 0
 210 533 188 555 160 555 c 0
743 66 m 1
 729 25 696 -10 640 -10 c 0
 598 -10 568 6 550 15 c 1
 575 70 l 1
 585 65 606 55 625 55 c 0
 652 55 660 83 660 120 c 2
 660 460 l 2
 660 501 640 525 610 525 c 0
 562 525 526 436 470 418 c 1
 470 130 l 2
 470 41 395 -10 290 -10 c 0
 185 -10 110 40 110 130 c 2
 110 300 l 2
 110 353 147 379 177 406 c 1
 171 405 166 405 160 405 c 0
 100 405 50 444 50 505 c 0
 50 566 100 610 160 610 c 0
 231 610 280 560 280 500 c 0
 280 403 200 380 200 300 c 2
 200 130 l 2
 200 85 248 65 290 65 c 0
 332 65 380 85 380 130 c 2
 380 416 l 1
 343 430 310 463 310 510 c 0
 310 571 363 610 415 610 c 0
 466 610 519 571 520 511 c 1
 550 552 583 600 640 600 c 0
 691 600 750 561 750 480 c 2
 750 130 l 1
 774 94 809 65 865 65 c 0
 950 65 970 107 970 170 c 2
 970 600 l 1
 1060 600 l 1
 1060 170 l 2
 1060 57 1002 -10 895 -10 c 0
 824 -10 776 22 743 66 c 1
EndSplineSet
Validated: 1
Layer: 3
SplineSet
425 550 m 0
 397 550 375 528 375 500 c 0
 375 472 397 450 425 450 c 0
 453 450 475 472 475 500 c 0
 475 528 453 550 425 550 c 0
155 445 m 0
 183 445 205 467 205 495 c 0
 205 523 183 545 155 545 c 0
 127 545 105 523 105 495 c 0
 105 467 127 445 155 445 c 0
155 385 m 0
 87 385 30 425 30 495 c 0
 30 565 87 610 155 610 c 0
 235 610 300 554 300 480 c 0
 300 383 240 364 240 270 c 2
 240 150 l 2
 240 114 273 100 300 100 c 0
 327 100 360 114 360 150 c 2
 360 370 l 2
 360 384 363 396 366 405 c 1
 334 423 310 455 310 500 c 0
 310 570 368 610 425 610 c 0
 479 610 534 574 540 510 c 1
 579 549 628 600 690 600 c 0
 761 600 790 551 790 470 c 2
 790 134 l 1
 811 114 837 100 870 100 c 0
 921 100 950 128 950 200 c 2
 950 600 l 1
 1100 600 l 1
 1100 200 l 2
 1100 56 1035 -10 930 -10 c 0
 858 -10 809 19 776 55 c 1
 757 15 716 -10 655 -10 c 0
 598 -10 562 4 540 15 c 1
 565 85 l 1
 565 85 586 76 607 76 c 0
 624 76 640 83 640 120 c 2
 640 420 l 2
 640 461 633 480 610 480 c 0
 579 480 524 419 490 407 c 1
 490 150 l 2
 490 52 405 -10 295 -10 c 0
 185 -10 90 52 90 150 c 2
 90 270 l 2
 90 325 126 356 160 385 c 1
 159 385 157 385 155 385 c 0
EndSplineSet
LCarets2: 1 0
Colour: ffff00
EndChar

StartChar: uni0EDD
Encoding: 559 3805 37
Width: 1160
VWidth: 0
Flags: HMW
LayerCount: 4
Layer: 2
SplineSet
640 45 m 0
 668 45 690 67 690 95 c 0
 690 123 668 145 640 145 c 0
 612 145 590 123 590 95 c 0
 590 67 612 45 640 45 c 0
640 -10 m 0
 580 -10 530 34 530 95 c 0
 530 156 580 200 640 200 c 0
 647 200 654 199 660 198 c 1
 660 460 l 2
 660 501 640 525 610 525 c 0
 562 525 526 436 470 418 c 1
 470 130 l 2
 470 41 395 -10 290 -10 c 0
 185 -10 110 40 110 130 c 2
 110 300 l 2
 110 353 147 379 177 406 c 1
 171 405 166 405 160 405 c 0
 100 405 50 444 50 505 c 0
 50 566 100 610 160 610 c 0
 231 610 280 560 280 500 c 0
 280 403 200 380 200 300 c 2
 200 130 l 2
 200 85 248 65 290 65 c 0
 332 65 380 85 380 130 c 2
 380 416 l 1
 343 430 310 463 310 510 c 0
 310 571 363 610 415 610 c 0
 466 610 519 571 520 511 c 1
 550 552 583 600 640 600 c 0
 691 600 750 561 750 480 c 2
 750 129 l 1
 775 94 811 65 870 65 c 0
 947 65 970 111 970 180 c 2
 970 600 l 1
 1060 600 l 1
 1060 180 l 2
 1060 55 987 -10 890 -10 c 0
 824 -10 775 25 744 61 c 1
 730 18 688 -10 640 -10 c 0
415 560 m 0
 387 560 365 538 365 510 c 0
 365 482 387 460 415 460 c 0
 443 460 465 482 465 510 c 0
 465 538 443 560 415 560 c 0
160 555 m 0
 132 555 110 533 110 505 c 0
 110 477 132 455 160 455 c 0
 188 455 210 477 210 505 c 0
 210 533 188 555 160 555 c 0
EndSplineSet
Validated: 1
Layer: 3
SplineSet
425 550 m 0
 397 550 375 528 375 500 c 0
 375 472 397 450 425 450 c 0
 453 450 475 472 475 500 c 0
 475 528 453 550 425 550 c 0
155 445 m 0
 183 445 205 467 205 495 c 0
 205 523 183 545 155 545 c 0
 127 545 105 523 105 495 c 0
 105 467 127 445 155 445 c 0
155 385 m 0
 87 385 30 425 30 495 c 0
 30 565 87 610 155 610 c 0
 235 610 300 554 300 480 c 0
 300 383 240 364 240 270 c 2
 240 150 l 2
 240 114 273 100 300 100 c 0
 327 100 360 114 360 150 c 2
 360 370 l 2
 360 384 363 396 366 405 c 1
 334 423 310 455 310 500 c 0
 310 570 368 610 425 610 c 0
 479 610 534 574 540 510 c 1
 579 549 628 600 690 600 c 0
 761 600 790 551 790 470 c 2
 790 300 l 1
 790 134 l 1
 811 114 837 100 870 100 c 0
 921 100 950 128 950 200 c 2
 950 600 l 1
 1100 600 l 1
 1100 200 l 2
 1100 56 1035 -10 930 -10 c 0
 859 -10 811 18 778 54 c 1
 758 14 715 -10 665 -10 c 0
 597 -10 540 35 540 105 c 0
 540 167 585 210 643 218 c 1
 641 224 640 231 640 240 c 2
 640 300 l 1
 640 420 l 2
 640 461 633 480 610 480 c 0
 579 480 524 419 490 407 c 1
 490 150 l 2
 490 52 405 -10 295 -10 c 0
 185 -10 90 52 90 150 c 2
 90 270 l 2
 90 325 126 356 160 385 c 1
 159 385 157 385 155 385 c 0
665 155 m 0
 637 155 615 133 615 105 c 0
 615 77 637 55 665 55 c 0
 693 55 715 77 715 105 c 0
 715 133 693 155 665 155 c 0
EndSplineSet
LCarets2: 1 0
Colour: ffff00
EndChar

StartChar: uni0EBB
Encoding: 533 3771 38
Width: 0
VWidth: 0
Flags: HMW
LayerCount: 4
Layer: 2
SplineSet
-460 810 m 0
 -482 810 -500 792 -500 770 c 0
 -500 748 -482 730 -460 730 c 0
 -438 730 -420 748 -420 770 c 0
 -420 792 -438 810 -460 810 c 0
-382 805 m 1
 -374 795 -370 783 -370 770 c 0
 -370 720 -410 685 -460 685 c 0
 -510 685 -550 720 -550 770 c 0
 -550 830 -506 870 -410 870 c 2
 -280 870 l 2
 -195 870 -130 825 -130 710 c 1
 -210 710 l 1
 -210 772 -226 805 -290 805 c 2
 -382 805 l 1
EndSplineSet
Validated: 1
Layer: 3
SplineSet
-480 735 m 0
 -460 735 -444 751 -444 770 c 0
 -444 789 -460 805 -480 805 c 0
 -499 805 -514 789 -514 770 c 0
 -514 751 -499 735 -480 735 c 0
-480 680 m 0
 -535 680 -580 720 -580 770 c 0
 -580 830 -529 880 -440 880 c 2
 -250 880 l 2
 -164 880 -100 825 -100 710 c 1
 -210 710 l 1
 -210 772 -226 800 -290 800 c 2
 -374 800 l 2
 -380 800 -386 802 -392 805 c 1
 -387 795 -384 783 -384 770 c 0
 -384 720 -424 680 -480 680 c 0
EndSplineSet
Colour: ffff
EndChar

StartChar: uni0EB4
Encoding: 527 3764 40
Width: 0
VWidth: 0
Flags: HMW
LayerCount: 4
Layer: 2
SplineSet
-420 900 m 2
 -340 900 l 1
 -260 900 l 2
 -180 900 -130 854 -130 780 c 0
 -130 751 -153 701 -180 690 c 1
 -260 690 l 1
 -238 708 -210 748 -210 780 c 0
 -210 814 -220 840 -280 840 c 2
 -340 840 l 1
 -400 840 l 2
 -460 840 -470 814 -470 780 c 0
 -470 748 -442 708 -420 690 c 1
 -500 690 l 1
 -527 701 -550 751 -550 780 c 0
 -550 854 -500 900 -420 900 c 2
EndSplineSet
Validated: 1
Layer: 3
SplineSet
-450 915 m 2
 -340 915 l 1
 -230 915 l 2
 -150 915 -100 864 -100 790 c 0
 -100 751 -133 701 -160 690 c 1
 -260 690 l 1
 -238 708 -210 748 -210 780 c 0
 -210 814 -220 840 -280 840 c 2
 -340 840 l 1
 -400 840 l 2
 -460 840 -470 814 -470 780 c 0
 -470 748 -442 708 -420 690 c 1
 -520 690 l 1
 -547 701 -580 751 -580 790 c 0
 -580 864 -530 915 -450 915 c 2
EndSplineSet
EndChar

StartChar: uni0EB5
Encoding: 528 3765 41
Width: 0
VWidth: 0
Flags: HMW
LayerCount: 4
Layer: 2
SplineSet
-450 900 m 2
 -380 900 l 1
 -310 900 l 2
 -230 900 -190 854 -190 780 c 0
 -190 768 -195 756 -202 745 c 1
 -40 745 l 1
 -40 690 l 1
 -350 690 l 1
 -350 745 l 1
 -266 745 l 1
 -259 756 -255 768 -255 780 c 0
 -255 814 -270 840 -330 840 c 2
 -380 840 l 1
 -430 840 l 2
 -490 840 -500 814 -500 780 c 0
 -500 748 -472 708 -450 690 c 1
 -530 690 l 1
 -557 701 -580 751 -580 780 c 0
 -580 854 -530 900 -450 900 c 2
EndSplineSet
Validated: 1
Layer: 3
SplineSet
-10 690 m 1
 -320 690 l 1
 -320 760 l 1
 -243 760 l 1
 -241 767 -240 773 -240 780 c 0
 -240 814 -250 840 -310 840 c 2
 -370 840 l 1
 -430 840 l 2
 -490 840 -500 814 -500 780 c 0
 -500 748 -472 708 -450 690 c 1
 -550 690 l 1
 -577 701 -610 751 -610 790 c 0
 -610 864 -560 915 -480 915 c 2
 -370 915 l 1
 -290 915 l 2
 -210 915 -160 854 -160 780 c 0
 -160 774 -161 767 -163 760 c 1
 -10 760 l 1
 -10 690 l 1
EndSplineSet
EndChar

StartChar: uni0EB6
Encoding: 529 3766 42
Width: 0
VWidth: 0
Flags: HMW
LayerCount: 4
Layer: 2
SplineSet
-420 900 m 2
 -340 900 l 1
 -260 900 l 2
 -180 900 -130 854 -130 780 c 0
 -130 751 -153 701 -180 690 c 1
 -250 690 l 1
 -228 708 -200 748 -200 780 c 0
 -200 814 -210 840 -270 840 c 2
 -340 840 l 1
 -410 840 l 2
 -470 840 -480 814 -480 780 c 0
 -480 748 -452 708 -430 690 c 1
 -500 690 l 1
 -527 701 -550 751 -550 780 c 0
 -550 854 -500 900 -420 900 c 2
-290 740 m 0
 -290 712 -312 690 -340 690 c 0
 -368 690 -390 712 -390 740 c 0
 -390 768 -368 790 -340 790 c 0
 -312 790 -290 768 -290 740 c 0
EndSplineSet
Validated: 1
Layer: 3
SplineSet
-280 740 m 0
 -280 706 -306 680 -340 680 c 0
 -374 680 -400 706 -400 740 c 0
 -400 774 -374 800 -340 800 c 0
 -306 800 -280 774 -280 740 c 0
-450 915 m 2
 -340 915 l 1
 -230 915 l 2
 -150 915 -100 864 -100 790 c 0
 -100 751 -133 701 -160 690 c 1
 -260 690 l 1
 -238 708 -210 748 -210 780 c 0
 -210 814 -220 840 -280 840 c 2
 -340 840 l 1
 -400 840 l 2
 -460 840 -470 814 -470 780 c 0
 -470 748 -442 708 -420 690 c 1
 -520 690 l 1
 -547 701 -580 751 -580 790 c 0
 -580 864 -530 915 -450 915 c 2
EndSplineSet
EndChar

StartChar: uni0EB7
Encoding: 530 3767 43
Width: 0
VWidth: 0
Flags: HMW
LayerCount: 4
Layer: 2
SplineSet
-450 900 m 2
 -380 900 l 1
 -310 900 l 2
 -230 900 -190 854 -190 780 c 0
 -190 768 -195 756 -202 745 c 1
 -40 745 l 1
 -40 690 l 1
 -300 690 l 1
 -278 708 -245 748 -245 780 c 0
 -245 814 -260 840 -320 840 c 2
 -380 840 l 1
 -440 840 l 2
 -500 840 -510 814 -510 780 c 0
 -510 748 -482 708 -460 690 c 1
 -530 690 l 1
 -557 701 -580 751 -580 780 c 0
 -580 854 -530 900 -450 900 c 2
-330 740 m 0
 -330 712 -352 690 -380 690 c 0
 -408 690 -430 712 -430 740 c 0
 -430 768 -408 790 -380 790 c 0
 -352 790 -330 768 -330 740 c 0
EndSplineSet
Validated: 1
Layer: 3
SplineSet
-310 740 m 0
 -310 706 -336 680 -370 680 c 0
 -404 680 -430 706 -430 740 c 0
 -430 774 -404 800 -370 800 c 0
 -336 800 -310 774 -310 740 c 0
-370 840 m 1
 -430 840 l 2
 -490 840 -500 814 -500 780 c 0
 -500 748 -472 708 -450 690 c 1
 -550 690 l 1
 -577 701 -610 751 -610 790 c 0
 -610 864 -560 915 -480 915 c 2
 -370 915 l 1
 -290 915 l 2
 -210 915 -160 854 -160 780 c 0
 -160 774 -161 767 -163 760 c 1
 -10 760 l 1
 -10 690 l 1
 -290 690 l 1
 -268 708 -240 748 -240 780 c 0
 -240 814 -250 840 -310 840 c 2
 -370 840 l 1
EndSplineSet
EndChar

StartChar: uni0EC8
Encoding: 542 3784 44
Width: 0
VWidth: 0
Flags: HMW
LayerCount: 4
Layer: 2
SplineSet
-370 1150 m 1
 -290 1150 l 1
 -290 970 l 1
 -370 970 l 1
 -370 1150 l 1
EndSplineSet
Validated: 1
Layer: 3
SplineSet
-385 1180 m 5
 -275 1180 l 5
 -275 960 l 5
 -385 960 l 5
 -385 1180 l 5
EndSplineSet
EndChar

StartChar: uni0ECB
Encoding: 545 3787 45
Width: 0
VWidth: 0
Flags: HMW
LayerCount: 4
Layer: 2
SplineSet
-370 1150 m 1
 -290 1150 l 1
 -290 1090 l 1
 -200 1090 l 1
 -200 1030 l 1
 -290 1030 l 1
 -290 970 l 1
 -370 970 l 1
 -370 1030 l 1
 -460 1030 l 1
 -460 1090 l 1
 -370 1090 l 1
 -370 1150 l 1
EndSplineSet
Validated: 1
Layer: 3
SplineSet
-376 1180 m 5
 -276 1180 l 5
 -276 1105 l 5
 -170 1105 l 5
 -170 1035 l 5
 -276 1035 l 5
 -276 960 l 5
 -376 960 l 5
 -376 1035 l 5
 -480 1035 l 5
 -480 1105 l 5
 -376 1105 l 5
 -376 1180 l 5
EndSplineSet
EndChar

StartChar: uni0EC9
Encoding: 543 3785 46
Width: 0
VWidth: 0
Flags: HMW
LayerCount: 4
Layer: 2
SplineSet
-410 1135 m 0
 -427 1135 -440 1122 -440 1105 c 0
 -440 1088 -427 1075 -410 1075 c 0
 -393 1075 -380 1088 -380 1105 c 0
 -380 1122 -393 1135 -410 1135 c 0
-490 970 m 1
 -490 1015 l 1
 -480 1015 l 2
 -458 1015 -431 1025 -416 1040 c 1
 -452 1043 -480 1068 -480 1105 c 0
 -480 1144 -449 1170 -410 1170 c 0
 -371 1170 -340 1144 -340 1105 c 0
 -340 1071 -354 1044 -369 1025 c 1
 -290 1025 l 2
 -236 1025 -205 1055 -205 1130 c 1
 -130 1130 l 1
 -130 1015 -197 970 -290 970 c 2
 -490 970 l 1
EndSplineSet
Validated: 1
Layer: 3
SplineSet
-420 1135 m 4
 -437 1135 -450 1122 -450 1105 c 4
 -450 1088 -437 1075 -420 1075 c 4
 -403 1075 -390 1088 -390 1105 c 4
 -390 1122 -403 1135 -420 1135 c 4
-510 960 m 5
 -510 1015 l 5
 -470 1015 l 6
 -452 1015 -434 1023 -422 1035 c 5
 -465 1036 -500 1064 -500 1105 c 4
 -500 1146 -464 1180 -420 1180 c 4
 -376 1180 -340 1146 -340 1105 c 4
 -340 1069 -356 1042 -371 1025 c 5
 -300 1025 l 6
 -246 1025 -215 1065 -215 1140 c 5
 -110 1140 l 5
 -110 1025 -177 960 -270 960 c 6
 -510 960 l 5
EndSplineSet
EndChar

StartChar: uni0ECD
Encoding: 547 3789 47
Width: 0
VWidth: 0
Flags: HMW
LayerCount: 4
Layer: 2
SplineSet
-330 900 m 0
 -260 900 -210 851 -210 790 c 0
 -210 729 -260 680 -330 680 c 0
 -400 680 -450 729 -450 790 c 0
 -450 851 -400 900 -330 900 c 0
-330 845 m 0
 -360 845 -385 820 -385 790 c 0
 -385 760 -360 735 -330 735 c 0
 -300 735 -275 760 -275 790 c 0
 -275 820 -300 845 -330 845 c 0
EndSplineSet
Validated: 1
Layer: 3
SplineSet
-335 910 m 4
 -256 910 -200 857 -200 790 c 4
 -200 723 -256 670 -335 670 c 4
 -414 670 -470 723 -470 790 c 4
 -470 857 -414 910 -335 910 c 4
-335 840 m 4
 -363 840 -385 818 -385 790 c 4
 -385 762 -363 740 -335 740 c 4
 -307 740 -285 762 -285 790 c 4
 -285 818 -307 840 -335 840 c 4
EndSplineSet
EndChar

StartChar: uni0ECA
Encoding: 544 3786 49
Width: 0
VWidth: 0
Flags: HMW
LayerCount: 4
Layer: 2
SplineSet
-415 1000 m 0
 -401 1000 -390 1011 -390 1025 c 0
 -390 1039 -401 1050 -415 1050 c 0
 -429 1050 -440 1039 -440 1025 c 0
 -440 1011 -429 1000 -415 1000 c 0
-415 1170 m 1
 -350 1125 l 1
 -285 1170 l 1
 -268 1170 -195 1142 -195 1060 c 0
 -195 1049 -198 1039 -202 1030 c 1
 -169 1040 -165 1064 -165 1100 c 1
 -100 1100 l 1
 -100 1024 -120 980 -260 980 c 2
 -300 980 l 1
 -278 998 -255 1028 -255 1060 c 0
 -255 1091 -271 1114 -285 1120 c 1
 -350 1080 l 1
 -415 1120 l 1
 -429 1115 -448 1099 -450 1066 c 1
 -441 1074 -429 1080 -415 1080 c 0
 -382 1080 -355 1058 -355 1025 c 0
 -355 992 -382 970 -415 970 c 0
 -479 970 -510 1022 -510 1060 c 0
 -510 1142 -433 1170 -415 1170 c 1
EndSplineSet
Validated: 1
Layer: 3
SplineSet
-435 1046 m 4
 -449 1046 -460 1034 -460 1020 c 4
 -460 1007 -449 996 -435 996 c 4
 -421 996 -410 1007 -410 1020 c 4
 -410 1034 -421 1046 -435 1046 c 4
-435 1080 m 4
 -399 1080 -370 1054 -370 1020 c 4
 -370 987 -399 960 -435 960 c 4
 -495 960 -530 1010 -530 1060 c 4
 -530 1143 -443 1176 -425 1176 c 5
 -360 1130 l 5
 -295 1176 l 5
 -278 1176 -195 1143 -195 1060 c 4
 -195 1055 -196 1049 -197 1043 c 5
 -175 1056 -170 1080 -170 1110 c 5
 -80 1110 l 5
 -80 1034 -120 970 -260 970 c 6
 -300 970 l 5
 -282 990 -265 1024 -265 1056 c 4
 -265 1085 -276 1105 -290 1116 c 5
 -360 1070 l 5
 -430 1116 l 5
 -441 1109 -453 1095 -458 1076 c 5
 -451 1079 -444 1080 -435 1080 c 4
EndSplineSet
EndChar

StartChar: uni0EAF
Encoding: 522 3759 50
Width: 590
VWidth: 0
Flags: HMW
LayerCount: 4
Layer: 2
SplineSet
140 555 m 0
 112 555 90 533 90 505 c 0
 90 477 112 455 140 455 c 0
 168 455 190 477 190 505 c 0
 190 533 168 555 140 555 c 0
140 400 m 0
 80 400 30 444 30 505 c 0
 30 566 80 610 140 610 c 0
 198 610 247 569 250 511 c 1
 290 554 332 600 390 600 c 0
 444 600 500 559 500 480 c 2
 500 110 l 2
 500 38 466 -10 390 -10 c 0
 348 -10 318 6 300 15 c 1
 325 70 l 1
 335 65 356 55 375 55 c 0
 402 55 410 83 410 120 c 2
 410 460 l 2
 410 501 396 525 360 525 c 0
 299 525 256 400 140 400 c 0
EndSplineSet
Validated: 1
Layer: 3
SplineSet
135 545 m 0
 107 545 85 523 85 495 c 0
 85 467 107 445 135 445 c 0
 163 445 185 467 185 495 c 0
 185 523 163 545 135 545 c 0
420 600 m 0
 491 600 520 551 520 470 c 2
 520 120 l 2
 520 42 473 -10 385 -10 c 0
 328 -10 292 4 270 15 c 1
 295 85 l 1
 295 85 316 76 337 76 c 0
 354 76 370 83 370 120 c 2
 370 420 l 2
 370 461 363 480 340 480 c 0
 306 480 245 380 135 380 c 0
 67 380 10 425 10 495 c 0
 10 565 67 610 135 610 c 0
 199 610 253 570 259 507 c 1
 304 548 360 600 420 600 c 0
EndSplineSet
Colour: ffff00
EndChar

StartChar: uni0ECC
Encoding: 546 3788 51
Width: 0
VWidth: 0
Flags: HMW
LayerCount: 4
Layer: 2
SplineSet
-350 825 m 0
 -372 825 -390 807 -390 785 c 0
 -390 763 -372 745 -350 745 c 0
 -328 745 -310 763 -310 785 c 0
 -310 807 -328 825 -350 825 c 0
-440 785 m 0
 -440 845 -392 885 -320 885 c 2
 -260 885 l 2
 -196 885 -180 918 -180 980 c 1
 -100 980 l 1
 -100 865 -165 820 -250 820 c 2
 -272 820 l 1
 -264 810 -260 798 -260 785 c 0
 -260 735 -300 700 -350 700 c 4
 -400 700 -440 735 -440 785 c 0
EndSplineSet
Validated: 1
Layer: 3
SplineSet
-370 756 m 4
 -351 756 -335 771 -335 790 c 4
 -335 810 -351 826 -370 826 c 4
 -389 826 -405 810 -405 790 c 4
 -405 771 -389 756 -370 756 c 4
-277 810 m 5
 -276 804 -275 798 -275 790 c 4
 -275 741 -315 700 -370 700 c 4
 -425 700 -470 741 -470 790 c 4
 -470 850 -422 890 -350 890 c 6
 -280 890 l 6
 -216 890 -200 928 -200 990 c 5
 -90 990 l 5
 -90 876 -143 810 -250 810 c 6
 -277 810 l 5
EndSplineSet
EndChar

StartChar: uni0EBC
Encoding: 534 3772 52
Width: 0
VWidth: 0
Flags: HMW
LayerCount: 4
Layer: 2
SplineSet
-460 -115 m 0
 -482 -115 -500 -133 -500 -155 c 0
 -500 -177 -482 -195 -460 -195 c 0
 -438 -195 -420 -177 -420 -155 c 0
 -420 -133 -438 -115 -460 -115 c 0
-450 -60 m 0
 -367 -60 -336 -170 -260 -170 c 0
 -206 -170 -190 -139 -190 -75 c 1
 -110 -75 l 1
 -110 -173 -157 -240 -260 -240 c 0
 -318 -240 -348 -209 -373 -176 c 1
 -382 -215 -418 -240 -460 -240 c 0
 -510 -240 -550 -205 -550 -155 c 0
 -550 -110 -520 -60 -450 -60 c 0
EndSplineSet
Validated: 1
Layer: 3
SplineSet
-470 -195 m 0
 -451 -195 -435 -179 -435 -160 c 0
 -435 -141 -451 -125 -470 -125 c 0
 -489 -125 -505 -141 -505 -160 c 0
 -505 -179 -489 -195 -470 -195 c 0
-460 -60 m 0
 -367 -60 -348 -165 -270 -165 c 0
 -226 -165 -200 -139 -200 -75 c 1
 -90 -75 l 1
 -90 -173 -158 -250 -270 -250 c 0
 -333 -250 -365 -225 -387 -197 c 1
 -400 -228 -429 -250 -470 -250 c 0
 -525 -250 -570 -210 -570 -160 c 0
 -570 -110 -535 -60 -460 -60 c 0
EndSplineSet
EndChar

StartChar: uni0EC6
Encoding: 541 3782 53
Width: 690
VWidth: 0
Flags: HMW
LayerCount: 4
Layer: 2
SplineSet
255 405 m 0
 227 405 205 383 205 355 c 0
 205 327 227 305 255 305 c 0
 283 305 305 327 305 355 c 0
 305 383 283 405 255 405 c 0
255 455 m 0
 315 455 365 416 365 355 c 0
 365 294 315 250 255 250 c 0
 147 250 90 333 90 420 c 0
 90 560 192 620 220 620 c 1
 330 540 l 1
 440 620 l 1
 468 620 570 561 570 420 c 2
 570 -70 l 2
 570 -206 459 -260 335 -260 c 0
 211 -260 100 -206 100 -70 c 1
 190 -70 l 1
 190 -135 241 -185 335 -185 c 0
 429 -185 480 -135 480 -70 c 2
 480 420 l 2
 480 474 461 518 435 535 c 1
 330 465 l 1
 220 541 l 1
 194 523 165 474 165 420 c 0
 165 411 166 403 167 396 c 1
 183 430 215 455 255 455 c 0
EndSplineSet
Validated: 1
Layer: 3
SplineSet
225 365 m 0
 197 365 175 343 175 315 c 0
 175 287 197 265 225 265 c 0
 253 265 275 287 275 315 c 0
 275 343 253 365 225 365 c 0
225 430 m 0
 293 430 350 385 350 315 c 0
 350 245 293 200 225 200 c 0
 138 200 60 276 60 390 c 0
 60 560 192 620 235 620 c 1
 330 540 l 1
 425 620 l 1
 468 620 600 560 600 390 c 2
 600 -50 l 2
 600 -165 522 -260 330 -260 c 0
 138 -260 70 -142 70 -60 c 1
 210 -60 l 1
 210 -120 261 -150 330 -150 c 0
 399 -150 450 -113 450 -50 c 2
 450 390 l 2
 450 444 446 484 420 510 c 1
 330 440 l 1
 230 510 l 1
 201 490 187 460 182 422 c 1
 195 427 209 430 225 430 c 0
EndSplineSet
Colour: ffff00
EndChar

StartChar: uni0EB8
Encoding: 531 3768 54
Width: 0
VWidth: 0
Flags: HMW
LayerCount: 4
Layer: 2
SplineSet
-330 -105 m 4
 -352 -105 -370 -123 -370 -145 c 4
 -370 -167 -352 -185 -330 -185 c 4
 -308 -185 -290 -167 -290 -145 c 4
 -290 -123 -308 -105 -330 -105 c 4
-335 -330 m 5
 -335 -270 l 6
 -335 -251 -328 -236 -319 -224 c 5
 -322 -225 -326 -225 -330 -225 c 4
 -380 -225 -420 -195 -420 -145 c 4
 -420 -95 -380 -60 -330 -60 c 4
 -272 -60 -240 -106 -240 -145 c 4
 -240 -195 -255 -222 -255 -270 c 6
 -255 -330 l 5
 -335 -330 l 5
EndSplineSet
Validated: 1
Layer: 3
SplineSet
-360 -330 m 5
 -360 -270 l 6
 -360 -254 -353 -241 -343 -229 c 5
 -386 -224 -420 -190 -420 -145 c 4
 -420 -95 -380 -60 -330 -60 c 4
 -274 -60 -230 -95 -230 -145 c 4
 -230 -195 -250 -222 -250 -270 c 6
 -250 -330 l 5
 -360 -330 l 5
-330 -110 m 4
 -349 -110 -365 -126 -365 -145 c 4
 -365 -164 -349 -180 -330 -180 c 4
 -311 -180 -295 -164 -295 -145 c 4
 -295 -126 -311 -110 -330 -110 c 4
EndSplineSet
EndChar

StartChar: uni0EB9
Encoding: 532 3769 55
Width: 0
VWidth: 0
Flags: HMW
LayerCount: 4
Layer: 2
SplineSet
-420 -105 m 4
 -442 -105 -460 -123 -460 -145 c 4
 -460 -167 -442 -185 -420 -185 c 4
 -398 -185 -380 -167 -380 -145 c 4
 -380 -123 -398 -105 -420 -105 c 4
-413 -224 m 5
 -415 -225 -418 -225 -420 -225 c 4
 -470 -225 -510 -195 -510 -145 c 4
 -510 -95 -470 -60 -420 -60 c 4
 -362 -60 -330 -106 -330 -145 c 4
 -330 -202 -355 -210 -355 -240 c 4
 -355 -260 -347 -270 -325 -270 c 6
 -270 -270 l 6
 -248 -270 -240 -257 -240 -240 c 6
 -240 -70 l 5
 -160 -70 l 5
 -160 -270 l 6
 -160 -313 -193 -330 -240 -330 c 6
 -355 -330 l 6
 -406 -330 -435 -312 -435 -270 c 4
 -435 -250 -425 -236 -413 -224 c 5
EndSplineSet
Validated: 1
Layer: 3
SplineSet
-430 -110 m 4
 -449 -110 -465 -126 -465 -145 c 4
 -465 -164 -449 -180 -430 -180 c 4
 -411 -180 -395 -164 -395 -145 c 4
 -395 -126 -411 -110 -430 -110 c 4
-454 -227 m 5
 -492 -218 -520 -187 -520 -145 c 4
 -520 -95 -480 -60 -430 -60 c 4
 -372 -60 -335 -101 -335 -140 c 4
 -335 -184 -360 -195 -360 -225 c 4
 -360 -245 -349 -255 -325 -255 c 6
 -290 -255 l 6
 -268 -255 -260 -242 -260 -225 c 6
 -260 -70 l 5
 -150 -70 l 5
 -150 -270 l 6
 -150 -316 -193 -330 -245 -330 c 6
 -395 -330 l 6
 -446 -330 -475 -312 -475 -270 c 4
 -475 -254 -466 -240 -454 -227 c 5
EndSplineSet
EndChar

StartChar: uni0E01
Encoding: 408 3585 56
Width: 700
VWidth: 0
Flags: HMW
LayerCount: 4
Layer: 2
SplineSet
140 -10 m 1
 140 55 l 1
 161 55 170 69 170 100 c 2
 170 402 l 1
 164 401 157 400 150 400 c 0
 90 400 40 444 40 505 c 0
 40 566 90 610 150 610 c 0
 199 610 241 581 255 537 c 1
 290 573 352 610 430 610 c 0
 536 610 610 545 610 420 c 2
 610 0 l 1
 520 0 l 1
 520 420 l 2
 520 489 501 535 410 535 c 0
 336 535 291 504 260 466 c 1
 260 100 l 2
 260 40 237 -10 140 -10 c 1
150 555 m 0
 122 555 100 533 100 505 c 0
 100 477 122 455 150 455 c 0
 178 455 200 477 200 505 c 0
 200 533 178 555 150 555 c 0
EndSplineSet
Validated: 1
Layer: 3
SplineSet
155 445 m 0
 183 445 205 467 205 495 c 0
 205 523 183 545 155 545 c 0
 127 545 105 523 105 495 c 0
 105 467 127 445 155 445 c 0
100 -10 m 1
 100 80 l 1
 126 80 130 92 130 140 c 2
 130 360 l 2
 130 369 131 376 133 382 c 1
 75 390 30 433 30 495 c 0
 30 565 87 610 155 610 c 0
 214 610 265 576 277 521 c 1
 315 567 373 610 460 610 c 0
 565 610 630 544 630 400 c 2
 630 0 l 1
 480 0 l 1
 480 400 l 2
 480 472 451 500 400 500 c 0
 350 500 310 468 280 430 c 1
 280 140 l 2
 280 35 244 -10 100 -10 c 1
EndSplineSet
Colour: ffff00
EndChar

StartChar: uni0E16
Encoding: 429 3606 57
Width: 700
VWidth: 0
Flags: HMW
LayerCount: 4
Layer: 2
SplineSet
150 555 m 0
 122 555 100 533 100 505 c 0
 100 477 122 455 150 455 c 0
 178 455 200 477 200 505 c 0
 200 533 178 555 150 555 c 0
250 145 m 0
 222 145 200 123 200 95 c 0
 200 67 222 45 250 45 c 0
 278 45 300 67 300 95 c 0
 300 123 278 145 250 145 c 0
250 200 m 0
 310 200 360 156 360 95 c 0
 360 34 310 -10 250 -10 c 0
 190 -10 140 34 140 95 c 2
 140 400 l 1
 85 405 40 447 40 505 c 0
 40 566 90 610 150 610 c 0
 200 610 243 580 256 534 c 1
 295 572 358 610 430 610 c 0
 536 610 610 545 610 420 c 2
 610 0 l 1
 520 0 l 1
 520 420 l 2
 520 489 501 535 410 535 c 0
 318 535 262 478 230 427 c 1
 230 198 l 1
 236 199 243 200 250 200 c 0
EndSplineSet
Validated: 1
Layer: 3
SplineSet
155 545 m 0
 127 545 105 523 105 495 c 0
 105 467 127 445 155 445 c 0
 183 445 205 467 205 495 c 0
 205 523 183 545 155 545 c 0
235 155 m 0
 207 155 185 133 185 105 c 0
 185 77 207 55 235 55 c 0
 263 55 285 77 285 105 c 0
 285 133 263 155 235 155 c 0
115 386 m 1
 66 400 30 440 30 495 c 0
 30 565 87 610 155 610 c 0
 214 610 265 576 277 521 c 1
 315 567 373 610 460 610 c 0
 565 610 630 544 630 400 c 2
 630 0 l 1
 480 0 l 1
 480 400 l 2
 480 472 451 500 400 500 c 0
 338 500 292 452 260 402 c 1
 260 300 l 1
 260 240 l 2
 260 231 259 224 257 218 c 1
 315 210 360 167 360 105 c 0
 360 35 303 -10 235 -10 c 0
 167 -10 110 35 110 105 c 2
 110 300 l 1
 110 360 l 2
 110 372 112 380 115 386 c 1
EndSplineSet
Colour: ffff00
EndChar

StartChar: uni0E19
Encoding: 432 3609 72
Width: 670
VWidth: 0
Flags: HMW
LayerCount: 4
Layer: 2
SplineSet
160 555 m 0
 132 555 110 533 110 505 c 0
 110 477 132 455 160 455 c 0
 188 455 210 477 210 505 c 0
 210 533 188 555 160 555 c 0
570 600 m 1
 570 190 l 1
 562 188 l 1
 596 171 620 137 620 95 c 0
 620 34 570 -10 510 -10 c 0
 462 -10 423 19 410 62 c 1
 384 25 347 -10 280 -10 c 0
 174 -10 110 55 110 180 c 2
 110 300 l 2
 110 353 147 379 177 406 c 1
 171 405 166 405 160 405 c 0
 100 405 50 444 50 505 c 0
 50 566 100 610 160 610 c 0
 231 610 280 560 280 500 c 0
 280 403 200 380 200 300 c 2
 200 180 l 2
 200 100 235 65 290 65 c 0
 381 65 399 167 480 192 c 1
 480 600 l 1
 570 600 l 1
510 45 m 0
 538 45 560 67 560 95 c 0
 560 123 538 145 510 145 c 0
 482 145 460 123 460 95 c 0
 460 67 482 45 510 45 c 0
EndSplineSet
Validated: 1
Layer: 3
SplineSet
515 155 m 0
 487 155 465 133 465 105 c 0
 465 77 487 55 515 55 c 0
 543 55 565 77 565 105 c 0
 565 133 543 155 515 155 c 0
155 445 m 0
 183 445 205 467 205 495 c 0
 205 523 183 545 155 545 c 0
 127 545 105 523 105 495 c 0
 105 467 127 445 155 445 c 0
155 385 m 0
 87 385 30 425 30 495 c 0
 30 565 87 610 155 610 c 0
 235 610 300 554 300 480 c 0
 300 383 240 364 240 270 c 2
 240 180 l 2
 240 122 268 100 300 100 c 0
 364 100 384 169 440 204 c 1
 440 600 l 1
 590 600 l 1
 590 210 l 1
 576 206 l 1
 614 188 640 152 640 105 c 0
 640 35 583 -10 515 -10 c 0
 464 -10 419 16 400 58 c 1
 375 22 336 -10 260 -10 c 0
 152 -10 90 55 90 180 c 2
 90 270 l 2
 90 325 126 356 160 385 c 1
 159 385 157 385 155 385 c 0
EndSplineSet
Colour: ffff00
EndChar

StartChar: uni0E45
Encoding: 472 3653 78
Width: 550
VWidth: 0
Flags: HMW
LayerCount: 4
Layer: 2
SplineSet
160 475 m 0
 132 475 110 453 110 425 c 0
 110 397 132 375 160 375 c 0
 188 375 210 397 210 425 c 0
 210 453 188 475 160 475 c 0
450 -240 m 1
 360 -240 l 1
 360 410 l 2
 360 503 315 540 245 540 c 0
 214 540 188 534 168 525 c 1
 225 521 270 483 270 425 c 0
 270 364 220 320 160 320 c 0
 100 320 50 364 50 425 c 0
 50 536 135 610 245 610 c 0
 355 610 450 552 450 410 c 2
 450 -240 l 1
EndSplineSet
Validated: 1
Layer: 3
SplineSet
155 445 m 0
 127 445 105 423 105 395 c 0
 105 367 127 345 155 345 c 0
 183 345 205 367 205 395 c 0
 205 423 183 445 155 445 c 0
320 -240 m 9
 320 410 l 2
 320 495 272 520 215 520 c 0
 190 520 169 512 153 500 c 1
 218 497 280 462 280 395 c 0
 280 325 223 280 155 280 c 0
 87 280 30 325 30 395 c 0
 30 517 120 610 250 610 c 0
 365 610 470 534 470 400 c 2
 470 -240 l 17
 320 -240 l 9
EndSplineSet
Colour: ff00
EndChar

StartChar: uni0E2E
Encoding: 453 3630 84
Width: 700
VWidth: 0
Flags: HMW
LayerCount: 4
Layer: 2
SplineSet
190 205 m 0
 162 205 140 183 140 155 c 0
 140 127 162 105 190 105 c 0
 218 105 240 127 240 155 c 0
 240 183 218 205 190 205 c 0
190 260 m 0
 250 260 300 216 300 155 c 0
 300 110 272 76 233 62 c 1
 260 56 295 50 340 50 c 0
 441 50 510 97 510 170 c 2
 510 360 l 2
 510 371 513 380 516 386 c 1
 471 365 407 345 330 345 c 0
 195 345 70 391 70 455 c 0
 70 539 190 620 330 620 c 0
 413 620 482 589 525 542 c 1
 522 551 520 560 520 570 c 2
 520 660 l 1
 600 660 l 1
 600 170 l 2
 600 45 471 -20 340 -20 c 0
 208 -20 80 49 80 155 c 0
 80 216 130 260 190 260 c 0
518 455 m 1
 495 509 422 550 330 550 c 0
 221 550 160 489 160 460 c 0
 160 436 231 405 330 405 c 0
 421 405 485 434 518 455 c 1
EndSplineSet
Validated: 1
Layer: 3
SplineSet
510 660 m 1
 630 660 l 1
 630 190 l 2
 630 50 511 -20 340 -20 c 0
 169 -20 50 59 50 155 c 0
 50 225 107 270 175 270 c 0
 243 270 300 225 300 155 c 0
 300 124 288 99 269 82 c 1
 287 78 310 75 340 75 c 0
 436 75 480 128 480 190 c 2
 480 320 l 2
 480 336 486 349 494 360 c 1
 453 344 401 330 340 330 c 0
 205 330 50 366 50 450 c 0
 50 517 156 620 340 620 c 0
 419 620 476 595 515 559 c 1
 512 568 510 579 510 590 c 2
 510 660 l 1
175 205 m 0
 147 205 125 183 125 155 c 0
 125 127 147 105 175 105 c 0
 203 105 225 127 225 155 c 0
 225 183 203 205 175 205 c 0
340 520 m 0
 255 520 180 481 180 450 c 0
 180 426 253 410 340 410 c 0
 417 410 474 428 511 446 c 1
 480 489 413 520 340 520 c 0
EndSplineSet
Colour: ffff00
EndChar

StartChar: uni0E04
Encoding: 411 3588 91
Width: 700
VWidth: 0
Flags: HMW
LayerCount: 4
Layer: 2
SplineSet
345 310 m 0
 320 310 300 290 300 265 c 0
 300 240 320 220 345 220 c 0
 370 220 390 240 390 265 c 0
 390 290 370 310 345 310 c 0
610 0 m 1
 520 0 l 1
 520 420 l 2
 520 491 455 545 345 545 c 0
 235 545 170 491 170 420 c 0
 170 375 182 346 196 326 c 1
 241 348 295 360 345 360 c 0
 400 360 445 320 445 265 c 0
 445 210 400 170 345 170 c 0
 290 170 245 210 245 265 c 0
 245 271 246 277 247 282 c 1
 204 265 165 228 165 170 c 0
 165 79 260 65 310 65 c 1
 310 -10 l 1
 170 -10 80 63 80 170 c 0
 80 217 102 257 137 288 c 1
 109 313 80 358 80 420 c 0
 80 535 200 620 345 620 c 0
 490 620 610 545 610 420 c 2
 610 0 l 1
EndSplineSet
Validated: 1
Layer: 3
SplineSet
340 305 m 0
 315 305 295 285 295 260 c 0
 295 235 315 215 340 215 c 0
 365 215 385 235 385 260 c 0
 385 285 365 305 340 305 c 0
640 0 m 1
 490 0 l 1
 490 390 l 2
 490 461 425 510 345 510 c 0
 265 510 200 461 200 390 c 0
 200 372 203 357 208 344 c 1
 249 355 295 360 340 360 c 0
 401 360 450 318 450 260 c 0
 450 202 401 160 340 160 c 0
 280 160 231 202 230 259 c 1
 203 249 180 227 180 190 c 0
 180 134 220 100 310 100 c 1
 310 -10 l 1
 166 -10 50 52 50 180 c 0
 50 229 70 266 103 294 c 1
 80 317 60 350 60 390 c 0
 60 515 166 620 345 620 c 0
 538 620 640 515 640 390 c 2
 640 0 l 1
EndSplineSet
Colour: ffff00
EndChar

StartChar: uni0ED7
Encoding: 555 3799 108
Width: 710
VWidth: 0
Flags: HMW
LayerCount: 4
Layer: 2
SplineSet
150 555 m 0
 122 555 100 533 100 505 c 0
 100 477 122 455 150 455 c 0
 178 455 200 477 200 505 c 0
 200 533 178 555 150 555 c 0
150 145 m 0
 122 145 100 123 100 95 c 0
 100 67 122 45 150 45 c 0
 178 45 200 67 200 95 c 0
 200 123 178 145 150 145 c 0
257 531 m 1
 292 569 354 610 430 610 c 0
 536 610 610 545 610 420 c 2
 610 -240 l 1
 520 -240 l 1
 520 420 l 2
 520 489 501 535 410 535 c 0
 336 535 291 499 260 458 c 1
 260 95 l 2
 260 34 210 -10 150 -10 c 0
 90 -10 40 34 40 95 c 0
 40 156 90 200 150 200 c 0
 157 200 164 199 170 198 c 1
 170 402 l 1
 164 401 157 400 150 400 c 0
 90 400 40 444 40 505 c 0
 40 566 90 610 150 610 c 0
 201 610 245 578 257 531 c 1
EndSplineSet
Validated: 1
Layer: 3
SplineSet
155 545 m 0
 127 545 105 523 105 495 c 0
 105 467 127 445 155 445 c 0
 183 445 205 467 205 495 c 0
 205 523 183 545 155 545 c 0
155 155 m 0
 127 155 105 133 105 105 c 0
 105 77 127 55 155 55 c 0
 183 55 205 77 205 105 c 0
 205 133 183 155 155 155 c 0
133 382 m 1
 75 390 30 433 30 495 c 0
 30 565 87 610 155 610 c 0
 214 610 265 576 277 521 c 1
 315 567 373 610 460 610 c 0
 565 610 630 544 630 400 c 2
 630 -240 l 1
 480 -240 l 1
 480 400 l 2
 480 472 451 500 400 500 c 0
 350 500 310 468 280 430 c 1
 280 300 l 1
 280 105 l 2
 280 35 223 -10 155 -10 c 0
 87 -10 30 35 30 105 c 0
 30 167 75 210 133 218 c 1
 131 224 130 231 130 240 c 2
 130 300 l 1
 130 360 l 2
 130 369 131 376 133 382 c 1
EndSplineSet
Colour: ffff00
EndChar

StartChar: uni0E29
Encoding: 448 3625 112
Width: 720
VWidth: 0
Flags: HMW
LayerCount: 4
Layer: 2
SplineSet
490 560 m 0
 462 560 440 538 440 510 c 0
 440 482 462 460 490 460 c 0
 518 460 540 482 540 510 c 0
 540 538 518 560 490 560 c 0
150 555 m 0
 122 555 100 533 100 505 c 0
 100 477 122 455 150 455 c 0
 178 455 200 477 200 505 c 0
 200 533 178 555 150 555 c 0
150 610 m 0
 221 610 270 560 270 500 c 0
 270 403 190 380 190 300 c 2
 190 170 l 2
 190 105 255 55 360 55 c 0
 465 55 530 105 530 170 c 2
 530 400 l 2
 530 407 533 416 538 425 c 1
 524 416 506 410 485 410 c 0
 425 410 380 449 380 510 c 0
 380 571 425 610 485 610 c 0
 509 610 528 602 543 591 c 1
 541 598 540 606 540 615 c 2
 540 660 l 1
 620 660 l 1
 620 170 l 2
 620 34 495 -20 360 -20 c 0
 225 -20 100 34 100 170 c 2
 100 300 l 2
 100 353 137 379 167 406 c 1
 161 405 156 405 150 405 c 0
 90 405 40 444 40 505 c 0
 40 566 90 610 150 610 c 0
EndSplineSet
Validated: 1
Layer: 3
SplineSet
530 660 m 1
 650 660 l 1
 650 190 l 2
 650 65 574 -20 370 -20 c 0
 166 -20 90 75 90 190 c 2
 90 270 l 2
 90 325 126 356 160 385 c 1
 159 385 157 385 155 385 c 0
 87 385 30 425 30 495 c 0
 30 565 87 610 155 610 c 0
 235 610 300 554 300 480 c 0
 300 383 240 364 240 270 c 2
 240 190 l 2
 240 119 290 90 370 90 c 0
 450 90 500 119 500 190 c 2
 500 350 l 2
 500 363 503 374 507 383 c 1
 498 381 489 380 480 380 c 0
 412 380 355 425 355 495 c 0
 355 565 412 610 480 610 c 0
 500 610 519 605 535 596 c 1
 532 604 530 612 530 620 c 2
 530 660 l 1
480 545 m 0
 452 545 430 523 430 495 c 0
 430 467 452 445 480 445 c 0
 508 445 530 467 530 495 c 0
 530 523 508 545 480 545 c 0
155 445 m 0
 183 445 205 467 205 495 c 0
 205 523 183 545 155 545 c 0
 127 545 105 523 105 495 c 0
 105 467 127 445 155 445 c 0
EndSplineSet
Colour: ffff00
EndChar

StartChar: uni0E2C
Encoding: 451 3628 113
Width: 790
VWidth: 0
Flags: HMW
LayerCount: 4
Layer: 2
SplineSet
560 560 m 0
 532 560 510 538 510 510 c 0
 510 482 532 460 560 460 c 0
 588 460 610 482 610 510 c 0
 610 538 588 560 560 560 c 0
150 555 m 0
 122 555 100 533 100 505 c 0
 100 477 122 455 150 455 c 0
 178 455 200 477 200 505 c 0
 200 533 178 555 150 555 c 0
150 610 m 0
 221 610 270 560 270 500 c 0
 270 403 190 380 190 300 c 2
 190 150 l 2
 190 97 221 65 270 65 c 0
 319 65 350 97 350 150 c 2
 350 300 l 1
 440 300 l 1
 440 150 l 2
 440 97 471 65 520 65 c 0
 569 65 600 97 600 150 c 2
 600 400 l 2
 600 407 603 416 608 425 c 1
 594 416 576 410 555 410 c 0
 495 410 450 449 450 510 c 0
 450 571 495 610 555 610 c 0
 579 610 598 602 613 591 c 1
 611 598 610 606 610 615 c 2
 610 660 l 1
 690 660 l 1
 690 150 l 2
 690 56 629 -10 520 -10 c 0
 468 -10 422 15 395 58 c 1
 368 15 322 -10 270 -10 c 0
 161 -10 100 56 100 150 c 2
 100 300 l 2
 100 353 137 379 167 406 c 1
 161 405 156 405 150 405 c 0
 90 405 40 444 40 505 c 0
 40 566 90 610 150 610 c 0
EndSplineSet
Validated: 1
Layer: 3
SplineSet
600 660 m 1
 720 660 l 1
 720 150 l 2
 720 49 654 -10 540 -10 c 0
 485 -10 436 12 405 49 c 1
 374 12 325 -10 270 -10 c 0
 156 -10 90 49 90 150 c 2
 90 270 l 2
 90 325 126 356 160 385 c 1
 159 385 157 385 155 385 c 0
 87 385 30 425 30 495 c 0
 30 565 87 610 155 610 c 0
 235 610 300 554 300 480 c 0
 300 383 240 364 240 270 c 2
 240 150 l 2
 240 115 264 100 290 100 c 0
 316 100 340 115 340 150 c 2
 340 330 l 1
 470 330 l 1
 470 150 l 2
 470 115 494 100 520 100 c 0
 546 100 570 115 570 150 c 2
 570 350 l 2
 570 363 573 374 577 383 c 1
 568 381 559 380 550 380 c 0
 482 380 425 425 425 495 c 0
 425 565 482 610 550 610 c 0
 570 610 589 605 605 596 c 1
 602 604 600 612 600 620 c 2
 600 660 l 1
550 545 m 0
 522 545 500 523 500 495 c 0
 500 467 522 445 550 445 c 0
 578 445 600 467 600 495 c 0
 600 523 578 545 550 545 c 0
155 445 m 0
 183 445 205 467 205 495 c 0
 205 523 183 545 155 545 c 0
 127 545 105 523 105 495 c 0
 105 467 127 445 155 445 c 0
EndSplineSet
Colour: ffff00
EndChar

StartChar: uni0E3A
Encoding: 465 3642 114
Width: 0
VWidth: 0
Flags: HMW
LayerCount: 4
Layer: 2
SplineSet
-260 -125 m 4
 -260 -161 -289 -190 -325 -190 c 4
 -361 -190 -390 -161 -390 -125 c 4
 -390 -89 -361 -60 -325 -60 c 4
 -289 -60 -260 -89 -260 -125 c 4
EndSplineSet
Validated: 1
Layer: 3
SplineSet
-250 -140 m 4
 -250 -184 -286 -220 -330 -220 c 4
 -374 -220 -410 -184 -410 -140 c 4
 -410 -96 -374 -60 -330 -60 c 4
 -286 -60 -250 -96 -250 -140 c 4
EndSplineSet
EndChar

StartChar: uni0E28
Encoding: 447 3624 115
Width: 700
VWidth: 0
Flags: HMW
LayerCount: 4
Layer: 2
SplineSet
345 310 m 0
 320 310 300 290 300 265 c 0
 300 240 320 220 345 220 c 0
 370 220 390 240 390 265 c 0
 390 290 370 310 345 310 c 0
610 0 m 1
 520 0 l 1
 520 420 l 2
 520 491 455 545 345 545 c 0
 235 545 170 491 170 420 c 0
 170 375 182 346 196 326 c 1
 241 348 295 360 345 360 c 0
 400 360 445 320 445 265 c 0
 445 210 400 170 345 170 c 0
 290 170 245 210 245 265 c 0
 245 271 246 277 247 282 c 1
 204 265 165 228 165 170 c 0
 165 79 260 65 310 65 c 1
 310 -10 l 1
 170 -10 80 63 80 170 c 0
 80 217 102 257 137 288 c 1
 109 313 80 358 80 420 c 0
 80 535 200 620 345 620 c 0
 431 620 496 587 534 538 c 1
 532 548 530 558 530 570 c 2
 530 660 l 1
 610 660 l 1
 610 0 l 1
EndSplineSet
Validated: 1
Layer: 3
SplineSet
510 660 m 1
 630 660 l 1
 630 0 l 1
 490 0 l 1
 490 390 l 2
 490 461 425 510 345 510 c 0
 265 510 200 461 200 390 c 0
 200 372 203 357 208 344 c 1
 249 355 295 360 340 360 c 0
 401 360 450 318 450 260 c 0
 450 202 401 160 340 160 c 0
 280 160 231 202 230 259 c 1
 203 249 180 227 180 190 c 0
 180 134 220 100 310 100 c 1
 310 -10 l 1
 166 -10 50 52 50 180 c 0
 50 229 70 266 103 294 c 1
 80 317 60 350 60 390 c 0
 60 515 166 620 345 620 c 0
 426 620 482 594 519 556 c 1
 514 569 510 584 510 600 c 2
 510 660 l 1
340 305 m 0
 315 305 295 285 295 260 c 0
 295 235 315 215 340 215 c 0
 365 215 385 235 385 260 c 0
 385 285 365 305 340 305 c 0
EndSplineSet
Colour: ffff00
EndChar

StartChar: uni0E05
Encoding: 412 3589 116
Width: 700
VWidth: 0
Flags: HMW
LayerCount: 4
Layer: 2
SplineSet
345 310 m 0
 320 310 300 290 300 265 c 0
 300 240 320 220 345 220 c 0
 370 220 390 240 390 265 c 0
 390 290 370 310 345 310 c 0
610 0 m 1
 520 0 l 1
 520 420 l 2
 520 459 508 509 465 540 c 1
 345 450 l 1
 225 540 l 1
 182 509 170 459 170 420 c 0
 170 375 182 346 196 326 c 1
 241 348 295 360 345 360 c 0
 400 360 445 320 445 265 c 0
 445 210 400 170 345 170 c 0
 290 170 245 210 245 265 c 0
 245 271 246 277 247 282 c 1
 204 265 165 228 165 170 c 0
 165 79 260 65 310 65 c 1
 310 -10 l 1
 170 -10 80 63 80 170 c 0
 80 217 102 257 137 288 c 1
 109 313 80 358 80 420 c 0
 80 551 195 620 225 620 c 1
 345 525 l 1
 465 620 l 1
 495 620 610 551 610 420 c 2
 610 0 l 1
EndSplineSet
Validated: 1
Layer: 3
SplineSet
340 305 m 0
 315 305 295 285 295 260 c 0
 295 235 315 215 340 215 c 0
 365 215 385 235 385 260 c 0
 385 285 365 305 340 305 c 0
640 0 m 1
 490 0 l 1
 490 390 l 2
 490 460 480 492 455 510 c 1
 345 420 l 1
 235 510 l 1
 210 492 190 460 190 390 c 0
 190 371 195 355 201 342 c 1
 244 355 293 360 340 360 c 0
 401 360 450 318 450 260 c 0
 450 202 401 160 340 160 c 0
 280 160 231 202 230 259 c 1
 203 249 180 227 180 190 c 0
 180 134 220 100 310 100 c 1
 310 -10 l 1
 166 -10 50 52 50 180 c 0
 50 229 70 266 103 294 c 1
 80 317 60 350 60 390 c 0
 60 552 174 620 235 620 c 1
 345 525 l 1
 455 620 l 1
 516 620 640 552 640 390 c 2
 640 0 l 1
EndSplineSet
Colour: ffff00
EndChar

StartChar: uni0E2B0E19.liga
Encoding: 866 -1 117
Width: 1170
VWidth: 0
Flags: HMW
LayerCount: 4
Layer: 2
SplineSet
1060 600 m 1
 1060 190 l 1
 1052 188 l 1
 1086 171 1110 137 1110 95 c 0
 1110 34 1060 -10 1000 -10 c 0
 951 -10 911 20 899 64 c 1
 875 26 842 -10 786 -10 c 0
 694 -10 650 40 650 170 c 2
 650 460 l 2
 650 501 640 525 610 525 c 0
 562 525 534 437 480 418 c 1
 480 130 l 2
 480 41 405 -10 300 -10 c 0
 195 -10 120 40 120 130 c 2
 120 300 l 2
 120 353 157 379 187 406 c 1
 181 405 176 405 170 405 c 0
 110 405 60 444 60 505 c 0
 60 566 110 610 170 610 c 0
 241 610 290 560 290 500 c 0
 290 403 210 380 210 300 c 2
 210 130 l 2
 210 85 258 65 300 65 c 0
 342 65 390 85 390 130 c 2
 390 416 l 1
 353 430 320 463 320 510 c 0
 320 571 373 610 425 610 c 0
 475 610 526 574 530 517 c 1
 556 556 586 600 640 600 c 0
 691 600 740 561 740 480 c 2
 740 170 l 2
 740 93 752 65 795 65 c 0
 863 65 889 172 970 197 c 1
 970 600 l 1
 1060 600 l 1
1000 45 m 0
 1028 45 1050 67 1050 95 c 0
 1050 123 1028 145 1000 145 c 0
 972 145 950 123 950 95 c 0
 950 67 972 45 1000 45 c 0
425 560 m 0
 397 560 375 538 375 510 c 0
 375 482 397 460 425 460 c 0
 453 460 475 482 475 510 c 0
 475 538 453 560 425 560 c 0
170 555 m 0
 142 555 120 533 120 505 c 0
 120 477 142 455 170 455 c 0
 198 455 220 477 220 505 c 0
 220 533 198 555 170 555 c 0
EndSplineSet
Validated: 1
Layer: 3
SplineSet
425 550 m 0
 397 550 375 528 375 500 c 0
 375 472 397 450 425 450 c 0
 453 450 475 472 475 500 c 0
 475 528 453 550 425 550 c 0
155 445 m 0
 183 445 205 467 205 495 c 0
 205 523 183 545 155 545 c 0
 127 545 105 523 105 495 c 0
 105 467 127 445 155 445 c 0
155 385 m 0
 87 385 30 425 30 495 c 0
 30 565 87 610 155 610 c 0
 235 610 300 554 300 480 c 0
 300 383 240 364 240 270 c 2
 240 150 l 2
 240 114 273 100 300 100 c 0
 327 100 360 114 360 150 c 2
 360 370 l 2
 360 384 363 396 366 405 c 1
 334 423 310 455 310 500 c 0
 310 570 368 610 425 610 c 0
 477 610 530 576 539 517 c 1
 571 554 611 600 670 600 c 0
 741 600 770 551 770 470 c 2
 770 270 l 1
 770 180 l 2
 770 122 783 100 815 100 c 0
 865 100 892 164 940 200 c 1
 940 600 l 1
 1090 600 l 1
 1090 210 l 1
 1076 206 l 1
 1114 188 1140 152 1140 105 c 0
 1140 35 1083 -10 1015 -10 c 0
 961 -10 914 18 897 65 c 1
 868 27 826 -10 755 -10 c 0
 674 -10 620 45 620 170 c 2
 620 270 l 1
 620 420 l 2
 620 461 613 480 590 480 c 0
 559 480 521 419 490 407 c 1
 490 150 l 2
 490 52 405 -10 295 -10 c 0
 185 -10 90 52 90 150 c 2
 90 270 l 2
 90 325 126 356 160 385 c 1
 159 385 157 385 155 385 c 0
1015 155 m 0
 987 155 965 133 965 105 c 0
 965 77 987 55 1015 55 c 0
 1043 55 1065 77 1065 105 c 0
 1065 133 1043 155 1015 155 c 0
EndSplineSet
Colour: ff00
EndChar

StartChar: uni0E06
Encoding: 413 3590 122
Width: 730
VWidth: 0
Flags: HMW
LayerCount: 4
Layer: 2
SplineSet
170 425 m 0
 148 425 130 407 130 385 c 0
 130 363 148 345 170 345 c 0
 192 345 210 363 210 385 c 0
 210 407 192 425 170 425 c 0
170 470 m 0
 220 470 260 435 260 385 c 0
 260 335 220 300 170 300 c 0
 102 300 50 358 50 440 c 0
 50 540 127 610 160 610 c 1
 255 530 l 1
 350 610 l 1
 378 610 455 532 455 450 c 0
 455 304 290 282 290 190 c 2
 290 134 l 1
 321 96 366 65 440 65 c 0
 531 65 550 111 550 180 c 2
 550 600 l 1
 640 600 l 1
 640 180 l 2
 640 55 566 -10 460 -10 c 0
 382 -10 320 27 285 63 c 1
 271 19 229 -10 180 -10 c 0
 120 -10 70 34 70 95 c 0
 70 156 120 200 180 200 c 0
 190 200 201 199 210 196 c 1
 216 321 390 342 390 450 c 0
 390 492 366 534 350 545 c 1
 255 470 l 1
 160 545 l 1
 143 535 112 491 110 445 c 1
 124 461 144 470 170 470 c 0
180 45 m 0
 208 45 230 67 230 95 c 0
 230 123 208 145 180 145 c 0
 152 145 130 123 130 95 c 0
 130 67 152 45 180 45 c 0
EndSplineSet
Validated: 1
Layer: 3
SplineSet
160 435 m 0
 138 435 120 417 120 395 c 0
 120 373 138 355 160 355 c 0
 182 355 200 373 200 395 c 0
 200 417 182 435 160 435 c 0
160 485 m 0
 215 485 260 451 260 395 c 0
 260 339 215 300 160 300 c 0
 92 300 40 358 40 440 c 0
 40 540 122 610 155 610 c 1
 255 540 l 1
 355 610 l 1
 383 610 470 532 470 450 c 0
 470 313 310 276 292 195 c 1
 324 147 369 100 430 100 c 0
 481 100 510 128 510 200 c 2
 510 600 l 1
 660 600 l 1
 660 200 l 2
 660 56 595 -10 490 -10 c 0
 403 -10 345 33 307 79 c 1
 295 24 244 -10 185 -10 c 0
 117 -10 60 35 60 105 c 0
 60 169 107 212 167 219 c 1
 205 318 380 352 380 450 c 0
 380 489 367 511 345 530 c 1
 255 470 l 1
 155 535 l 1
 136 517 122 497 115 473 c 1
 128 481 143 485 160 485 c 0
185 155 m 0
 157 155 135 133 135 105 c 0
 135 77 157 55 185 55 c 0
 213 55 235 77 235 105 c 0
 235 133 213 155 185 155 c 0
EndSplineSet
Colour: ffff00
EndChar

StartChar: uni0E11
Encoding: 424 3601 123
Width: 820
VWidth: 0
Flags: HMW
LayerCount: 4
Layer: 2
SplineSet
170 425 m 0
 148 425 130 407 130 385 c 0
 130 363 148 345 170 345 c 0
 192 345 210 363 210 385 c 0
 210 407 192 425 170 425 c 0
170 470 m 0
 220 470 260 435 260 385 c 0
 260 335 220 300 170 300 c 0
 102 300 50 358 50 440 c 0
 50 540 127 610 160 610 c 1
 255 530 l 1
 350 610 l 1
 367 610 402 580 425 537 c 1
 450 584 502 610 570 610 c 0
 665 610 730 559 730 470 c 2
 730 0 l 1
 640 0 l 1
 640 470 l 2
 640 525 597 535 565 535 c 0
 533 535 490 525 490 470 c 2
 490 130 l 2
 490 41 420 -10 325 -10 c 0
 230 -10 160 41 160 130 c 2
 160 180 l 2
 160 311 390 340 390 450 c 0
 390 492 366 534 350 545 c 1
 255 470 l 1
 160 545 l 1
 143 535 112 491 110 445 c 1
 124 461 144 470 170 470 c 0
410 351 m 1
 349 282 240 246 240 180 c 2
 240 130 l 2
 240 75 293 55 325 55 c 0
 357 55 410 75 410 130 c 2
 410 351 l 1
EndSplineSet
Validated: 1
Layer: 3
SplineSet
330 -10 m 0
 220 -10 150 52 150 150 c 2
 150 180 l 2
 150 311 370 340 370 450 c 0
 370 489 357 511 335 530 c 1
 245 470 l 1
 145 535 l 1
 126 517 112 497 105 473 c 1
 118 481 133 485 150 485 c 0
 205 485 250 451 250 395 c 0
 250 339 205 300 150 300 c 0
 82 300 30 358 30 440 c 0
 30 540 112 610 145 610 c 1
 245 540 l 1
 345 610 l 1
 360 610 392 588 418 554 c 1
 451 590 502 610 565 610 c 0
 675 610 760 548 760 450 c 2
 760 0 l 1
 610 0 l 1
 610 450 l 2
 610 486 587 500 560 500 c 0
 533 500 510 486 510 450 c 2
 510 150 l 2
 510 52 440 -10 330 -10 c 0
150 435 m 0
 128 435 110 417 110 395 c 0
 110 373 128 355 150 355 c 0
 172 355 190 373 190 395 c 0
 190 417 172 435 150 435 c 0
280 180 m 2
 280 150 l 2
 280 114 308 100 335 100 c 0
 362 100 380 114 380 150 c 2
 380 303 l 1
 332 262 280 229 280 180 c 2
EndSplineSet
Colour: ffff00
EndChar

StartChar: uni0E03
Encoding: 410 3587 124
Width: 700
VWidth: 0
Flags: HMW
LayerCount: 4
Layer: 2
SplineSet
550 0 m 1
 550 60 l 2
 550 80 554 98 558 111 c 1
 521 61 443 -20 310 -20 c 0
 176 -20 90 43 90 130 c 0
 90 249 237 276 340 305 c 0
 453 337 530 371 530 430 c 0
 530 472 512 519 475 550 c 1
 345 455 l 1
 215 550 l 1
 195 538 172 510 161 479 c 1
 172 486 185 490 200 490 c 0
 255 490 300 455 300 400 c 0
 300 345 255 305 200 305 c 0
 134 305 90 361 90 430 c 0
 90 554 186 620 220 620 c 1
 345 525 l 1
 470 620 l 1
 504 620 610 554 610 430 c 0
 610 317 490 271 370 235 c 0
 257 201 180 185 180 130 c 0
 180 89 224 55 310 55 c 0
 477 55 540 175 560 210 c 1
 610 210 l 1
 610 0 l 1
 550 0 l 1
200 445 m 0
 175 445 155 425 155 400 c 0
 155 375 175 355 200 355 c 0
 225 355 245 375 245 400 c 0
 245 425 225 445 200 445 c 0
EndSplineSet
Validated: 1
Layer: 3
SplineSet
550 0 m 1
 550 70 l 2
 550 83 553 95 556 107 c 1
 516 45 441 -20 320 -20 c 0
 163 -20 50 55 50 145 c 0
 50 268 199 287 340 325 c 0
 459 357 510 374 510 430 c 0
 510 470 494 508 475 525 c 1
 350 440 l 1
 210 535 l 1
 200 530 187 514 179 500 c 1
 224 498 285 467 285 405 c 0
 285 341 238 300 175 300 c 0
 112 300 60 341 60 405 c 0
 60 529 176 620 210 620 c 1
 350 520 l 1
 490 620 l 1
 524 620 640 534 640 410 c 0
 640 295 523 256 370 215 c 0
 243 181 200 175 200 140 c 0
 200 104 262 85 320 85 c 0
 444 85 529 151 550 210 c 1
 640 210 l 1
 640 0 l 1
 550 0 l 1
175 450 m 0
 150 450 130 430 130 405 c 0
 130 380 150 360 175 360 c 0
 200 360 220 380 220 405 c 0
 220 430 200 450 175 450 c 0
EndSplineSet
Colour: ffff00
EndChar

StartChar: uni0E0B
Encoding: 418 3595 125
Width: 710
VWidth: 0
Flags: HMW
LayerCount: 4
Layer: 2
SplineSet
540 -240 m 1
 540 60 l 2
 540 79 543 94 546 106 c 1
 510 56 439 -20 310 -20 c 0
 176 -20 90 43 90 130 c 0
 90 249 237 276 340 305 c 0
 453 337 530 371 530 430 c 0
 530 472 512 519 475 550 c 1
 345 455 l 1
 215 550 l 1
 195 538 172 510 161 479 c 1
 172 486 185 490 200 490 c 0
 255 490 300 455 300 400 c 0
 300 345 255 305 200 305 c 0
 134 305 90 361 90 430 c 0
 90 554 186 620 220 620 c 1
 345 525 l 1
 470 620 l 1
 504 620 610 554 610 430 c 0
 610 317 490 271 370 235 c 0
 257 201 180 185 180 130 c 0
 180 89 224 55 310 55 c 0
 477 55 530 175 550 210 c 1
 620 210 l 1
 620 -240 l 1
 540 -240 l 1
200 445 m 0
 175 445 155 425 155 400 c 0
 155 375 175 355 200 355 c 0
 225 355 245 375 245 400 c 0
 245 425 225 445 200 445 c 0
EndSplineSet
Validated: 1
Layer: 3
SplineSet
175 450 m 0
 150 450 130 430 130 405 c 0
 130 380 150 360 175 360 c 0
 200 360 220 380 220 405 c 0
 220 430 200 450 175 450 c 0
210 620 m 1
 350 520 l 1
 490 620 l 1
 524 620 640 534 640 410 c 0
 640 295 523 256 370 215 c 0
 243 181 200 175 200 140 c 0
 200 104 262 85 320 85 c 0
 444 85 519 151 540 210 c 1
 640 210 l 1
 640 -240 l 1
 510 -240 l 1
 510 0 l 2
 510 25 516 50 522 70 c 1
 482 22 417 -20 320 -20 c 0
 163 -20 50 55 50 145 c 0
 50 268 199 287 340 325 c 0
 459 357 510 374 510 430 c 0
 510 470 494 508 475 525 c 1
 350 440 l 1
 210 535 l 1
 200 530 187 514 179 500 c 1
 224 498 285 467 285 405 c 0
 285 341 238 300 175 300 c 0
 112 300 60 341 60 405 c 0
 60 529 176 620 210 620 c 1
EndSplineSet
Colour: ffff00
EndChar

StartChar: uni0E12
Encoding: 425 3602 126
Width: 1000
VWidth: 0
Flags: HMW
LayerCount: 4
Layer: 2
SplineSet
560 45 m 0
 588 45 610 67 610 95 c 0
 610 123 588 145 560 145 c 0
 532 145 510 123 510 95 c 0
 510 67 532 45 560 45 c 0
560 -10 m 0
 500 -10 450 34 450 95 c 0
 450 142 479 178 520 193 c 1
 520 420 l 2
 520 459 508 509 465 540 c 1
 350 450 l 1
 235 540 l 1
 192 509 180 459 180 420 c 2
 180 173 l 1
 198 190 223 200 250 200 c 0
 310 200 360 156 360 95 c 0
 360 34 310 -10 250 -10 c 0
 153 -10 90 63 90 160 c 2
 90 420 l 2
 90 551 205 620 235 620 c 1
 350 525 l 1
 465 620 l 1
 495 620 610 551 610 420 c 2
 610 190 l 1
 677 160 700 65 770 65 c 0
 801 65 820 79 820 150 c 2
 820 600 l 1
 910 600 l 1
 910 150 l 2
 910 46 866 -10 790 -10 c 0
 723 -10 687 25 661 63 c 1
 648 19 609 -10 560 -10 c 0
250 145 m 0
 222 145 200 123 200 95 c 0
 200 67 222 45 250 45 c 0
 278 45 300 67 300 95 c 0
 300 123 278 145 250 145 c 0
EndSplineSet
Validated: 1
Layer: 3
SplineSet
555 155 m 0
 527 155 505 133 505 105 c 0
 505 77 527 55 555 55 c 0
 583 55 605 77 605 105 c 0
 605 133 583 155 555 155 c 0
250 155 m 0
 222 155 200 133 200 105 c 0
 200 77 222 55 250 55 c 0
 278 55 300 77 300 105 c 0
 300 133 278 155 250 155 c 0
245 620 m 1
 350 525 l 1
 455 620 l 1
 516 620 640 552 640 390 c 2
 640 190 l 1
 678 151 695 100 745 100 c 0
 784 100 790 128 790 200 c 2
 790 600 l 1
 940 600 l 1
 940 180 l 2
 940 36 876 -10 800 -10 c 0
 738 -10 691 22 660 57 c 1
 643 16 604 -10 555 -10 c 0
 487 -10 430 35 430 105 c 0
 430 157 462 195 506 212 c 1
 503 218 500 227 500 240 c 2
 500 390 l 2
 500 460 480 492 455 510 c 1
 350 420 l 1
 245 510 l 1
 220 492 210 460 210 390 c 2
 210 240 l 2
 210 231 208 219 206 208 c 1
 219 215 233 220 250 220 c 0
 318 220 375 175 375 105 c 0
 375 35 318 -10 250 -10 c 0
 146 -10 60 58 60 160 c 2
 60 390 l 2
 60 552 184 620 245 620 c 1
EndSplineSet
Colour: ffff00
EndChar

StartChar: uni0E0C
Encoding: 419 3596 127
Width: 1000
VWidth: 0
Flags: HMW
LayerCount: 4
Layer: 2
SplineSet
250 200 m 0
 310 200 360 156 360 95 c 0
 360 34 310 -10 250 -10 c 0
 190 -10 140 34 140 95 c 2
 140 400 l 1
 85 405 40 447 40 505 c 0
 40 566 90 610 150 610 c 0
 200 610 243 580 256 534 c 1
 295 572 358 610 430 610 c 0
 536 610 610 545 610 420 c 2
 610 190 l 1
 677 160 700 65 770 65 c 0
 801 65 820 79 820 150 c 2
 820 600 l 1
 910 600 l 1
 910 150 l 2
 910 46 866 -10 790 -10 c 0
 723 -10 687 25 661 63 c 1
 648 19 609 -10 560 -10 c 0
 500 -10 450 34 450 95 c 0
 450 142 479 178 520 193 c 1
 520 420 l 2
 520 489 501 535 410 535 c 0
 318 535 262 478 230 427 c 1
 230 198 l 1
 236 199 243 200 250 200 c 0
250 145 m 0
 222 145 200 123 200 95 c 0
 200 67 222 45 250 45 c 0
 278 45 300 67 300 95 c 0
 300 123 278 145 250 145 c 0
150 555 m 0
 122 555 100 533 100 505 c 0
 100 477 122 455 150 455 c 0
 178 455 200 477 200 505 c 0
 200 533 178 555 150 555 c 0
560 45 m 0
 588 45 610 67 610 95 c 0
 610 123 588 145 560 145 c 0
 532 145 510 123 510 95 c 0
 510 67 532 45 560 45 c 0
EndSplineSet
Validated: 1
Layer: 3
SplineSet
545 155 m 0
 517 155 495 133 495 105 c 0
 495 77 517 55 545 55 c 0
 573 55 595 77 595 105 c 0
 595 133 573 155 545 155 c 0
115 386 m 1
 66 400 30 440 30 495 c 0
 30 565 87 610 155 610 c 0
 214 610 265 576 277 521 c 1
 315 567 373 610 460 610 c 0
 565 610 630 544 630 400 c 2
 630 190 l 1
 668 151 685 100 735 100 c 0
 774 100 780 128 780 200 c 2
 780 600 l 1
 930 600 l 1
 930 180 l 2
 930 36 866 -10 790 -10 c 0
 728 -10 681 22 650 57 c 1
 633 16 594 -10 545 -10 c 0
 477 -10 420 35 420 105 c 0
 420 157 452 195 496 212 c 1
 492 219 490 228 490 240 c 2
 490 400 l 2
 490 472 451 500 400 500 c 0
 338 500 292 452 260 402 c 1
 260 300 l 1
 260 240 l 2
 260 231 259 224 257 218 c 1
 315 210 360 167 360 105 c 0
 360 35 303 -10 235 -10 c 0
 167 -10 110 35 110 105 c 2
 110 300 l 1
 110 360 l 2
 110 372 112 380 115 386 c 1
235 155 m 0
 207 155 185 133 185 105 c 0
 185 77 207 55 235 55 c 0
 263 55 285 77 285 105 c 0
 285 133 263 155 235 155 c 0
155 545 m 0
 127 545 105 523 105 495 c 0
 105 467 127 445 155 445 c 0
 183 445 205 467 205 495 c 0
 205 523 183 545 155 545 c 0
EndSplineSet
Colour: ffff00
EndChar

StartChar: uni0E13
Encoding: 426 3603 128
Width: 1020
VWidth: 0
Flags: HMW
LayerCount: 4
Layer: 2
SplineSet
250 200 m 0
 310 200 360 156 360 95 c 0
 360 34 310 -10 250 -10 c 0
 190 -10 140 34 140 95 c 2
 140 400 l 1
 85 405 40 447 40 505 c 0
 40 566 90 610 150 610 c 0
 200 610 243 580 256 534 c 1
 295 572 358 610 430 610 c 0
 536 610 610 545 610 420 c 2
 610 170 l 2
 610 93 617 65 660 65 c 0
 728 65 750 172 830 196 c 1
 830 600 l 1
 920 600 l 1
 920 190 l 1
 912 188 l 1
 946 171 970 137 970 95 c 0
 970 34 920 -10 860 -10 c 0
 811 -10 773 19 760 62 c 1
 737 25 705 -10 650 -10 c 0
 558 -10 520 40 520 170 c 2
 520 420 l 2
 520 489 501 535 410 535 c 0
 318 535 262 478 230 427 c 1
 230 198 l 1
 236 199 243 200 250 200 c 0
250 145 m 0
 222 145 200 123 200 95 c 0
 200 67 222 45 250 45 c 0
 278 45 300 67 300 95 c 0
 300 123 278 145 250 145 c 0
150 555 m 0
 122 555 100 533 100 505 c 0
 100 477 122 455 150 455 c 0
 178 455 200 477 200 505 c 0
 200 533 178 555 150 555 c 0
860 45 m 0
 888 45 910 67 910 95 c 0
 910 123 888 145 860 145 c 0
 832 145 810 123 810 95 c 0
 810 67 832 45 860 45 c 0
EndSplineSet
Validated: 1
Layer: 3
SplineSet
940 600 m 1
 940 210 l 1
 926 206 l 1
 964 188 990 152 990 105 c 0
 990 35 933 -10 865 -10 c 0
 814 -10 770 15 751 56 c 1
 728 21 694 -10 630 -10 c 0
 537 -10 490 54 490 170 c 2
 490 270 l 1
 490 400 l 2
 490 472 451 500 400 500 c 0
 338 500 292 452 260 402 c 1
 260 300 l 1
 260 240 l 2
 260 231 259 224 257 218 c 1
 315 210 360 167 360 105 c 0
 360 35 303 -10 235 -10 c 0
 167 -10 110 35 110 105 c 2
 110 300 l 1
 110 360 l 2
 110 372 112 380 115 386 c 1
 66 400 30 440 30 495 c 0
 30 565 87 610 155 610 c 0
 214 610 265 576 277 521 c 1
 315 567 373 610 460 610 c 0
 565 610 630 544 630 400 c 2
 630 270 l 1
 630 180 l 2
 630 122 639 100 675 100 c 0
 728 100 738 168 790 203 c 1
 790 600 l 1
 940 600 l 1
865 155 m 0
 837 155 815 133 815 105 c 0
 815 77 837 55 865 55 c 0
 893 55 915 77 915 105 c 0
 915 133 893 155 865 155 c 0
235 155 m 0
 207 155 185 133 185 105 c 0
 185 77 207 55 235 55 c 0
 263 55 285 77 285 105 c 0
 285 133 263 155 235 155 c 0
155 545 m 0
 127 545 105 523 105 495 c 0
 105 467 127 445 155 445 c 0
 183 445 205 467 205 495 c 0
 205 523 183 545 155 545 c 0
EndSplineSet
Colour: ffff00
EndChar

StartChar: uni0E0D
Encoding: 420 3597 130
Width: 1000
VWidth: 0
Flags: HMW
LayerCount: 4
Layer: 2
SplineSet
620 -180 m 0
 642 -180 660 -162 660 -140 c 0
 660 -118 642 -100 620 -100 c 0
 598 -100 580 -118 580 -140 c 0
 580 -162 598 -180 620 -180 c 0
698 -175 m 1
 770 -175 l 2
 834 -175 850 -142 850 -80 c 1
 930 -80 l 1
 930 -195 865 -240 780 -240 c 2
 670 -240 l 2
 574 -240 530 -200 530 -140 c 0
 530 -90 570 -55 620 -55 c 0
 670 -55 710 -90 710 -140 c 0
 710 -153 706 -165 698 -175 c 1
EndSplineSet
Refer: 864 63642 S 1 0 0 1 0 0 2
Validated: 1
Layer: 3
SplineSet
610 -95 m 0
 591 -95 575 -111 575 -130 c 0
 575 -149 591 -165 610 -165 c 0
 629 -165 645 -149 645 -130 c 0
 645 -111 629 -95 610 -95 c 0
610 -40 m 0
 665 -40 705 -80 705 -130 c 0
 705 -141 703 -151 699 -160 c 1
 760 -160 l 2
 824 -160 840 -132 840 -70 c 1
 950 -70 l 1
 950 -185 885 -240 800 -240 c 2
 650 -240 l 2
 561 -240 510 -190 510 -130 c 0
 510 -80 555 -40 610 -40 c 0
EndSplineSet
Refer: 864 63642 S 1 0 0 1 0 0 2
Colour: ff00
EndChar

StartChar: uni0E09
Encoding: 416 3593 131
Width: 710
VWidth: 0
Flags: HMW
LayerCount: 4
Layer: 2
SplineSet
180 315 m 0
 152 315 130 293 130 265 c 0
 130 237 152 215 180 215 c 0
 208 215 230 237 230 265 c 0
 230 293 208 315 180 315 c 0
530 45 m 0
 558 45 580 67 580 95 c 0
 580 123 558 145 530 145 c 0
 502 145 480 123 480 95 c 0
 480 67 502 45 530 45 c 0
180 370 m 0
 251 370 295 320 295 260 c 0
 295 187 255 154 255 110 c 0
 255 80 274 60 310 60 c 0
 395 60 409 169 500 197 c 1
 500 420 l 2
 500 498 431 545 330 545 c 0
 229 545 160 498 160 420 c 1
 70 420 l 1
 70 534 181 620 330 620 c 0
 479 620 590 534 590 420 c 2
 590 190 l 1
 582 188 l 1
 616 171 640 137 640 95 c 0
 640 34 590 -10 530 -10 c 0
 481 -10 442 20 429 64 c 1
 403 26 363 -10 290 -10 c 0
 211 -10 170 35 170 90 c 0
 170 118 180 141 192 161 c 1
 188 160 184 160 180 160 c 0
 120 160 70 204 70 265 c 0
 70 326 120 370 180 370 c 0
EndSplineSet
Validated: 1
Layer: 3
SplineSet
165 295 m 0
 137 295 115 273 115 245 c 0
 115 217 137 195 165 195 c 0
 193 195 215 217 215 245 c 0
 215 273 193 295 165 295 c 0
545 155 m 0
 517 155 495 133 495 105 c 0
 495 77 517 55 545 55 c 0
 573 55 595 77 595 105 c 0
 595 133 573 155 545 155 c 0
165 360 m 0
 244 360 290 308 290 250 c 0
 290 187 270 169 270 125 c 0
 270 93 284 80 310 80 c 0
 363 80 405 165 470 204 c 1
 470 390 l 2
 470 453 419 500 330 500 c 0
 241 500 190 450 190 390 c 1
 40 390 l 1
 40 504 132 620 330 620 c 0
 528 620 620 505 620 390 c 2
 620 210 l 1
 606 206 l 1
 644 188 670 152 670 105 c 0
 670 35 613 -10 545 -10 c 0
 489 -10 440 21 425 71 c 1
 397 31 359 -10 280 -10 c 0
 201 -10 140 31 140 95 c 0
 140 111 143 125 148 136 c 1
 88 142 40 181 40 245 c 0
 40 315 97 360 165 360 c 0
EndSplineSet
Colour: ffff00
EndChar

StartChar: uni0E18
Encoding: 431 3608 132
Width: 680
VWidth: 0
Flags: HMW
LayerCount: 4
Layer: 2
SplineSet
100 240 m 1
 190 240 l 1
 190 90 l 2
 190 77 252 50 335 50 c 0
 436 50 510 88 510 155 c 0
 510 230 422 249 325 275 c 0
 241 297 80 315 80 435 c 0
 80 544 195 620 335 620 c 0
 475 620 590 545 590 420 c 1
 505 420 l 1
 505 491 438 550 335 550 c 0
 232 550 165 498 165 445 c 0
 165 389 264 374 355 350 c 0
 460 322 600 292 600 165 c 0
 600 24 466 -20 335 -20 c 0
 198 -20 100 33 100 80 c 2
 100 240 l 1
EndSplineSet
Validated: 1
Layer: 3
SplineSet
70 240 m 1
 220 240 l 1
 220 121 l 2
 220 104 270 80 340 80 c 0
 436 80 490 107 490 170 c 0
 490 213 449 234 330 265 c 0
 198 300 60 316 60 429 c 0
 60 538 185 620 340 620 c 0
 533 620 630 507 630 400 c 1
 490 400 l 1
 490 471 429 510 340 510 c 0
 254 510 205 469 205 440 c 0
 205 398 284 388 360 370 c 0
 540 328 630 295 630 180 c 0
 630 57 511 -20 340 -20 c 0
 203 -20 70 44 70 90 c 2
 70 240 l 1
EndSplineSet
Colour: ffff00
EndChar

StartChar: uni0E10
Encoding: 423 3600 134
Width: 670
VWidth: 0
Flags: HMW
LayerCount: 4
Layer: 2
SplineSet
170 -195 m 0
 192 -195 210 -177 210 -155 c 0
 210 -133 192 -115 170 -115 c 0
 148 -115 130 -133 130 -155 c 0
 130 -177 148 -195 170 -195 c 0
485 -60 m 1
 560 -60 l 1
 560 -240 l 1
 495 -240 l 1
 387 -160 l 1
 375 -200 329 -260 220 -260 c 0
 126 -260 80 -216 80 -155 c 0
 80 -105 120 -70 170 -70 c 0
 220 -70 260 -105 260 -155 c 0
 260 -177 251 -196 236 -209 c 1
 331 -202 340 -133 340 -80 c 1
 380 -80 l 1
 494 -171 l 1
 490 -162 485 -148 485 -130 c 2
 485 -60 l 1
EndSplineSet
Refer: 868 63646 S 1 0 0 1 0 0 2
Validated: 1
Layer: 3
SplineSet
160 -115 m 0
 141 -115 125 -131 125 -150 c 0
 125 -169 141 -185 160 -185 c 0
 179 -185 195 -169 195 -150 c 0
 195 -131 179 -115 160 -115 c 0
160 -60 m 0
 215 -60 255 -100 255 -150 c 0
 255 -167 250 -182 241 -195 c 1
 312 -189 330 -133 330 -80 c 1
 390 -80 l 1
 479 -156 l 1
 475 -142 470 -123 470 -100 c 2
 470 -60 l 1
 580 -60 l 1
 580 -240 l 1
 480 -240 l 1
 386 -167 l 1
 368 -209 319 -260 220 -260 c 0
 106 -260 60 -211 60 -150 c 0
 60 -100 105 -60 160 -60 c 0
EndSplineSet
Refer: 868 63646 S 1 0 0 1 0 0 2
Colour: ff00
EndChar

StartChar: uni0E0F
Encoding: 422 3599 135
Width: 710
VWidth: 0
Flags: HMW
LayerCount: 4
Layer: 2
SplineSet
205 -195 m 0
 227 -195 245 -177 245 -155 c 0
 245 -133 227 -115 205 -115 c 0
 183 -115 165 -133 165 -155 c 0
 165 -177 183 -195 205 -195 c 0
257 531 m 1
 292 569 354 610 430 610 c 0
 536 610 610 545 610 420 c 2
 610 -240 l 1
 530 -240 l 1
 422 -160 l 1
 410 -200 364 -260 255 -260 c 0
 161 -260 115 -216 115 -155 c 0
 115 -105 155 -70 205 -70 c 0
 255 -70 295 -105 295 -155 c 0
 295 -177 286 -196 271 -209 c 1
 366 -202 375 -133 375 -80 c 1
 415 -80 l 1
 534 -175 l 1
 527 -161 520 -140 520 -110 c 2
 520 420 l 2
 520 489 501 535 410 535 c 0
 336 535 291 499 260 458 c 1
 260 95 l 2
 260 34 210 -10 150 -10 c 0
 90 -10 40 34 40 95 c 0
 40 156 90 200 150 200 c 0
 157 200 164 199 170 198 c 1
 170 402 l 1
 164 401 157 400 150 400 c 0
 90 400 40 444 40 505 c 0
 40 566 90 610 150 610 c 0
 201 610 245 578 257 531 c 1
150 145 m 0
 122 145 100 123 100 95 c 0
 100 67 122 45 150 45 c 0
 178 45 200 67 200 95 c 0
 200 123 178 145 150 145 c 0
150 555 m 0
 122 555 100 533 100 505 c 0
 100 477 122 455 150 455 c 0
 178 455 200 477 200 505 c 0
 200 533 178 555 150 555 c 0
EndSplineSet
Validated: 1
Layer: 3
SplineSet
170 -115 m 0
 151 -115 135 -131 135 -150 c 0
 135 -169 151 -185 170 -185 c 0
 189 -185 205 -169 205 -150 c 0
 205 -131 189 -115 170 -115 c 0
170 -60 m 0
 225 -60 265 -100 265 -150 c 0
 265 -167 260 -182 251 -195 c 1
 322 -189 340 -133 340 -80 c 1
 400 -80 l 1
 492 -153 l 1
 486 -144 480 -130 480 -110 c 2
 480 400 l 2
 480 472 451 500 400 500 c 0
 350 500 310 468 280 430 c 1
 280 300 l 1
 280 105 l 2
 280 35 223 -10 155 -10 c 0
 87 -10 30 35 30 105 c 0
 30 167 75 210 133 218 c 1
 131 224 130 231 130 240 c 2
 130 300 l 1
 130 360 l 2
 130 369 131 376 133 382 c 1
 75 390 30 433 30 495 c 0
 30 565 87 610 155 610 c 0
 214 610 265 576 277 521 c 1
 315 567 373 610 460 610 c 0
 565 610 630 544 630 400 c 2
 630 -240 l 1
 500 -240 l 1
 396 -166 l 1
 378 -208 330 -260 230 -260 c 0
 116 -260 70 -211 70 -150 c 0
 70 -100 115 -60 170 -60 c 0
155 155 m 0
 127 155 105 133 105 105 c 0
 105 77 127 55 155 55 c 0
 183 55 205 77 205 105 c 0
 205 133 183 155 155 155 c 0
155 545 m 0
 127 545 105 523 105 495 c 0
 105 467 127 445 155 445 c 0
 183 445 205 467 205 495 c 0
 205 523 183 545 155 545 c 0
EndSplineSet
Colour: ffff00
EndChar

StartChar: uni0E0E
Encoding: 421 3598 136
Width: 710
VWidth: 0
Flags: HMW
LayerCount: 4
Layer: 2
SplineSet
257 531 m 1
 292 569 354 610 430 610 c 0
 536 610 610 545 610 420 c 2
 610 -240 l 1
 530 -240 l 1
 498 -185 412 -132 319 -126 c 1
 332 -139 340 -155 340 -175 c 0
 340 -225 300 -260 250 -260 c 0
 200 -260 160 -225 160 -175 c 0
 160 -114 213 -70 300 -70 c 0
 400 -70 480 -117 528 -161 c 1
 524 -148 520 -131 520 -110 c 2
 520 420 l 2
 520 489 501 535 410 535 c 0
 336 535 291 499 260 458 c 1
 260 95 l 2
 260 34 210 -10 150 -10 c 0
 90 -10 40 34 40 95 c 0
 40 156 90 200 150 200 c 0
 157 200 164 199 170 198 c 1
 170 402 l 1
 164 401 157 400 150 400 c 0
 90 400 40 444 40 505 c 0
 40 566 90 610 150 610 c 0
 201 610 245 578 257 531 c 1
150 145 m 0
 122 145 100 123 100 95 c 0
 100 67 122 45 150 45 c 0
 178 45 200 67 200 95 c 0
 200 123 178 145 150 145 c 0
150 555 m 0
 122 555 100 533 100 505 c 0
 100 477 122 455 150 455 c 0
 178 455 200 477 200 505 c 0
 200 533 178 555 150 555 c 0
250 -135 m 0
 228 -135 210 -153 210 -175 c 0
 210 -197 228 -215 250 -215 c 0
 272 -215 290 -197 290 -175 c 0
 290 -153 272 -135 250 -135 c 0
EndSplineSet
Validated: 1
Layer: 3
SplineSet
230 -205 m 0
 249 -205 265 -189 265 -170 c 0
 265 -151 249 -135 230 -135 c 0
 211 -135 195 -151 195 -170 c 0
 195 -189 211 -205 230 -205 c 0
133 382 m 1
 75 390 30 433 30 495 c 0
 30 565 87 610 155 610 c 0
 214 610 265 576 277 521 c 1
 315 567 373 610 460 610 c 0
 565 610 630 544 630 400 c 2
 630 -240 l 1
 500 -240 l 1
 472 -200 393 -157 321 -144 c 1
 324 -152 325 -161 325 -170 c 0
 325 -220 285 -260 230 -260 c 0
 175 -260 130 -220 130 -170 c 0
 130 -109 173 -60 260 -60 c 0
 355 -60 437 -98 488 -137 c 1
 484 -128 480 -116 480 -100 c 2
 480 400 l 2
 480 472 451 500 400 500 c 0
 350 500 310 468 280 430 c 1
 280 300 l 1
 280 105 l 2
 280 35 223 -10 155 -10 c 0
 87 -10 30 35 30 105 c 0
 30 167 75 210 133 218 c 1
 131 224 130 231 130 240 c 2
 130 300 l 1
 130 360 l 2
 130 369 131 376 133 382 c 1
155 155 m 0
 127 155 105 133 105 105 c 0
 105 77 127 55 155 55 c 0
 183 55 205 77 205 105 c 0
 205 133 183 155 155 155 c 0
155 545 m 0
 127 545 105 523 105 495 c 0
 105 467 127 445 155 445 c 0
 183 445 205 467 205 495 c 0
 205 523 183 545 155 545 c 0
EndSplineSet
Colour: ffff00
EndChar

StartChar: uni0E47
Encoding: 474 3655 139
Width: 0
VWidth: 0
Flags: HMW
LayerCount: 4
Layer: 2
SplineSet
-210 795 m 0
 -224 795 -235 784 -235 770 c 0
 -235 756 -224 745 -210 745 c 0
 -196 745 -185 756 -185 770 c 0
 -185 784 -196 795 -210 795 c 0
-280 860 m 2
 -400 860 l 2
 -460 860 -470 824 -470 790 c 0
 -470 773 -464 754 -456 738 c 1
 -370 800 l 1
 -340 800 l 1
 -323 742 -299 730 -260 730 c 0
 -257 730 -253 730 -249 730 c 1
 -262 738 -270 752 -270 770 c 0
 -270 803 -243 825 -210 825 c 0
 -177 825 -150 803 -150 770 c 0
 -150 722 -185 680 -260 680 c 0
 -318 680 -354 700 -375 735 c 1
 -435 690 l 1
 -500 690 l 1
 -527 701 -550 761 -550 790 c 0
 -550 864 -500 920 -420 920 c 2
 -290 920 l 2
 -226 920 -210 937 -210 960 c 1
 -130 960 l 1
 -130 897 -195 860 -280 860 c 2
EndSplineSet
Validated: 1
Layer: 3
SplineSet
-190 797 m 0
 -204 797 -215 786 -215 772 c 0
 -215 758 -204 747 -190 747 c 0
 -176 747 -165 758 -165 772 c 0
 -165 786 -176 797 -190 797 c 0
-250 862 m 2
 -370 862 l 2
 -430 862 -440 826 -440 792 c 0
 -440 779 -436 767 -431 756 c 1
 -350 812 l 1
 -305 812 l 1
 -293 771 -274 753 -255 746 c 1
 -259 753 -260 762 -260 772 c 0
 -260 811 -229 837 -190 837 c 0
 -151 837 -120 811 -120 772 c 0
 -120 724 -155 682 -230 682 c 0
 -284 682 -323 706 -345 739 c 1
 -415 692 l 1
 -500 692 l 1
 -517 703 -550 753 -550 802 c 0
 -550 877 -501 937 -410 937 c 2
 -275 937 l 2
 -211 937 -180 941 -180 982 c 1
 -70 982 l 1
 -70 887 -165 862 -250 862 c 2
EndSplineSet
EndChar

StartChar: uni20AD
Encoding: 778 8365 140
Width: 780
VWidth: 0
Flags: HMW
LayerCount: 4
Layer: 2
SplineSet
150 780 m 1
 250 780 l 1
 250 440 l 1
 282 440 l 1
 462 638 532 715 575 780 c 1
 690 780 l 1
 659 731 582 644 397 440 c 1
 620 440 l 1
 620 380 l 1
 401 380 l 1
 601 185 655 115 740 0 c 1
 620 0 l 1
 557 94 489 169 284 380 c 1
 250 380 l 1
 250 0 l 1
 150 0 l 1
 150 380 l 1
 70 380 l 1
 70 440 l 1
 150 440 l 1
 150 780 l 1
EndSplineSet
Validated: 1
Layer: 3
SplineSet
100 780 m 1
 260 780 l 1
 260 457 l 1
 383 599 487 704 530 780 c 1
 730 780 l 1
 668 703 507 530 438 455 c 1
 640 455 l 1
 640 380 l 1
 445 380 l 1
 514 310 658 156 760 0 c 1
 560 0 l 1
 476 136 366 266 260 375 c 1
 260 0 l 1
 100 0 l 1
 100 380 l 1
 20 380 l 1
 20 455 l 1
 100 455 l 1
 100 780 l 1
EndSplineSet
Colour: ff00
EndChar

StartChar: uni0ED0
Encoding: 548 3792 141
Width: 770
VWidth: 0
Flags: HMW
LayerCount: 4
Layer: 2
SplineSet
385 620 m 0
 578 620 690 477 690 300 c 0
 690 123 578 -20 385 -20 c 0
 192 -20 80 123 80 300 c 0
 80 477 192 620 385 620 c 0
385 535 m 0
 254 535 180 435 180 300 c 0
 180 165 254 65 385 65 c 0
 516 65 590 165 590 300 c 0
 590 435 516 535 385 535 c 0
EndSplineSet
Validated: 1
Layer: 3
SplineSet
720 300 m 0
 720 123 597 -20 385 -20 c 0
 173 -20 50 123 50 300 c 0
 50 477 173 620 385 620 c 0
 597 620 720 477 720 300 c 0
560 300 m 0
 560 418 497 505 385 505 c 0
 273 505 210 418 210 300 c 0
 210 182 273 95 385 95 c 0
 497 95 560 182 560 300 c 0
EndSplineSet
EndChar

StartChar: uni0ED1
Encoding: 549 3793 142
Width: 760
VWidth: 0
Flags: HMW
LayerCount: 4
Layer: 2
SplineSet
275 275 m 0
 247 275 225 253 225 225 c 0
 225 197 247 175 275 175 c 0
 303 175 325 197 325 225 c 0
 325 253 303 275 275 275 c 0
275 330 m 0
 335 330 385 286 385 225 c 0
 385 164 335 120 275 120 c 0
 154 120 75 198 75 300 c 0
 75 477 201 620 380 620 c 0
 573 620 685 477 685 300 c 0
 685 123 567 -5 380 -40 c 1
 355 45 l 1
 501 77 585 165 585 300 c 0
 585 435 511 535 380 535 c 0
 263 535 165 435 165 300 c 0
 165 287 168 270 175 253 c 1
 187 298 226 330 275 330 c 0
EndSplineSet
Validated: 1
Layer: 3
SplineSet
230 285 m 0
 202 285 180 263 180 235 c 0
 180 207 202 185 230 185 c 0
 258 185 280 207 280 235 c 0
 280 263 258 285 230 285 c 0
230 350 m 0
 298 350 355 305 355 235 c 0
 355 165 298 120 230 120 c 0
 123 120 50 201 50 300 c 0
 50 477 163 620 375 620 c 0
 587 620 710 477 710 300 c 0
 710 123 600 -32 375 -70 c 1
 340 60 l 1
 486 92 550 165 550 300 c 0
 550 418 487 505 375 505 c 0
 278 505 210 440 194 346 c 1
 205 348 217 350 230 350 c 0
EndSplineSet
EndChar

StartChar: uni0ED2
Encoding: 550 3794 143
Width: 760
VWidth: 0
Flags: HMW
LayerCount: 4
Layer: 2
SplineSet
540 225 m 0
 568 225 590 247 590 275 c 0
 590 303 568 325 540 325 c 0
 512 325 490 303 490 275 c 0
 490 247 512 225 540 225 c 0
540 170 m 0
 480 170 430 214 430 275 c 0
 430 336 480 380 540 380 c 0
 630 380 680 318 680 220 c 0
 680 116 597 -20 400 -20 c 0
 207 -20 80 103 80 280 c 0
 80 457 198 575 385 610 c 1
 531 642 600 705 600 840 c 1
 690 840 l 1
 690 663 597 565 410 530 c 1
 264 498 175 415 175 280 c 0
 175 145 266 60 400 60 c 0
 518 60 584 128 597 187 c 1
 581 176 561 170 540 170 c 0
EndSplineSet
Validated: 1
Layer: 3
SplineSet
560 315 m 0
 532 315 510 293 510 265 c 0
 510 237 532 215 560 215 c 0
 588 215 610 237 610 265 c 0
 610 293 588 315 560 315 c 0
571 150 m 1
 567 150 564 150 560 150 c 0
 492 150 435 195 435 265 c 0
 435 335 492 380 560 380 c 0
 630 380 710 334 710 220 c 0
 710 90 588 -20 395 -20 c 0
 173 -20 50 123 50 300 c 0
 50 477 198 595 385 630 c 1
 531 662 570 705 570 840 c 1
 720 840 l 1
 720 663 638 552 410 510 c 1
 264 478 205 401 205 300 c 0
 205 160 302 95 415 95 c 0
 483 95 539 119 571 150 c 1
EndSplineSet
EndChar

StartChar: uni0ED3
Encoding: 551 3795 144
Width: 710
VWidth: 0
Flags: HMW
LayerCount: 4
Layer: 2
SplineSet
150 45 m 0
 178 45 200 67 200 95 c 0
 200 123 178 145 150 145 c 0
 122 145 100 123 100 95 c 0
 100 67 122 45 150 45 c 0
140 500 m 1
 237 500 260 450 260 390 c 2
 260 134 l 1
 291 96 336 65 410 65 c 0
 501 65 520 111 520 180 c 2
 520 400 l 2
 520 463 473 505 360 535 c 0
 235 569 140 615 140 720 c 0
 140 786 201 860 330 860 c 0
 434 860 516 789 557 731 c 1
 553 745 550 761 550 780 c 2
 550 840 l 1
 610 840 l 1
 610 630 l 1
 560 630 l 1
 546 677 458 790 330 790 c 0
 258 790 220 761 220 720 c 0
 220 679 232 649 379 605 c 0
 538 557 610 513 610 400 c 2
 610 180 l 2
 610 55 536 -10 430 -10 c 0
 352 -10 290 27 255 63 c 1
 241 19 199 -10 150 -10 c 0
 90 -10 40 34 40 95 c 0
 40 156 90 200 150 200 c 0
 157 200 164 199 170 198 c 1
 170 390 l 2
 170 421 161 435 140 435 c 1
 140 500 l 1
EndSplineSet
Validated: 1
Layer: 3
SplineSet
550 840 m 1
 640 840 l 1
 640 630 l 1
 550 630 l 1
 536 677 449 770 340 770 c 0
 272 770 230 738 230 700 c 0
 230 658 297 639 410 605 c 0
 584 553 640 516 640 390 c 2
 640 200 l 2
 640 56 575 -10 470 -10 c 0
 383 -10 325 33 287 79 c 1
 275 24 224 -10 165 -10 c 0
 97 -10 40 35 40 105 c 0
 40 167 85 210 143 218 c 1
 141 224 140 231 140 240 c 2
 140 350 l 2
 140 398 136 410 110 410 c 1
 110 500 l 1
 254 500 290 455 290 350 c 2
 290 170 l 1
 320 132 360 100 410 100 c 0
 461 100 490 128 490 200 c 2
 490 390 l 2
 490 451 481 477 340 515 c 0
 237 543 110 589 110 690 c 0
 110 780 198 860 340 860 c 0
 448 860 521 792 559 735 c 1
 554 748 550 764 550 780 c 2
 550 840 l 1
165 155 m 0
 137 155 115 133 115 105 c 0
 115 77 137 55 165 55 c 0
 193 55 215 77 215 105 c 0
 215 133 193 155 165 155 c 0
EndSplineSet
Colour: ffff00
EndChar

StartChar: uni0ED6
Encoding: 554 3798 145
Width: 800
VWidth: 0
Flags: HMW
LayerCount: 4
Layer: 2
SplineSet
240 500 m 0
 300 500 350 456 350 395 c 0
 350 334 300 295 240 295 c 0
 216 295 195 303 180 317 c 1
 180 150 l 2
 180 102 213 65 265 65 c 0
 317 65 350 98 350 150 c 2
 350 270 l 1
 440 270 l 1
 440 150 l 2
 440 98 473 65 525 65 c 0
 577 65 610 102 610 150 c 2
 610 400 l 2
 610 463 563 505 450 535 c 0
 325 569 230 615 230 720 c 0
 230 786 291 860 420 860 c 0
 524 860 606 789 647 731 c 1
 643 745 640 761 640 780 c 2
 640 840 l 1
 700 840 l 1
 700 630 l 1
 650 630 l 1
 636 677 548 790 420 790 c 0
 348 790 310 761 310 720 c 0
 310 679 322 649 469 605 c 0
 628 557 700 513 700 400 c 2
 700 150 l 2
 700 47 632 -10 525 -10 c 0
 461 -10 419 22 395 61 c 1
 371 22 329 -10 265 -10 c 0
 158 -10 90 47 90 150 c 2
 90 340 l 2
 90 417 132 500 240 500 c 0
240 445 m 0
 212 445 190 423 190 395 c 0
 190 367 212 345 240 345 c 0
 268 345 290 367 290 395 c 0
 290 423 268 445 240 445 c 0
EndSplineSet
Validated: 1
Layer: 3
SplineSet
640 840 m 1
 730 840 l 1
 730 630 l 1
 640 630 l 1
 626 677 539 770 430 770 c 0
 362 770 320 738 320 700 c 0
 320 658 387 639 500 605 c 0
 674 553 730 516 730 390 c 2
 730 150 l 2
 730 49 654 -10 540 -10 c 0
 483 -10 429 14 395 54 c 1
 361 14 307 -10 250 -10 c 0
 136 -10 60 49 60 150 c 2
 60 340 l 2
 60 417 102 500 210 500 c 0
 278 500 335 455 335 385 c 0
 335 315 278 275 210 275 c 2
 203 275 l 1
 207 265 210 253 210 240 c 2
 210 150 l 2
 210 115 244 100 270 100 c 0
 296 100 330 115 330 150 c 2
 330 270 l 1
 460 270 l 1
 460 150 l 2
 460 115 494 100 520 100 c 0
 546 100 580 115 580 150 c 2
 580 390 l 2
 580 451 571 477 430 515 c 0
 327 543 200 589 200 690 c 0
 200 780 288 860 430 860 c 0
 538 860 611 792 649 735 c 1
 644 748 640 764 640 780 c 2
 640 840 l 1
210 335 m 0
 238 335 260 357 260 385 c 0
 260 413 238 435 210 435 c 0
 182 435 160 413 160 385 c 0
 160 357 182 335 210 335 c 0
EndSplineSet
Colour: ffff00
EndChar

StartChar: uni0ED9
Encoding: 557 3801 146
Width: 810
VWidth: 0
Flags: HMW
LayerCount: 4
Layer: 2
SplineSet
200 145 m 0
 172 145 150 123 150 95 c 0
 150 67 172 45 200 45 c 0
 228 45 250 67 250 95 c 0
 250 123 228 145 200 145 c 0
200 200 m 0
 260 200 310 156 310 95 c 0
 310 34 260 -10 200 -10 c 0
 140 -10 90 34 90 95 c 2
 90 470 l 2
 90 559 166 610 275 610 c 0
 384 610 460 559 460 470 c 2
 460 300 l 1
 460 130 l 2
 460 85 503 65 545 65 c 0
 587 65 630 85 630 130 c 2
 630 600 l 1
 720 600 l 1
 720 130 l 2
 720 41 650 -10 545 -10 c 0
 440 -10 370 41 370 130 c 2
 370 300 l 1
 370 470 l 2
 370 515 325 535 275 535 c 0
 225 535 180 515 180 470 c 2
 180 198 l 1
 186 199 193 200 200 200 c 0
EndSplineSet
Validated: 1
Layer: 3
SplineSet
185 155 m 0
 157 155 135 133 135 105 c 0
 135 77 157 55 185 55 c 0
 213 55 235 77 235 105 c 0
 235 133 213 155 185 155 c 0
600 600 m 1
 750 600 l 1
 750 150 l 2
 750 52 655 -10 545 -10 c 0
 435 -10 350 52 350 150 c 2
 350 450 l 2
 350 486 318 500 280 500 c 0
 242 500 210 486 210 450 c 2
 210 250 l 2
 210 237 207 226 204 219 c 1
 264 211 310 168 310 105 c 0
 310 35 253 -10 185 -10 c 0
 117 -10 60 35 60 105 c 2
 60 450 l 2
 60 548 151 610 275 610 c 0
 399 610 480 548 480 450 c 2
 480 150 l 2
 480 114 513 100 540 100 c 0
 567 100 600 114 600 150 c 2
 600 600 l 1
EndSplineSet
Colour: ffff00
EndChar

StartChar: uni0ED8
Encoding: 556 3800 147
Width: 700
VWidth: 0
Flags: HMW
LayerCount: 4
Layer: 2
SplineSet
250 300 m 0
 310 300 360 256 360 195 c 0
 360 134 310 90 250 90 c 0
 153 90 90 163 90 260 c 2
 90 420 l 2
 90 551 205 620 235 620 c 1
 350 525 l 1
 465 620 l 1
 495 620 610 551 610 420 c 2
 610 100 l 2
 610 -13 520 -34 400 -70 c 0
 287 -104 225 -122 225 -160 c 0
 225 -187 251 -200 280 -200 c 0
 379 -200 434 -50 540 -50 c 0
 600 -50 650 -94 650 -155 c 0
 650 -216 600 -260 540 -260 c 0
 483 -260 440 -221 435 -165 c 1
 407 -196 368 -260 270 -260 c 0
 212 -260 140 -234 140 -160 c 0
 140 -64 267 -34 370 -5 c 0
 483 27 520 41 520 100 c 2
 520 420 l 2
 520 459 508 509 465 540 c 1
 350 450 l 1
 235 540 l 1
 192 509 180 459 180 420 c 2
 180 273 l 1
 198 290 223 300 250 300 c 0
250 245 m 0
 222 245 200 223 200 195 c 0
 200 167 222 145 250 145 c 0
 278 145 300 167 300 195 c 0
 300 223 278 245 250 245 c 0
540 -105 m 0
 512 -105 490 -127 490 -155 c 0
 490 -183 512 -205 540 -205 c 0
 568 -205 590 -183 590 -155 c 0
 590 -127 568 -105 540 -105 c 0
EndSplineSet
Validated: 1
Layer: 3
SplineSet
545 -95 m 0
 517 -95 495 -117 495 -145 c 0
 495 -173 517 -195 545 -195 c 0
 573 -195 595 -173 595 -145 c 0
 595 -117 573 -95 545 -95 c 0
240 330 m 0
 308 330 365 285 365 215 c 0
 365 145 308 100 240 100 c 0
 136 100 60 168 60 270 c 2
 60 390 l 2
 60 552 174 620 235 620 c 1
 340 525 l 1
 445 620 l 1
 506 620 630 552 630 390 c 2
 630 100 l 2
 630 31 605 -6 557 -30 c 1
 619 -35 670 -79 670 -145 c 0
 670 -215 613 -260 545 -260 c 0
 484 -260 432 -224 422 -166 c 1
 389 -205 341 -260 260 -260 c 0
 176 -260 100 -214 100 -140 c 0
 100 -11 257 3 360 20 c 0
 443 34 480 52 480 100 c 2
 480 390 l 2
 480 460 470 492 445 510 c 1
 340 420 l 1
 235 510 l 1
 210 492 200 460 200 390 c 2
 200 350 l 2
 200 341 198 329 196 318 c 1
 209 325 223 330 240 330 c 0
240 265 m 0
 212 265 190 243 190 215 c 0
 190 187 212 165 240 165 c 0
 268 165 290 187 290 215 c 0
 290 243 268 265 240 265 c 0
444 -65 m 1
 427 -68 409 -72 390 -75 c 0
 277 -96 220 -109 220 -140 c 0
 220 -164 241 -175 270 -175 c 0
 337 -175 382 -108 444 -65 c 1
EndSplineSet
Colour: ffff00
EndChar

StartChar: uni0ED4
Encoding: 552 3796 148
Width: 770
VWidth: 0
Flags: HMW
LayerCount: 4
Layer: 2
SplineSet
560 245 m 0
 588 245 610 267 610 295 c 0
 610 323 588 345 560 345 c 0
 532 345 510 323 510 295 c 0
 510 267 532 245 560 245 c 0
605 840 m 1
 690 840 l 1
 690 663 597 572 410 535 c 0
 263 506 170 415 170 280 c 0
 170 145 266 70 400 70 c 2
 497 70 l 1
 444 118 420 184 420 240 c 0
 420 338 470 400 560 400 c 0
 620 400 670 356 670 295 c 0
 670 234 620 190 560 190 c 0
 539 190 519 196 503 207 c 1
 516 148 582 80 700 80 c 1
 700 70 l 1
 700 0 l 1
 400 0 l 2
 207 0 80 103 80 280 c 0
 80 457 198 568 385 605 c 0
 532 634 605 705 605 840 c 1
EndSplineSet
Validated: 1
Layer: 3
SplineSet
570 345 m 0
 542 345 520 323 520 295 c 0
 520 267 542 245 570 245 c 0
 598 245 620 267 620 295 c 0
 620 323 598 345 570 345 c 0
50 300 m 0
 50 477 198 595 385 630 c 1
 531 662 570 705 570 840 c 1
 720 840 l 1
 720 663 638 552 410 510 c 1
 264 478 205 401 205 300 c 0
 205 160 302 115 415 115 c 2
 469 115 l 1
 436 161 420 215 420 260 c 0
 420 349 481 410 570 410 c 0
 638 410 695 365 695 295 c 0
 695 225 638 180 570 180 c 0
 559 180 548 181 538 184 c 1
 551 152 581 126 638 115 c 1
 730 115 l 1
 730 0 l 1
 395 0 l 2
 173 0 50 123 50 300 c 0
EndSplineSet
Colour: ffff00
EndChar

StartChar: uni0ED5
Encoding: 553 3797 149
Width: 770
VWidth: 0
Flags: HMW
LayerCount: 4
Layer: 2
SplineSet
605 840 m 1
 690 840 l 1
 690 663 597 572 410 535 c 0
 263 506 170 415 170 280 c 0
 170 145 266 70 400 70 c 2
 497 70 l 1
 444 118 420 184 420 240 c 0
 420 338 470 400 560 400 c 0
 620 400 670 356 670 295 c 0
 670 234 620 190 560 190 c 0
 539 190 519 196 503 207 c 1
 516 148 582 80 700 80 c 1
 700 70 l 1
 700 0 l 1
 400 0 l 2
 207 0 80 103 80 280 c 0
 80 429 164 531 302 582 c 1
 276 601 260 630 260 665 c 0
 260 726 310 770 370 770 c 0
 430 770 480 726 480 665 c 0
 480 653 478 642 475 632 c 1
 562 670 605 736 605 840 c 1
560 245 m 0
 588 245 610 267 610 295 c 0
 610 323 588 345 560 345 c 0
 532 345 510 323 510 295 c 0
 510 267 532 245 560 245 c 0
370 715 m 0
 342 715 320 693 320 665 c 0
 320 637 342 615 370 615 c 0
 398 615 420 637 420 665 c 0
 420 693 398 715 370 715 c 0
EndSplineSet
Validated: 1
Layer: 3
SplineSet
355 725 m 0
 327 725 305 703 305 675 c 0
 305 647 327 625 355 625 c 0
 383 625 405 647 405 675 c 0
 405 703 383 725 355 725 c 0
355 790 m 0
 423 790 480 745 480 675 c 0
 480 669 480 664 479 659 c 1
 549 691 570 740 570 840 c 1
 720 840 l 1
 720 663 638 552 410 510 c 1
 264 478 205 401 205 300 c 0
 205 160 302 115 415 115 c 2
 469 115 l 1
 436 161 420 215 420 260 c 0
 420 349 481 410 570 410 c 0
 638 410 695 365 695 295 c 0
 695 225 638 180 570 180 c 0
 559 180 548 181 538 184 c 1
 551 152 581 126 638 115 c 1
 730 115 l 1
 730 0 l 1
 395 0 l 2
 173 0 50 123 50 300 c 0
 50 437 138 538 265 593 c 1
 243 613 230 641 230 675 c 0
 230 745 287 790 355 790 c 0
570 345 m 0
 542 345 520 323 520 295 c 0
 520 267 542 245 570 245 c 0
 598 245 620 267 620 295 c 0
 620 323 598 345 570 345 c 0
EndSplineSet
Colour: ffff00
EndChar

StartChar: uni0E53
Encoding: 486 3667 154
Width: 790
VWidth: 0
Flags: HMW
LayerCount: 4
Layer: 2
SplineSet
240 45 m 0
 268 45 290 67 290 95 c 0
 290 123 268 145 240 145 c 0
 212 145 190 123 190 95 c 0
 190 67 212 45 240 45 c 0
240 -10 m 0
 132 -10 90 73 90 150 c 2
 90 450 l 2
 90 553 158 610 265 610 c 0
 329 610 371 578 395 539 c 1
 419 578 461 610 525 610 c 0
 632 610 700 553 700 450 c 2
 700 0 l 1
 610 0 l 1
 610 450 l 2
 610 498 577 535 525 535 c 0
 473 535 440 502 440 450 c 2
 440 300 l 1
 350 300 l 1
 350 450 l 2
 350 502 317 535 265 535 c 0
 213 535 180 498 180 450 c 2
 180 173 l 1
 195 187 216 195 240 195 c 0
 300 195 350 156 350 95 c 0
 350 34 300 -10 240 -10 c 0
EndSplineSet
Validated: 1
Layer: 3
SplineSet
210 155 m 0
 182 155 160 133 160 105 c 0
 160 77 182 55 210 55 c 0
 238 55 260 77 260 105 c 0
 260 133 238 155 210 155 c 0
203 215 m 1
 206 215 208 215 210 215 c 0
 278 215 335 175 335 105 c 0
 335 35 278 -10 210 -10 c 0
 102 -10 60 73 60 150 c 2
 60 450 l 2
 60 551 136 610 250 610 c 0
 307 610 361 586 395 546 c 1
 429 586 483 610 540 610 c 0
 654 610 730 551 730 450 c 2
 730 0 l 1
 580 0 l 1
 580 450 l 2
 580 485 546 500 520 500 c 0
 494 500 460 485 460 450 c 2
 460 270 l 1
 330 270 l 1
 330 450 l 2
 330 485 296 500 270 500 c 0
 244 500 210 485 210 450 c 2
 210 250 l 2
 210 237 207 225 203 215 c 1
EndSplineSet
Colour: ffff00
EndChar

StartChar: uni0E56
Encoding: 489 3670 155
Width: 760
VWidth: 0
Flags: HMW
LayerCount: 4
Layer: 2
SplineSet
220 225 m 0
 248 225 270 247 270 275 c 0
 270 303 248 325 220 325 c 0
 192 325 170 303 170 275 c 0
 170 247 192 225 220 225 c 0
163 187 m 1
 176 128 242 60 360 60 c 0
 494 60 585 145 585 280 c 0
 585 415 496 498 350 530 c 1
 163 565 70 663 70 840 c 1
 160 840 l 1
 160 705 229 642 375 610 c 1
 562 575 680 457 680 280 c 0
 680 103 553 -20 360 -20 c 0
 163 -20 80 116 80 220 c 0
 80 318 130 380 220 380 c 0
 280 380 330 336 330 275 c 0
 330 214 280 170 220 170 c 0
 199 170 179 176 163 187 c 1
EndSplineSet
Validated: 1
Layer: 3
SplineSet
200 315 m 0
 172 315 150 293 150 265 c 0
 150 237 172 215 200 215 c 0
 228 215 250 237 250 265 c 0
 250 293 228 315 200 315 c 0
189 150 m 1
 221 119 277 95 345 95 c 0
 458 95 555 160 555 300 c 0
 555 401 496 478 350 510 c 1
 122 552 40 663 40 840 c 1
 190 840 l 1
 190 705 229 662 375 630 c 1
 562 595 710 477 710 300 c 0
 710 123 587 -20 365 -20 c 0
 172 -20 50 90 50 220 c 0
 50 334 130 380 200 380 c 0
 268 380 325 335 325 265 c 0
 325 195 268 150 200 150 c 0
 196 150 193 150 189 150 c 1
EndSplineSet
EndChar

StartChar: uni0E57
Encoding: 490 3671 156
Width: 1010
VWidth: 0
Flags: HMW
LayerCount: 4
Layer: 2
SplineSet
240 -10 m 0
 132 -10 90 73 90 150 c 2
 90 450 l 2
 90 553 158 610 265 610 c 0
 329 610 371 578 395 539 c 1
 419 578 461 610 525 610 c 0
 632 610 700 553 700 450 c 2
 700 130 l 2
 700 85 727 65 765 65 c 0
 803 65 830 85 830 130 c 2
 830 600 l 1
 920 600 l 1
 920 130 l 2
 920 41 863 -10 765 -10 c 0
 667 -10 610 41 610 130 c 2
 610 450 l 2
 610 498 577 535 525 535 c 0
 473 535 440 502 440 450 c 2
 440 300 l 1
 350 300 l 1
 350 450 l 2
 350 502 317 535 265 535 c 0
 213 535 180 498 180 450 c 2
 180 173 l 1
 195 187 216 195 240 195 c 0
 300 195 350 156 350 95 c 0
 350 34 300 -10 240 -10 c 0
240 45 m 0
 268 45 290 67 290 95 c 0
 290 123 268 145 240 145 c 0
 212 145 190 123 190 95 c 0
 190 67 212 45 240 45 c 0
EndSplineSet
Validated: 1
Layer: 3
SplineSet
203 215 m 1
 210 215 l 2
 278 215 335 175 335 105 c 0
 335 35 278 -10 210 -10 c 0
 102 -10 60 73 60 150 c 2
 60 450 l 2
 60 551 136 610 250 610 c 0
 307 610 361 586 395 546 c 1
 429 586 483 610 540 610 c 0
 654 610 710 551 710 450 c 2
 710 150 l 2
 710 114 728 100 755 100 c 0
 782 100 800 114 800 150 c 2
 800 600 l 1
 950 600 l 1
 950 150 l 2
 950 52 870 -10 760 -10 c 0
 650 -10 580 52 580 150 c 2
 580 450 l 2
 580 485 546 500 520 500 c 0
 494 500 460 485 460 450 c 2
 460 270 l 1
 330 270 l 1
 330 450 l 2
 330 485 296 500 270 500 c 0
 244 500 210 485 210 450 c 2
 210 250 l 2
 210 237 207 225 203 215 c 1
210 155 m 0
 182 155 160 133 160 105 c 0
 160 77 182 55 210 55 c 0
 238 55 260 77 260 105 c 0
 260 133 238 155 210 155 c 0
EndSplineSet
Colour: ffff00
EndChar

StartChar: uni0E59
Encoding: 492 3673 157
Width: 790
VWidth: 0
Flags: HMW
LayerCount: 4
Layer: 2
SplineSet
240 45 m 0
 268 45 290 67 290 95 c 0
 290 123 268 145 240 145 c 0
 212 145 190 123 190 95 c 0
 190 67 212 45 240 45 c 0
700 840 m 1
 700 300 l 1
 610 300 l 1
 610 450 l 2
 610 502 577 535 525 535 c 0
 473 535 440 502 440 450 c 1
 555 0 l 1
 465 0 l 1
 350 450 l 1
 340 485 323 535 265 535 c 0
 213 535 180 498 180 450 c 2
 180 173 l 1
 195 187 216 195 240 195 c 0
 300 195 350 156 350 95 c 0
 350 34 300 -10 240 -10 c 0
 132 -10 90 73 90 150 c 2
 90 450 l 2
 90 553 158 610 265 610 c 0
 327 610 371 581 398 543 c 1
 422 581 463 610 525 610 c 0
 560 610 588 601 610 586 c 1
 610 840 l 1
 700 840 l 1
EndSplineSet
Validated: 1
Layer: 3
SplineSet
210 155 m 0
 182 155 160 133 160 105 c 0
 160 77 182 55 210 55 c 0
 238 55 260 77 260 105 c 0
 260 133 238 155 210 155 c 0
210 215 m 0
 278 215 335 175 335 105 c 0
 335 35 278 -10 210 -10 c 0
 102 -10 60 73 60 150 c 2
 60 450 l 2
 60 551 136 610 250 610 c 0
 304 610 356 589 390 552 c 1
 417 589 461 610 515 610 c 0
 548 610 577 600 600 585 c 1
 600 840 l 1
 730 840 l 1
 730 300 l 1
 600 300 l 1
 600 450 l 2
 600 485 564 500 530 500 c 0
 496 500 460 485 460 450 c 1
 570 0 l 1
 440 0 l 1
 330 450 l 2
 320 490 299 500 270 500 c 0
 244 500 210 485 210 450 c 2
 210 250 l 2
 210 237 207 225 203 215 c 1
 206 215 208 215 210 215 c 0
EndSplineSet
Colour: ffff00
EndChar

StartChar: uni0E52
Encoding: 485 3666 158
Width: 870
VWidth: 0
Flags: HMW
LayerCount: 4
Layer: 2
SplineSet
435 305 m 0
 407 305 385 283 385 255 c 0
 385 227 407 205 435 205 c 0
 463 205 485 227 485 255 c 0
 485 283 463 305 435 305 c 0
435 360 m 0
 495 360 545 316 545 255 c 0
 545 194 495 150 435 150 c 0
 338 150 280 223 280 320 c 2
 280 420 l 2
 280 551 390 620 420 620 c 1
 530 525 l 1
 640 620 l 1
 670 620 780 551 780 420 c 2
 780 170 l 2
 780 34 627 -20 440 -20 c 0
 253 -20 100 34 100 170 c 2
 100 840 l 1
 190 840 l 1
 190 170 l 2
 190 105 278 55 440 55 c 0
 602 55 695 105 695 170 c 2
 695 420 l 2
 695 459 683 509 640 540 c 1
 530 450 l 1
 420 540 l 1
 377 509 365 459 365 420 c 2
 365 333 l 1
 383 350 408 360 435 360 c 0
EndSplineSet
Validated: 1
Layer: 3
SplineSet
450 325 m 0
 422 325 400 303 400 275 c 0
 400 247 422 225 450 225 c 0
 478 225 500 247 500 275 c 0
 500 303 478 325 450 325 c 0
450 390 m 0
 518 390 575 345 575 275 c 0
 575 205 518 160 450 160 c 0
 346 160 270 228 270 330 c 2
 270 440 l 2
 270 548 384 620 445 620 c 1
 540 525 l 1
 635 620 l 1
 696 620 810 548 810 440 c 2
 810 170 l 2
 810 34 627 -20 440 -20 c 0
 253 -20 70 34 70 170 c 2
 70 840 l 1
 210 840 l 1
 210 200 l 2
 210 135 278 95 440 95 c 0
 602 95 670 135 670 200 c 2
 670 440 l 2
 670 468 660 492 635 510 c 1
 540 420 l 1
 445 510 l 1
 420 492 410 468 410 440 c 2
 410 410 l 2
 410 401 408 389 406 378 c 1
 419 385 433 390 450 390 c 0
EndSplineSet
Colour: ffff00
EndChar

StartChar: uni0E58
Encoding: 491 3672 159
Width: 800
VWidth: 0
Flags: HMW
LayerCount: 4
Layer: 2
SplineSet
590 225 m 0
 618 225 640 247 640 275 c 0
 640 303 618 325 590 325 c 0
 562 325 540 303 540 275 c 0
 540 247 562 225 590 225 c 0
590 170 m 0
 530 170 480 214 480 275 c 0
 480 336 530 380 590 380 c 0
 680 380 730 307 730 220 c 0
 730 122 680 -10 545 -10 c 0
 456 -10 404 39 379 103 c 1
 320 0 l 1
 240 0 l 1
 155 49 80 144 80 280 c 0
 80 457 198 575 385 610 c 1
 531 642 600 705 600 840 c 1
 690 840 l 1
 690 663 597 565 410 530 c 1
 264 498 175 415 175 280 c 0
 175 197 225 124 283 74 c 1
 360 210 l 1
 440 210 l 1
 440 161 464 71 545 71 c 0
 615 71 642 138 649 188 c 1
 632 177 612 170 590 170 c 0
EndSplineSet
Validated: 1
Layer: 3
SplineSet
615 315 m 0
 587 315 565 293 565 265 c 0
 565 237 587 215 615 215 c 0
 643 215 665 237 665 265 c 0
 665 293 643 315 615 315 c 0
382 101 m 1
 320 0 l 1
 190 0 l 1
 132 58 50 130 50 300 c 0
 50 477 198 595 385 630 c 1
 531 662 570 705 570 840 c 1
 720 840 l 1
 720 663 638 552 410 510 c 1
 264 478 205 401 205 300 c 0
 205 204 237 150 271 114 c 1
 345 220 l 1
 455 220 l 1
 455 171 479 91 560 91 c 0
 616 91 638 124 646 158 c 1
 636 156 626 155 615 155 c 0
 547 155 490 195 490 265 c 0
 490 335 547 380 615 380 c 0
 705 380 760 307 760 220 c 0
 760 98 701 -10 560 -10 c 0
 468 -10 411 38 382 101 c 1
EndSplineSet
EndChar

StartChar: uni0E3F
Encoding: 466 3647 160
Width: 750
VWidth: 0
Flags: HMW
LayerCount: 4
Layer: 2
SplineSet
310 900 m 1
 380 900 l 1
 380 778 l 1
 512 766 600 693 600 585 c 0
 600 515 553 464 490 433 c 1
 606 404 680 337 680 230 c 0
 680 78 556 0 420 0 c 2
 380 0 l 1
 380 -120 l 1
 310 -120 l 1
 310 0 l 1
 200 0 l 2
 148 0 110 28 110 90 c 2
 110 780 l 1
 310 780 l 1
 310 900 l 1
310 390 m 1
 210 390 l 1
 210 110 l 2
 210 87 217 80 240 80 c 2
 310 80 l 1
 310 390 l 1
310 460 m 1
 310 705 l 1
 210 705 l 1
 210 460 l 1
 310 460 l 1
380 703 m 1
 380 463 l 1
 448 475 500 518 500 575 c 0
 500 652 452 694 380 703 c 1
380 388 m 1
 380 80 l 1
 400 80 l 2
 506 80 575 127 575 220 c 0
 575 323 489 378 380 388 c 1
EndSplineSet
Validated: 1
Layer: 3
SplineSet
270 900 m 1
 390 900 l 1
 390 777 l 1
 528 761 620 676 620 570 c 0
 620 504 584 455 532 424 c 1
 638 388 700 315 700 220 c 0
 700 85 597 0 430 0 c 2
 390 0 l 1
 390 -120 l 1
 270 -120 l 1
 270 0 l 1
 230 0 l 2
 111 0 70 43 70 160 c 2
 70 780 l 1
 270 780 l 1
 270 900 l 1
290 120 m 2
 430 120 l 2
 499 120 540 167 540 220 c 0
 540 295 479 350 360 350 c 2
 230 350 l 1
 230 180 l 2
 230 128 238 120 290 120 c 2
230 470 m 1
 360 470 l 2
 411 470 460 499 460 560 c 0
 460 621 415 660 350 660 c 2
 230 660 l 1
 230 470 l 1
EndSplineSet
Colour: ff00
EndChar

StartChar: uni0E4E
Encoding: 481 3662 165
Width: 0
VWidth: 0
Flags: HMW
LayerCount: 4
Layer: 2
SplineSet
-280 1054 m 0
 -214 1054 -160 1003 -160 937 c 1
 -220 937 l 1
 -220 970 -247 997 -280 997 c 0
 -313 997 -340 970 -340 937 c 0
 -340 904 -313 877 -280 877 c 1
 -280 820 l 1
 -314 820 -345 833 -367 856 c 1
 -371 856 -375 857 -380 857 c 0
 -413 857 -440 830 -440 797 c 0
 -440 764 -413 737 -380 737 c 0
 -363 737 -348 744 -338 755 c 1
 -295 712 l 1
 -317 690 -347 680 -380 680 c 0
 -446 680 -500 731 -500 797 c 0
 -500 857 -455 905 -398 913 c 1
 -399 921 -400 929 -400 937 c 0
 -400 1003 -346 1054 -280 1054 c 0
EndSplineSet
Validated: 1
Layer: 3
SplineSet
-150 975 m 1
 -240 975 l 1
 -240 1008 -267 1035 -300 1035 c 0
 -333 1035 -360 1008 -360 975 c 0
 -360 942 -333 915 -300 915 c 1
 -300 840 l 1
 -337 840 -371 852 -398 872 c 1
 -422 865 -440 842 -440 815 c 0
 -440 782 -413 755 -380 755 c 0
 -363 755 -348 762 -338 773 c 1
 -274 720 l 1
 -301 695 -339 680 -380 680 c 0
 -463 680 -530 740 -530 815 c 0
 -530 869 -495 916 -444 937 c 1
 -448 949 -450 962 -450 975 c 0
 -450 1050 -383 1110 -300 1110 c 0
 -217 1110 -150 1050 -150 975 c 1
EndSplineSet
EndChar

StartChar: uni0E4F
Encoding: 482 3663 166
Width: 780
VWidth: 0
Flags: HMW
LayerCount: 4
Layer: 2
SplineSet
390 395 m 0
 338 395 295 352 295 300 c 0
 295 248 338 205 390 205 c 0
 442 205 485 248 485 300 c 0
 485 352 442 395 390 395 c 0
390 460 m 0
 478 460 550 388 550 300 c 0
 550 212 478 140 390 140 c 0
 302 140 230 212 230 300 c 0
 230 388 302 460 390 460 c 0
390 550 m 0
 252 550 140 438 140 300 c 0
 140 162 252 50 390 50 c 0
 528 50 640 162 640 300 c 0
 640 438 528 550 390 550 c 0
390 620 m 0
 567 620 710 477 710 300 c 0
 710 123 567 -20 390 -20 c 0
 213 -20 70 123 70 300 c 0
 70 477 213 620 390 620 c 0
EndSplineSet
Validated: 1
Layer: 3
SplineSet
390 620 m 0
 567 620 710 477 710 300 c 0
 710 123 567 -20 390 -20 c 0
 213 -20 70 123 70 300 c 0
 70 477 213 620 390 620 c 0
390 520 m 0
 268 520 170 422 170 300 c 0
 170 178 268 80 390 80 c 0
 512 80 610 178 610 300 c 0
 610 422 512 520 390 520 c 0
390 460 m 0
 478 460 550 388 550 300 c 0
 550 212 478 140 390 140 c 0
 302 140 230 212 230 300 c 0
 230 388 302 460 390 460 c 0
390 370 m 0
 351 370 320 339 320 300 c 0
 320 261 351 230 390 230 c 0
 429 230 460 261 460 300 c 0
 460 339 429 370 390 370 c 0
EndSplineSet
EndChar

StartChar: uni0E5B
Encoding: 494 3675 167
Width: 1360
VWidth: 0
Flags: HMW
LayerCount: 4
Layer: 2
SplineSet
330 430 m 0
 380 430 420 390 420 340 c 0
 420 290 380 250 330 250 c 0
 324 250 318 251 313 252 c 1
 328 224 353 210 390 210 c 0
 453 210 500 258 500 340 c 0
 500 441 463 555 340 555 c 0
 227 555 160 464 160 300 c 0
 160 162 252 45 390 45 c 0
 616 45 675 307 675 580 c 1
 735 580 l 1
 847 178 l 1
 925 520 l 1
 935 520 l 1
 985 520 l 1
 985 419 1006 330 1090 330 c 2
 1250 330 l 1
 1250 270 l 1
 1090 270 l 2
 1009 270 969 309 951 370 c 1
 880 60 l 1
 820 60 l 1
 726 398 l 1
 701 179 618 -20 390 -20 c 0
 213 -20 90 123 90 300 c 0
 90 492 188 620 340 620 c 0
 496 620 570 482 570 340 c 0
 570 233 502 150 390 150 c 0
 294 150 235 227 235 320 c 0
 235 385 280 430 330 430 c 0
330 380 m 0
 308 380 290 362 290 340 c 0
 290 318 308 300 330 300 c 0
 352 300 370 318 370 340 c 0
 370 362 352 380 330 380 c 0
EndSplineSet
Validated: 1
Layer: 3
SplineSet
340 365 m 0
 318 365 300 347 300 325 c 0
 300 303 318 285 340 285 c 0
 362 285 380 303 380 325 c 0
 380 347 362 365 340 365 c 0
340 430 m 0
 398 430 445 383 445 325 c 0
 445 284 421 248 386 231 c 1
 391 230 395 230 400 230 c 0
 445 230 500 264 500 340 c 0
 500 434 449 530 350 530 c 0
 253 530 170 454 170 300 c 0
 170 162 267 70 400 70 c 0
 595 70 685 256 685 580 c 1
 775 580 l 1
 871 237 l 1
 935 520 l 1
 1025 520 l 1
 1025 385 1045 345 1100 345 c 2
 1290 345 l 1
 1290 255 l 1
 1100 255 l 2
 1040 255 1001 272 976 305 c 1
 920 60 l 1
 830 60 l 1
 756 326 l 1
 721 137 630 -20 400 -20 c 0
 190 -20 70 123 70 300 c 0
 70 486 193 620 350 620 c 0
 503 620 600 501 600 340 c 0
 600 233 510 150 400 150 c 0
 295 150 230 232 230 320 c 0
 230 385 277 430 340 430 c 0
EndSplineSet
EndChar

StartChar: uni0E5A
Encoding: 493 3674 168
Width: 770
VWidth: 0
Flags: HMW
LayerCount: 4
Layer: 2
SplineSet
140 555 m 0
 112 555 90 533 90 505 c 0
 90 477 112 455 140 455 c 0
 168 455 190 477 190 505 c 0
 190 533 168 555 140 555 c 0
580 120 m 2
 580 470 l 2
 580 511 568 530 535 530 c 0
 518 530 503 522 487 510 c 1
 489 501 490 491 490 480 c 2
 490 110 l 2
 490 38 457 -10 390 -10 c 0
 348 -10 328 6 310 15 c 1
 335 60 l 1
 345 55 356 45 375 45 c 0
 402 45 410 71 410 120 c 2
 410 470 l 2
 410 511 398 530 365 530 c 0
 296 530 256 400 140 400 c 0
 80 400 30 444 30 505 c 0
 30 566 80 610 140 610 c 0
 198 610 247 569 250 511 c 1
 290 554 332 600 390 600 c 0
 421 600 450 586 468 559 c 1
 495 583 524 600 560 600 c 0
 614 600 660 558 660 480 c 2
 660 110 l 2
 660 38 627 -10 560 -10 c 0
 518 -10 498 6 480 15 c 1
 505 60 l 1
 515 55 526 45 545 45 c 0
 572 45 580 71 580 120 c 2
EndSplineSet
Validated: 1
Layer: 3
SplineSet
135 545 m 0
 107 545 85 523 85 495 c 0
 85 467 107 445 135 445 c 0
 163 445 185 467 185 495 c 0
 185 523 163 545 135 545 c 0
259 513 m 1
 296 553 343 600 400 600 c 0
 457 600 474 568 479 513 c 1
 516 553 563 600 620 600 c 0
 691 600 700 551 700 470 c 2
 700 120 l 2
 700 42 683 -10 595 -10 c 0
 538 -10 512 4 490 15 c 1
 515 85 l 1
 515 85 526 76 547 76 c 0
 564 76 580 83 580 120 c 2
 580 420 l 2
 580 461 573 480 550 480 c 0
 533 480 511 455 480 429 c 1
 480 120 l 2
 480 42 463 -10 375 -10 c 0
 318 -10 292 4 270 15 c 1
 295 85 l 1
 295 85 306 76 327 76 c 0
 344 76 360 83 360 120 c 2
 360 420 l 2
 360 461 353 480 330 480 c 0
 296 480 245 380 135 380 c 0
 67 380 10 425 10 495 c 0
 10 565 67 610 135 610 c 0
 197 610 250 572 259 513 c 1
EndSplineSet
Colour: ffff00
EndChar

StartChar: uni0EBC.alt
Encoding: 871 -1 169
Width: 0
VWidth: 0
Flags: HMW
LayerCount: 4
Layer: 2
SplineSet
-520 -115 m 0
 -542 -115 -560 -133 -560 -155 c 0
 -560 -177 -542 -195 -520 -195 c 0
 -498 -195 -480 -177 -480 -155 c 0
 -480 -133 -498 -115 -520 -115 c 0
-510 -60 m 0
 -427 -60 -378 -170 -290 -170 c 0
 -236 -170 -210 -139 -210 -75 c 1
 -130 -75 l 1
 -130 -173 -178 -240 -290 -240 c 0
 -368 -240 -401 -201 -431 -165 c 1
 -435 -209 -474 -240 -520 -240 c 0
 -570 -240 -610 -205 -610 -155 c 0
 -610 -110 -580 -60 -510 -60 c 0
EndSplineSet
Validated: 1
Layer: 3
SplineSet
-530 -195 m 0
 -511 -195 -495 -179 -495 -160 c 0
 -495 -141 -511 -125 -530 -125 c 0
 -549 -125 -565 -141 -565 -160 c 0
 -565 -179 -549 -195 -530 -195 c 0
-520 -60 m 0
 -415 -60 -368 -165 -280 -165 c 0
 -226 -165 -200 -139 -200 -75 c 1
 -90 -75 l 1
 -90 -173 -168 -250 -280 -250 c 0
 -360 -250 -404 -211 -441 -175 c 1
 -447 -218 -480 -250 -530 -250 c 0
 -585 -250 -630 -210 -630 -160 c 0
 -630 -110 -595 -60 -520 -60 c 0
EndSplineSet
EndChar

StartChar: a
Encoding: 68 97 170
Width: 690
VWidth: 0
Flags: HMW
LayerCount: 4
Layer: 2
SplineSet
490 0 m 1
 490 95 406 230 280 230 c 0
 208 230 170 189 170 140 c 0
 170 83 227 60 280 60 c 0
 329 60 364 79 385 90 c 1
 415 35 l 1
 393 19 333 -10 260 -10 c 0
 145 -10 80 65 80 140 c 0
 80 224 146 300 270 300 c 0
 394 300 474 213 505 145 c 1
 505 420 l 2
 505 498 441 545 340 545 c 0
 239 545 175 498 175 420 c 1
 80 420 l 1
 80 534 191 620 340 620 c 0
 489 620 600 534 600 420 c 2
 600 100 l 2
 600 36 591 0 520 0 c 2
 490 0 l 1
EndSplineSet
Validated: 1
Layer: 3
SplineSet
484 219 m 1
 482 233 480 248 480 260 c 2
 480 390 l 2
 480 453 429 500 340 500 c 0
 251 500 200 450 200 390 c 1
 50 390 l 1
 50 504 142 620 340 620 c 0
 538 620 630 505 630 390 c 2
 630 80 l 2
 630 3 602 0 490 0 c 2
 480 0 l 1
 480 114 402 220 290 220 c 0
 237 220 200 197 200 150 c 0
 200 110 243 90 290 90 c 0
 337 90 384 109 405 120 c 1
 435 35 l 1
 413 19 349 -10 270 -10 c 0
 141 -10 50 38 50 150 c 1
 51 258 148 320 270 320 c 0
 375 320 443 273 484 219 c 1
EndSplineSet
EndChar

StartChar: l
Encoding: 79 108 171
Width: 370
VWidth: 0
Flags: HMW
LayerCount: 4
Layer: 2
SplineSet
335 15 m 1
 322 8 288 -10 235 -10 c 0
 165 -10 125 26 125 90 c 2
 125 840 l 1
 220 840 l 1
 220 90 l 2
 220 64 241 55 265 55 c 0
 288 55 306 65 315 70 c 1
 335 15 l 1
EndSplineSet
Validated: 1
Layer: 3
SplineSet
350 15 m 1
 328 4 287 -10 230 -10 c 0
 142 -10 90 42 90 120 c 2
 90 840 l 1
 250 840 l 1
 250 140 l 2
 250 103 266 96 283 96 c 0
 304 96 325 105 325 105 c 1
 350 15 l 1
EndSplineSet
EndChar

StartChar: o
Encoding: 82 111 172
Width: 700
VWidth: 0
Flags: HMW
LayerCount: 4
Layer: 2
SplineSet
350 620 m 0
 504 620 620 518 620 360 c 2
 620 220 l 2
 620 67 504 -20 350 -20 c 0
 196 -20 80 67 80 220 c 2
 80 360 l 2
 80 518 196 620 350 620 c 0
350 540 m 0
 249 540 175 466 175 360 c 2
 175 220 l 2
 175 134 242 60 350 60 c 0
 458 60 525 134 525 220 c 2
 525 360 l 2
 525 466 451 540 350 540 c 0
EndSplineSet
Validated: 1
Layer: 3
SplineSet
350 620 m 0
 524 620 640 508 640 350 c 2
 640 230 l 2
 640 77 524 -20 350 -20 c 0
 176 -20 60 77 60 230 c 2
 60 350 l 2
 60 508 176 620 350 620 c 0
350 500 m 0
 279 500 220 456 220 350 c 2
 220 230 l 2
 220 144 272 100 350 100 c 0
 428 100 480 144 480 230 c 2
 480 350 l 2
 480 456 421 500 350 500 c 0
EndSplineSet
EndChar

StartChar: s
Encoding: 86 115 173
Width: 690
VWidth: 0
Flags: HMW
LayerCount: 4
Layer: 2
SplineSet
340 620 m 0
 480 620 590 545 590 420 c 1
 505 420 l 1
 505 491 443 545 340 545 c 0
 237 545 180 498 180 445 c 0
 180 389 269 374 360 350 c 0
 465 322 600 292 600 165 c 0
 600 24 471 -20 340 -20 c 0
 198 -20 90 39 90 140 c 0
 90 179 103 206 110 220 c 1
 215 190 l 1
 205 173 200 158 200 140 c 0
 200 86 258 55 340 55 c 0
 441 55 505 88 505 155 c 0
 505 230 427 244 330 270 c 0
 246 292 90 315 90 435 c 0
 90 544 200 620 340 620 c 0
EndSplineSet
Validated: 1
Layer: 3
SplineSet
340 620 m 0
 533 620 630 497 630 390 c 1
 490 390 l 1
 490 461 429 510 340 510 c 0
 254 510 205 464 205 430 c 0
 205 388 284 378 360 360 c 0
 540 318 630 285 630 170 c 0
 630 47 503 -20 345 -20 c 0
 150 -20 60 67 60 160 c 0
 60 211 80 240 80 240 c 1
 245 200 l 1
 245 200 230 187 230 160 c 0
 230 114 277 85 345 85 c 0
 431 85 480 117 480 160 c 0
 480 200 449 209 330 240 c 0
 198 275 60 296 60 419 c 0
 60 528 185 620 340 620 c 0
EndSplineSet
EndChar

StartChar: c
Encoding: 70 99 174
Width: 690
VWidth: 0
Flags: HMW
LayerCount: 4
Layer: 2
SplineSet
355 620 m 0
 519 620 610 515 610 410 c 0
 610 386 605 366 600 350 c 1
 485 350 l 1
 491 362 500 382 500 410 c 0
 500 453 481 540 355 540 c 0
 244 540 185 466 185 390 c 2
 185 190 l 2
 185 117 239 60 355 60 c 0
 471 60 515 121 515 190 c 1
 610 190 l 1
 610 52 494 -20 355 -20 c 0
 216 -20 90 42 90 190 c 2
 90 390 l 2
 90 538 219 620 355 620 c 0
EndSplineSet
Validated: 1
Layer: 3
SplineSet
355 620 m 0
 539 620 640 505 640 400 c 0
 640 376 635 356 630 340 c 1
 450 340 l 1
 456 352 465 372 465 400 c 0
 465 443 441 500 355 500 c 0
 274 500 220 456 220 380 c 2
 220 200 l 2
 220 127 279 100 355 100 c 0
 431 100 480 131 480 200 c 1
 640 200 l 1
 640 62 509 -20 355 -20 c 0
 201 -20 60 52 60 200 c 2
 60 380 l 2
 60 528 199 620 355 620 c 0
EndSplineSet
EndChar

StartChar: x
Encoding: 91 120 175
Width: 680
VWidth: 0
Flags: HMW
LayerCount: 4
Layer: 2
SplineSet
340 370 m 1
 438 491 470 557 495 600 c 1
 610 600 l 1
 566 532 517 454 405 310 c 1
 531 153 591 67 630 0 c 1
 505 0 l 1
 490 26 425 145 340 250 c 1
 255 145 190 26 175 0 c 1
 50 0 l 1
 89 67 149 153 275 310 c 1
 163 454 114 532 70 600 c 1
 185 600 l 1
 210 557 242 491 340 370 c 1
EndSplineSet
Validated: 1
Layer: 3
SplineSet
40 600 m 1
 220 600 l 1
 272 510 290 475 340 410 c 1
 390 475 408 510 460 600 c 1
 640 600 l 1
 568 477 505 392 440 310 c 1
 505 235 566 156 660 0 c 1
 470 0 l 1
 423 91 397 137 340 210 c 1
 283 137 257 91 210 0 c 1
 20 0 l 1
 114 156 175 235 240 310 c 1
 175 392 112 477 40 600 c 1
EndSplineSet
EndChar

StartChar: d
Encoding: 71 100 176
Width: 740
VWidth: 0
Flags: HMW
LayerCount: 4
Layer: 2
SplineSet
530 840 m 1
 620 840 l 1
 620 90 l 2
 620 65 625 55 645 55 c 0
 660 55 669 61 675 65 c 1
 695 15 l 1
 684 7 656 -10 615 -10 c 0
 554 -10 525 28 525 90 c 2
 525 424 l 1
 490 478 433 535 330 535 c 0
 246 535 185 478 185 380 c 2
 185 220 l 2
 185 108 232 60 310 60 c 0
 376 60 412 109 420 130 c 1
 480 90 l 1
 459 48 403 -10 310 -10 c 0
 190 -10 90 47 90 220 c 2
 90 380 l 2
 90 530 200 610 310 610 c 0
 430 610 500 543 535 491 c 1
 532 502 530 515 530 530 c 2
 530 840 l 1
EndSplineSet
Validated: 1
Layer: 3
SplineSet
650 140 m 2
 650 108 654 99 665 95 c 0
 666 95 668 94 669 94 c 0
 677 94 685 100 685 100 c 1
 710 15 l 1
 688 4 667 -10 610 -10 c 0
 522 -10 490 42 490 120 c 2
 490 410 l 1
 455 453 405 490 350 490 c 0
 248 490 220 433 220 350 c 2
 220 240 l 2
 220 177 233 100 300 100 c 0
 338 100 365 123 375 150 c 1
 455 95 l 1
 435 52 387 -10 280 -10 c 0
 148 -10 60 67 60 240 c 2
 60 350 l 2
 60 502 161 610 300 610 c 0
 399 610 460 566 497 523 c 1
 493 535 490 551 490 570 c 2
 490 840 l 1
 650 840 l 1
 650 140 l 2
EndSplineSet
EndChar

StartChar: n
Encoding: 81 110 177
Width: 690
VWidth: 0
Flags: HMW
LayerCount: 4
Layer: 2
SplineSet
660 15 m 1
 649 7 621 -10 580 -10 c 0
 519 -10 490 28 490 90 c 2
 490 410 l 2
 490 498 440 535 375 535 c 0
 274 535 219 479 185 426 c 1
 185 0 l 1
 90 0 l 1
 90 600 l 1
 180 600 l 1
 180 530 l 2
 180 516 178 504 176 494 c 1
 209 545 276 610 395 610 c 0
 476 610 585 566 585 410 c 2
 585 90 l 2
 585 65 590 55 610 55 c 0
 625 55 634 61 640 65 c 1
 660 15 l 1
EndSplineSet
Validated: 1
Layer: 3
SplineSet
220 0 m 1
 60 0 l 1
 60 600 l 1
 210 600 l 1
 210 570 l 2
 209 550 207 533 204 519 c 1
 243 564 309 610 410 610 c 0
 515 610 610 544 610 400 c 2
 610 140 l 2
 610 108 614 99 625 95 c 0
 634 92 645 100 645 100 c 1
 670 15 l 1
 648 4 627 -10 570 -10 c 0
 482 -10 450 42 450 120 c 2
 450 400 l 2
 450 472 401 490 350 490 c 0
 297 490 253 455 220 415 c 1
 220 0 l 1
EndSplineSet
EndChar

StartChar: h
Encoding: 75 104 178
Width: 700
VWidth: 0
Flags: HMW
LayerCount: 4
Layer: 2
SplineSet
670 15 m 1
 659 7 631 -10 590 -10 c 0
 529 -10 500 28 500 90 c 2
 500 410 l 2
 500 498 450 535 385 535 c 0
 284 535 229 479 195 426 c 1
 195 0 l 1
 100 0 l 1
 100 840 l 1
 190 840 l 1
 190 530 l 2
 190 516 188 504 186 494 c 1
 219 545 286 610 405 610 c 0
 486 610 595 566 595 410 c 2
 595 90 l 2
 595 65 600 55 620 55 c 0
 635 55 644 61 650 65 c 1
 670 15 l 1
EndSplineSet
Validated: 1
Layer: 3
SplineSet
230 0 m 1
 70 0 l 1
 70 840 l 1
 230 840 l 1
 230 570 l 2
 230 556 228 543 226 532 c 1
 266 572 328 610 420 610 c 0
 525 610 620 544 620 400 c 2
 620 140 l 2
 620 108 624 99 635 95 c 0
 644 92 655 100 655 100 c 1
 680 15 l 1
 658 4 637 -10 580 -10 c 0
 492 -10 460 42 460 120 c 2
 460 400 l 2
 460 472 411 490 360 490 c 0
 307 490 263 455 230 415 c 1
 230 0 l 1
EndSplineSet
EndChar

StartChar: b
Encoding: 69 98 179
Width: 720
VWidth: 0
Flags: HMW
LayerCount: 4
Layer: 2
SplineSet
195 0 m 1
 100 0 l 1
 100 840 l 1
 190 840 l 1
 190 530 l 2
 190 515 188 502 185 491 c 1
 220 543 290 610 410 610 c 0
 520 610 630 530 630 380 c 2
 630 220 l 2
 630 47 530 -10 410 -10 c 0
 317 -10 261 48 240 90 c 1
 300 130 l 1
 308 109 344 60 410 60 c 0
 488 60 535 108 535 220 c 2
 535 380 l 2
 535 478 474 535 390 535 c 0
 287 535 230 478 195 424 c 1
 195 0 l 1
EndSplineSet
Validated: 1
Layer: 3
SplineSet
230 0 m 1
 70 0 l 1
 70 840 l 1
 230 840 l 1
 230 570 l 2
 230 551 227 535 223 523 c 1
 260 566 321 610 420 610 c 0
 559 610 660 502 660 350 c 2
 660 240 l 2
 660 67 572 -10 440 -10 c 0
 333 -10 285 52 265 95 c 1
 345 150 l 1
 355 123 382 100 420 100 c 0
 487 100 500 177 500 240 c 2
 500 350 l 2
 500 433 472 490 370 490 c 0
 315 490 265 453 230 410 c 1
 230 0 l 1
EndSplineSet
EndChar

StartChar: p
Encoding: 83 112 180
Width: 720
VWidth: 0
Flags: HMW
LayerCount: 4
Layer: 2
SplineSet
195 -240 m 1
 100 -240 l 1
 100 600 l 1
 190 600 l 1
 190 530 l 2
 190 515 188 502 185 491 c 1
 220 543 290 610 410 610 c 0
 520 610 630 530 630 380 c 2
 630 220 l 2
 630 47 530 -10 410 -10 c 0
 317 -10 261 48 240 90 c 1
 300 130 l 1
 308 109 344 60 410 60 c 0
 488 60 535 108 535 220 c 2
 535 380 l 2
 535 478 474 535 390 535 c 0
 287 535 230 478 195 424 c 1
 195 -240 l 1
EndSplineSet
Validated: 1
Layer: 3
SplineSet
230 -240 m 1
 70 -240 l 1
 70 600 l 1
 220 600 l 1
 220 570 l 2
 219 542 215 521 210 506 c 1
 245 554 308 610 420 610 c 0
 559 610 660 502 660 350 c 2
 660 240 l 2
 660 67 572 -10 440 -10 c 0
 333 -10 285 52 265 95 c 1
 345 150 l 1
 355 123 382 100 420 100 c 0
 487 100 500 177 500 240 c 2
 500 350 l 2
 500 433 472 490 370 490 c 0
 315 490 265 453 230 410 c 1
 230 -240 l 1
EndSplineSet
EndChar

StartChar: i
Encoding: 76 105 181
Width: 350
VWidth: 0
GlyphClass: 3
Flags: HMW
LayerCount: 4
Layer: 2
SplineSet
295 15 m 1
 284 7 256 -10 215 -10 c 0
 154 -10 125 28 125 90 c 2
 125 600 l 1
 220 600 l 1
 220 90 l 2
 220 65 225 55 245 55 c 0
 260 55 269 61 275 65 c 1
 295 15 l 1
230 760 m 0
 230 727 203 700 170 700 c 0
 137 700 110 727 110 760 c 0
 110 793 137 820 170 820 c 0
 203 820 230 793 230 760 c 0
EndSplineSet
Validated: 1
Layer: 3
SplineSet
260 770 m 0
 260 726 224 690 170 690 c 0
 116 690 80 726 80 770 c 0
 80 814 116 850 170 850 c 0
 224 850 260 814 260 770 c 0
250 140 m 2
 250 108 254 99 265 95 c 0
 274 92 285 100 285 100 c 1
 310 15 l 1
 288 4 267 -10 210 -10 c 0
 122 -10 90 42 90 120 c 2
 90 600 l 1
 90 600 124 590 170 590 c 0
 216 590 250 600 250 600 c 1
 250 140 l 2
EndSplineSet
EndChar

StartChar: q
Encoding: 84 113 182
Width: 740
VWidth: 0
Flags: HMW
LayerCount: 4
Layer: 2
SplineSet
530 600 m 1
 620 600 l 1
 620 -150 l 2
 620 -175 625 -185 645 -185 c 0
 660 -185 669 -179 675 -175 c 1
 695 -225 l 1
 684 -233 656 -250 615 -250 c 0
 554 -250 525 -212 525 -150 c 2
 525 424 l 1
 490 478 433 535 330 535 c 0
 246 535 185 478 185 380 c 2
 185 220 l 2
 185 108 232 60 310 60 c 0
 376 60 412 109 420 130 c 1
 480 90 l 1
 459 48 403 -10 310 -10 c 0
 190 -10 90 47 90 220 c 2
 90 380 l 2
 90 530 200 610 310 610 c 0
 430 610 500 543 535 491 c 1
 532 502 530 515 530 530 c 2
 530 600 l 1
EndSplineSet
Validated: 1
Layer: 3
SplineSet
650 -100 m 2
 650 -132 654 -141 665 -145 c 0
 674 -148 685 -140 685 -140 c 1
 710 -225 l 1
 688 -236 667 -250 610 -250 c 0
 522 -250 490 -198 490 -120 c 2
 490 410 l 1
 455 453 405 490 350 490 c 0
 248 490 220 433 220 350 c 2
 220 240 l 2
 220 177 233 100 300 100 c 0
 338 100 365 123 375 150 c 1
 455 95 l 1
 435 52 387 -10 280 -10 c 0
 148 -10 60 67 60 240 c 2
 60 350 l 2
 60 502 161 610 300 610 c 0
 410 610 474 556 508 508 c 1
 504 523 500 543 500 570 c 2
 500 600 l 1
 650 600 l 1
 650 -100 l 2
EndSplineSet
EndChar

StartChar: g
Encoding: 74 103 183
Width: 720
VWidth: 0
Flags: HMW
LayerCount: 4
Layer: 2
SplineSet
185 380 m 2
 185 220 l 2
 185 108 232 60 310 60 c 0
 376 60 412 109 420 130 c 1
 480 90 l 1
 459 48 403 -10 310 -10 c 0
 190 -10 90 47 90 220 c 2
 90 380 l 2
 90 530 200 610 310 610 c 0
 430 610 500 543 535 491 c 1
 532 502 530 515 530 530 c 2
 530 600 l 1
 620 600 l 1
 620 -70 l 2
 620 -185 541 -270 360 -270 c 0
 179 -270 110 -172 110 -90 c 1
 200 -90 l 1
 200 -150 255 -195 360 -195 c 0
 465 -195 525 -151 525 -70 c 2
 525 424 l 1
 490 478 433 535 330 535 c 0
 246 535 185 478 185 380 c 2
EndSplineSet
Validated: 1
Layer: 3
SplineSet
650 -70 m 2
 650 -185 552 -280 360 -280 c 0
 168 -280 80 -162 80 -80 c 1
 230 -80 l 1
 230 -140 298 -170 360 -170 c 0
 436 -170 490 -133 490 -70 c 2
 490 410 l 1
 455 453 405 490 350 490 c 0
 248 490 220 433 220 350 c 2
 220 240 l 2
 220 177 233 100 300 100 c 0
 338 100 365 123 375 150 c 1
 465 85 l 1
 445 42 387 -10 280 -10 c 0
 148 -10 60 67 60 240 c 2
 60 350 l 2
 60 502 161 610 300 610 c 0
 410 610 474 556 508 508 c 1
 504 523 500 543 500 570 c 2
 500 600 l 1
 650 600 l 1
 650 -70 l 2
EndSplineSet
EndChar

StartChar: period
Encoding: 17 46 184
Width: 320
VWidth: 0
Flags: HMW
LayerCount: 4
Layer: 2
SplineSet
225 60 m 0
 225 27 198 0 160 0 c 0
 122 0 95 27 95 60 c 0
 95 93 122 120 160 120 c 0
 198 120 225 93 225 60 c 0
EndSplineSet
Validated: 1
Layer: 3
SplineSet
250 80 m 0
 250 36 214 0 160 0 c 0
 106 0 70 36 70 80 c 0
 70 124 106 160 160 160 c 0
 214 160 250 124 250 80 c 0
EndSplineSet
EndChar

StartChar: dotlessi
Encoding: 243 305 185
Width: 350
VWidth: 0
Flags: HMW
LayerCount: 4
Layer: 2
SplineSet
295 15 m 1
 284 7 256 -10 215 -10 c 0
 154 -10 125 28 125 90 c 2
 125 600 l 1
 220 600 l 1
 220 90 l 2
 220 65 225 55 245 55 c 0
 260 55 269 61 275 65 c 1
 295 15 l 1
EndSplineSet
Validated: 1
Layer: 3
SplineSet
90 120 m 2
 90 600 l 1
 250 600 l 1
 250 135 l 2
 250 103 259 95 275 95 c 0
 287 95 300 100 300 100 c 1
 325 15 l 1
 303 4 277 -10 220 -10 c 0
 132 -10 90 42 90 120 c 2
EndSplineSet
Colour: ff00
EndChar

StartChar: r
Encoding: 85 114 186
Width: 550
VWidth: 0
Flags: HMW
LayerCount: 4
Layer: 2
SplineSet
370 610 m 0
 444 610 500 563 500 485 c 0
 500 456 493 429 485 410 c 1
 380 410 l 1
 391 423 400 456 400 470 c 0
 400 493 393 530 340 530 c 0
 279 530 231 460 205 398 c 1
 205 0 l 1
 110 0 l 1
 110 600 l 1
 200 600 l 1
 200 530 l 2
 200 517 198 504 195 492 c 1
 231 551 288 610 370 610 c 0
EndSplineSet
Validated: 1
Layer: 3
SplineSet
395 610 m 0
 492 610 530 538 530 470 c 0
 530 441 523 409 515 390 c 1
 370 390 l 1
 383 403 390 431 390 445 c 0
 390 468 377 490 340 490 c 0
 292 490 259 447 240 401 c 1
 240 0 l 1
 80 0 l 1
 80 600 l 1
 230 600 l 1
 230 560 l 2
 230 543 227 527 222 513 c 1
 258 562 314 610 395 610 c 0
EndSplineSet
EndChar

StartChar: u
Encoding: 88 117 187
Width: 690
VWidth: 0
Flags: HMW
LayerCount: 4
Layer: 2
SplineSet
660 15 m 1
 649 7 621 -10 580 -10 c 0
 519 -10 490 28 490 90 c 2
 490 93 l 1
 454 44 389 -10 280 -10 c 0
 199 -10 90 34 90 190 c 2
 90 600 l 1
 185 600 l 1
 185 190 l 2
 185 102 235 65 300 65 c 0
 401 65 456 121 490 174 c 1
 490 600 l 1
 585 600 l 1
 585 90 l 2
 585 65 590 55 610 55 c 0
 625 55 634 61 640 65 c 1
 660 15 l 1
EndSplineSet
Validated: 1
Layer: 3
SplineSet
450 600 m 1
 610 600 l 1
 610 140 l 2
 610 108 614 99 625 95 c 0
 634 92 645 100 645 100 c 1
 670 15 l 1
 648 4 627 -10 570 -10 c 0
 503 -10 468 20 456 69 c 1
 416 29 353 -10 260 -10 c 0
 155 -10 60 56 60 200 c 2
 60 600 l 1
 220 600 l 1
 220 200 l 2
 220 128 269 110 320 110 c 0
 373 110 417 145 450 185 c 1
 450 600 l 1
EndSplineSet
EndChar

StartChar: H
Encoding: 43 72 188
Width: 790
VWidth: 0
Flags: HMW
LayerCount: 4
Layer: 2
SplineSet
750 15 m 1
 739 7 711 -10 670 -10 c 0
 609 -10 580 28 580 90 c 2
 580 330 l 1
 200 330 l 1
 200 0 l 1
 100 0 l 1
 100 780 l 1
 200 780 l 1
 200 410 l 1
 580 410 l 1
 580 780 l 1
 675 780 l 1
 675 90 l 2
 675 65 680 55 700 55 c 0
 715 55 724 61 730 65 c 1
 750 15 l 1
EndSplineSet
Validated: 1
Layer: 3
SplineSet
230 0 m 1
 70 0 l 1
 70 780 l 1
 230 780 l 1
 230 430 l 1
 550 430 l 1
 550 780 l 1
 710 780 l 1
 710 140 l 2
 710 108 714 99 725 95 c 0
 734 92 745 100 745 100 c 1
 770 15 l 1
 748 4 727 -10 670 -10 c 0
 582 -10 550 42 550 120 c 2
 550 310 l 1
 230 310 l 1
 230 0 l 1
EndSplineSet
EndChar

StartChar: T
Encoding: 55 84 189
Width: 710
VWidth: 0
Flags: HMW
LayerCount: 4
Layer: 2
SplineSet
50 700 m 1
 50 780 l 1
 580 780 l 2
 623 780 660 758 660 710 c 0
 660 655 635 630 635 630 c 1
 550 630 l 1
 550 630 570 655 570 675 c 0
 570 690 565 700 540 700 c 2
 380 700 l 1
 380 0 l 1
 280 0 l 1
 280 700 l 1
 50 700 l 1
EndSplineSet
Validated: 1
Layer: 3
SplineSet
20 660 m 1
 20 780 l 1
 560 780 l 2
 643 780 690 738 690 660 c 0
 690 620 665 590 665 590 c 1
 530 590 l 1
 530 590 540 621 540 635 c 0
 540 650 530 660 500 660 c 2
 415 660 l 1
 415 0 l 1
 245 0 l 1
 245 660 l 1
 20 660 l 1
EndSplineSet
EndChar

StartChar: E
Encoding: 40 69 190
Width: 720
VWidth: 0
Flags: HMW
LayerCount: 4
Layer: 2
SplineSet
200 0 m 2
 148 0 110 28 110 90 c 2
 110 780 l 1
 560 780 l 2
 603 780 640 758 640 710 c 0
 640 655 615 630 615 630 c 1
 530 630 l 1
 530 630 550 655 550 675 c 0
 550 690 545 700 520 700 c 2
 210 700 l 1
 210 410 l 1
 550 410 l 1
 550 330 l 1
 210 330 l 1
 210 110 l 2
 210 87 217 80 240 80 c 2
 540 80 l 2
 565 80 570 90 570 105 c 0
 570 125 550 150 550 150 c 1
 635 150 l 1
 635 150 660 125 660 70 c 0
 660 22 623 0 580 0 c 2
 200 0 l 2
EndSplineSet
Validated: 1
Layer: 3
SplineSet
70 780 m 1
 530 780 l 2
 613 780 660 738 660 660 c 0
 660 620 635 590 635 590 c 1
 500 590 l 1
 500 590 510 621 510 635 c 0
 510 650 500 660 470 660 c 2
 230 660 l 1
 230 430 l 1
 570 430 l 1
 570 310 l 1
 230 310 l 1
 230 180 l 2
 230 128 238 120 290 120 c 2
 490 120 l 2
 520 120 530 130 530 145 c 0
 530 159 520 190 520 190 c 1
 655 190 l 1
 655 190 680 160 680 120 c 0
 680 42 633 0 550 0 c 2
 230 0 l 2
 111 0 70 43 70 160 c 2
 70 780 l 1
EndSplineSet
EndChar

StartChar: L
Encoding: 47 76 191
Width: 610
VWidth: 0
Flags: HMW
LayerCount: 4
Layer: 2
SplineSet
200 0 m 2
 148 0 110 28 110 90 c 2
 110 780 l 1
 210 780 l 1
 210 110 l 2
 210 87 217 80 240 80 c 2
 460 80 l 2
 485 80 490 90 490 105 c 0
 490 125 470 150 470 150 c 1
 555 150 l 1
 555 150 580 125 580 70 c 0
 580 22 543 0 500 0 c 2
 200 0 l 2
EndSplineSet
Validated: 1
Layer: 3
SplineSet
410 120 m 2
 440 120 450 130 450 145 c 0
 450 159 440 190 440 190 c 1
 575 190 l 1
 575 190 600 160 600 120 c 0
 600 42 553 0 470 0 c 2
 230 0 l 2
 111 0 70 43 70 160 c 2
 70 780 l 1
 240 780 l 1
 240 180 l 2
 240 128 248 120 300 120 c 2
 410 120 l 2
EndSplineSet
EndChar

StartChar: F
Encoding: 41 70 192
Width: 660
VWidth: 0
Flags: HMW
LayerCount: 4
Layer: 2
SplineSet
210 330 m 1
 210 0 l 1
 110 0 l 1
 110 780 l 1
 540 780 l 2
 583 780 620 758 620 710 c 0
 620 655 595 630 595 630 c 1
 510 630 l 1
 510 630 530 655 530 675 c 0
 530 690 525 700 500 700 c 2
 210 700 l 1
 210 410 l 1
 530 410 l 1
 530 330 l 1
 210 330 l 1
EndSplineSet
Validated: 1
Layer: 3
SplineSet
80 0 m 1
 80 780 l 1
 520 780 l 2
 603 780 650 738 650 660 c 0
 650 620 625 590 625 590 c 1
 490 590 l 1
 490 590 500 621 500 635 c 0
 500 650 490 660 460 660 c 2
 240 660 l 1
 240 430 l 1
 560 430 l 1
 560 310 l 1
 240 310 l 1
 240 0 l 1
 80 0 l 1
EndSplineSet
EndChar

StartChar: I
Encoding: 44 73 193
Width: 370
VWidth: 0
Flags: HMW
LayerCount: 4
Layer: 2
SplineSet
235 0 m 1
 135 0 l 1
 135 780 l 1
 235 780 l 1
 235 0 l 1
EndSplineSet
Validated: 1
Layer: 3
SplineSet
270 0 m 1
 100 0 l 1
 100 780 l 1
 270 780 l 1
 270 0 l 1
EndSplineSet
EndChar

StartChar: X
Encoding: 59 88 194
Width: 800
VWidth: 0
Flags: HMW
LayerCount: 4
Layer: 2
SplineSet
80 780 m 1
 205 780 l 1
 248 695 316 591 400 470 c 1
 484 591 552 695 595 780 c 1
 720 780 l 1
 675 699 604 590 465 410 c 1
 623 210 697 101 750 0 c 1
 620 0 l 1
 573 83 507 196 400 340 c 1
 293 196 227 83 180 0 c 1
 50 0 l 1
 103 101 177 210 335 410 c 1
 196 590 125 699 80 780 c 1
EndSplineSet
Validated: 1
Layer: 3
SplineSet
50 780 m 1
 250 780 l 1
 290 695 316 631 400 510 c 1
 484 631 510 695 550 780 c 1
 750 780 l 1
 705 699 646 590 505 410 c 1
 663 210 727 101 780 0 c 1
 580 0 l 1
 535 83 504 156 400 300 c 1
 296 156 265 83 220 0 c 1
 20 0 l 1
 73 101 137 210 295 410 c 1
 154 590 95 699 50 780 c 1
EndSplineSet
EndChar

StartChar: O
Encoding: 50 79 195
Width: 820
VWidth: 0
Flags: HMW
LayerCount: 4
Layer: 2
SplineSet
410 800 m 0
 607 800 740 666 740 490 c 2
 740 270 l 2
 740 88 608 -20 410 -20 c 0
 212 -20 80 88 80 270 c 2
 80 490 l 2
 80 666 213 800 410 800 c 0
410 720 m 0
 271 720 180 609 180 490 c 2
 180 270 l 2
 180 147 267 60 410 60 c 0
 553 60 640 147 640 270 c 2
 640 490 l 2
 640 609 549 720 410 720 c 0
EndSplineSet
Validated: 1
Layer: 3
SplineSet
410 800 m 0
 617 800 760 666 760 490 c 2
 760 280 l 2
 760 98 617 -20 410 -20 c 0
 203 -20 60 98 60 280 c 2
 60 490 l 2
 60 666 203 800 410 800 c 0
410 670 m 0
 301 670 230 609 230 490 c 2
 230 280 l 2
 230 175 293 110 410 110 c 0
 527 110 590 175 590 280 c 2
 590 490 l 2
 590 609 519 670 410 670 c 0
EndSplineSet
EndChar

StartChar: U
Encoding: 56 85 196
Width: 840
VWidth: 0
Flags: HMW
LayerCount: 4
Layer: 2
SplineSet
120 780 m 1
 220 780 l 1
 220 250 l 2
 220 131 296 60 420 60 c 0
 544 60 620 131 620 250 c 2
 620 780 l 1
 720 780 l 1
 720 250 l 2
 720 45 569 -20 420 -20 c 0
 271 -20 120 45 120 250 c 2
 120 780 l 1
EndSplineSet
Validated: 1
Layer: 3
SplineSet
90 780 m 1
 260 780 l 1
 260 270 l 2
 260 151 327 110 420 110 c 0
 513 110 580 151 580 270 c 2
 580 780 l 1
 750 780 l 1
 750 270 l 2
 750 65 613 -20 420 -20 c 0
 227 -20 90 65 90 270 c 2
 90 780 l 1
EndSplineSet
EndChar

StartChar: C
Encoding: 38 67 197
Width: 790
VWidth: 0
Flags: HMW
LayerCount: 4
Layer: 2
SplineSet
410 800 m 0
 602 800 710 680 710 570 c 0
 710 542 705 515 690 490 c 1
 565 490 l 1
 586 513 595 544 595 570 c 0
 595 623 559 720 410 720 c 0
 265 720 180 625 180 510 c 2
 180 250 l 2
 180 121 293 60 410 60 c 0
 527 60 630 131 630 250 c 1
 720 250 l 1
 720 85 584 -20 410 -20 c 0
 236 -20 80 68 80 250 c 2
 80 510 l 2
 80 682 223 800 410 800 c 0
EndSplineSet
Validated: 1
Layer: 3
SplineSet
410 800 m 0
 625 800 730 670 730 560 c 0
 730 532 725 505 710 480 c 1
 510 480 l 1
 531 503 540 529 540 555 c 0
 540 619 497 670 410 670 c 0
 308 670 230 615 230 500 c 2
 230 260 l 2
 230 165 313 110 410 110 c 0
 512 110 580 165 580 260 c 1
 740 260 l 1
 740 88 612 -20 410 -20 c 0
 203 -20 60 78 60 260 c 2
 60 500 l 2
 60 672 203 800 410 800 c 0
EndSplineSet
EndChar

StartChar: t
Encoding: 87 116 198
Width: 500
VWidth: 0
Flags: HMW
LayerCount: 4
Layer: 2
SplineSet
155 600 m 1
 155 760 l 1
 250 760 l 1
 250 600 l 1
 410 600 l 1
 410 525 l 1
 250 525 l 1
 250 130 l 2
 250 88 261 65 305 65 c 0
 352 65 381 85 410 105 c 1
 440 45 l 1
 413 22 356 -10 290 -10 c 0
 214 -10 155 26 155 130 c 2
 155 525 l 1
 70 525 l 1
 70 600 l 1
 155 600 l 1
EndSplineSet
Validated: 1
Layer: 3
SplineSet
120 150 m 2
 120 480 l 1
 40 480 l 1
 40 600 l 1
 120 600 l 1
 120 760 l 1
 280 760 l 1
 280 600 l 1
 440 600 l 1
 440 480 l 1
 280 480 l 1
 280 170 l 2
 280 127 299 110 340 110 c 0
 373 110 409 127 430 140 c 1
 470 43 l 1
 434 19 383 -10 290 -10 c 0
 174 -10 120 35 120 150 c 2
EndSplineSet
EndChar

StartChar: w
Encoding: 90 119 199
Width: 900
VWidth: 0
Flags: HMW
LayerCount: 4
Layer: 2
SplineSet
50 600 m 1
 155 600 l 1
 265 120 l 2
 272 93 276 80 287 80 c 0
 301 80 304 95 310 120 c 1
 400 600 l 1
 450 600 l 1
 500 600 l 1
 590 120 l 1
 596 95 599 80 613 80 c 0
 624 80 628 93 635 120 c 2
 745 600 l 1
 850 600 l 1
 725 90 l 2
 710 28 676 -10 620 -10 c 0
 569 -10 529 19 515 90 c 1
 450 450 l 1
 385 90 l 1
 371 19 331 -10 280 -10 c 0
 224 -10 190 28 175 90 c 2
 50 600 l 1
EndSplineSet
Validated: 1
Layer: 3
SplineSet
20 600 m 1
 190 600 l 1
 270 200 l 1
 277 173 279 150 290 150 c 0
 304 150 301 165 310 200 c 1
 380 600 l 1
 450 600 l 1
 520 600 l 1
 590 200 l 1
 599 165 596 150 610 150 c 0
 621 150 623 173 630 200 c 1
 710 600 l 1
 880 600 l 1
 760 90 l 2
 741 18 685 -10 620 -10 c 0
 571 -10 509 19 490 90 c 1
 450 330 l 1
 410 90 l 1
 391 19 329 -10 280 -10 c 0
 215 -10 159 18 140 90 c 2
 20 600 l 1
EndSplineSet
EndChar

StartChar: m
Encoding: 80 109 200
Width: 980
VWidth: 0
Flags: HMW
LayerCount: 4
Layer: 2
SplineSet
950 15 m 1
 939 7 911 -10 870 -10 c 0
 809 -10 780 28 780 90 c 2
 780 410 l 2
 780 498 749 535 690 535 c 0
 610 535 560 495 527 452 c 1
 529 439 530 425 530 410 c 2
 530 0 l 1
 435 0 l 1
 435 410 l 2
 435 498 399 535 340 535 c 0
 261 535 215 484 185 432 c 1
 185 0 l 1
 90 0 l 1
 90 600 l 1
 180 600 l 1
 180 540 l 2
 180 524 177 509 174 497 c 1
 205 549 262 610 360 610 c 0
 413 610 480 586 512 512 c 1
 544 557 606 610 710 610 c 0
 782 610 875 566 875 410 c 2
 875 90 l 2
 875 65 880 55 900 55 c 0
 915 55 924 61 930 65 c 1
 950 15 l 1
EndSplineSet
Validated: 1
Layer: 3
SplineSet
720 610 m 0
 825 610 900 544 900 400 c 2
 900 140 l 2
 900 108 904 99 915 95 c 0
 924 92 935 100 935 100 c 1
 960 15 l 1
 938 4 917 -10 860 -10 c 0
 772 -10 740 42 740 120 c 2
 740 400 l 2
 740 472 699 490 650 490 c 0
 611 490 581 471 557 445 c 1
 559 431 560 416 560 400 c 2
 560 0 l 1
 400 0 l 1
 400 400 l 2
 400 472 359 490 310 490 c 0
 272 490 243 473 220 448 c 1
 220 0 l 1
 60 0 l 1
 60 600 l 1
 210 600 l 1
 210 570 l 2
 210 557 208 545 207 534 c 1
 242 574 296 610 380 610 c 0
 449 610 505 581 535 521 c 1
 570 566 626 610 720 610 c 0
EndSplineSet
EndChar

StartChar: e
Encoding: 72 101 201
Width: 700
VWidth: 0
Flags: HMW
LayerCount: 4
Layer: 2
SplineSet
355 620 m 0
 539 620 610 492 610 410 c 0
 610 345 516 280 355 280 c 0
 283 280 225 302 185 325 c 1
 185 190 l 2
 185 117 239 60 355 60 c 0
 471 60 515 121 515 190 c 1
 610 190 l 1
 610 52 494 -20 355 -20 c 0
 216 -20 90 42 90 190 c 2
 90 390 l 2
 90 538 219 620 355 620 c 0
185 397 m 1
 220 371 273 350 355 350 c 0
 423 350 510 366 510 410 c 0
 510 475 462 540 355 540 c 0
 247 540 189 470 185 397 c 1
EndSplineSet
Validated: 1
Layer: 3
SplineSet
355 620 m 0
 539 620 640 493 640 400 c 0
 640 335 542 270 355 270 c 0
 301 270 256 282 220 298 c 1
 220 200 l 2
 220 127 279 100 355 100 c 0
 431 100 480 131 480 200 c 1
 640 200 l 1
 640 62 509 -20 355 -20 c 0
 201 -20 60 52 60 200 c 2
 60 380 l 2
 60 528 199 620 355 620 c 0
221 399 m 1
 250 377 292 360 355 360 c 0
 423 360 470 374 470 410 c 0
 470 453 428 500 355 500 c 0
 281 500 230 463 221 399 c 1
EndSplineSet
EndChar

StartChar: f
Encoding: 73 102 202
Width: 470
VWidth: 0
Flags: HMW
LayerCount: 4
Layer: 2
SplineSet
155 0 m 1
 155 525 l 1
 70 525 l 1
 70 600 l 1
 155 600 l 1
 155 690 l 2
 155 802 227 860 320 860 c 0
 409 860 464 810 480 785 c 1
 430 735 l 1
 414 756 377 785 330 785 c 0
 273 785 250 751 250 700 c 2
 250 600 l 1
 410 600 l 1
 410 525 l 1
 250 525 l 1
 250 0 l 1
 155 0 l 1
EndSplineSet
Validated: 1
Layer: 3
SplineSet
120 0 m 1
 120 480 l 1
 40 480 l 1
 40 600 l 1
 120 600 l 1
 120 680 l 2
 120 792 201 860 330 860 c 0
 426 860 482 810 510 785 c 1
 430 690 l 1
 410 713 378 740 345 740 c 0
 303 740 280 720 280 680 c 2
 280 600 l 1
 440 600 l 1
 440 480 l 1
 280 480 l 1
 280 0 l 1
 120 0 l 1
EndSplineSet
EndChar

StartChar: j
Encoding: 77 106 203
Width: 370
VWidth: 0
GlyphClass: 3
Flags: HMW
LayerCount: 4
Layer: 2
SplineSet
35 -225 m 1
 55 -170 l 1
 64 -175 82 -185 105 -185 c 0
 129 -185 150 -176 150 -150 c 2
 150 600 l 1
 245 600 l 1
 245 -150 l 2
 245 -214 205 -250 135 -250 c 0
 82 -250 48 -232 35 -225 c 1
260 760 m 0
 260 727 233 700 200 700 c 0
 167 700 140 727 140 760 c 0
 140 793 167 820 200 820 c 0
 233 820 260 793 260 760 c 0
EndSplineSet
Validated: 1
Layer: 3
SplineSet
120 600 m 1
 120 600 154 590 200 590 c 0
 246 590 280 600 280 600 c 1
 280 -120 l 2
 280 -198 228 -250 140 -250 c 0
 83 -250 42 -236 20 -225 c 1
 45 -135 l 1
 45 -135 66 -144 87 -144 c 0
 104 -144 120 -137 120 -100 c 2
 120 600 l 1
290 770 m 0
 290 726 254 690 200 690 c 0
 146 690 110 726 110 770 c 0
 110 814 146 850 200 850 c 0
 254 850 290 814 290 770 c 0
EndSplineSet
EndChar

StartChar: uni0237
Encoding: 352 567 204
Width: 370
VWidth: 0
Flags: HMW
LayerCount: 4
Layer: 2
SplineSet
35 -225 m 1
 55 -170 l 1
 64 -175 82 -185 105 -185 c 0
 129 -185 150 -176 150 -150 c 2
 150 600 l 1
 245 600 l 1
 245 -150 l 2
 245 -214 205 -250 135 -250 c 0
 82 -250 48 -232 35 -225 c 1
EndSplineSet
Validated: 1
Layer: 3
SplineSet
20 -225 m 1
 45 -135 l 1
 45 -135 66 -144 87 -144 c 0
 104 -144 120 -137 120 -100 c 2
 120 600 l 1
 280 600 l 1
 280 -120 l 2
 280 -198 228 -250 140 -250 c 0
 83 -250 42 -236 20 -225 c 1
EndSplineSet
Colour: ff00
EndChar

StartChar: K
Encoding: 46 75 205
Width: 730
VWidth: 0
Flags: HMW
LayerCount: 4
Layer: 2
SplineSet
100 780 m 1
 200 780 l 1
 200 430 l 1
 223 430 l 1
 410 636 481 714 525 780 c 1
 640 780 l 1
 608 728 525 635 320 410 c 1
 545 192 601 121 690 0 c 1
 570 0 l 1
 506 96 437 171 224 390 c 1
 200 390 l 1
 200 0 l 1
 100 0 l 1
 100 780 l 1
EndSplineSet
Validated: 1
Layer: 3
SplineSet
70 780 m 1
 230 780 l 1
 230 457 l 1
 353 599 457 704 500 780 c 1
 700 780 l 1
 620 681 375 420 375 420 c 1
 375 420 591 213 730 0 c 1
 530 0 l 1
 446 136 336 266 230 375 c 1
 230 0 l 1
 70 0 l 1
 70 780 l 1
EndSplineSet
EndChar

StartChar: k
Encoding: 78 107 206
Width: 650
VWidth: 0
Flags: HMW
LayerCount: 4
Layer: 2
SplineSet
110 840 m 1
 205 840 l 1
 205 340 l 1
 221 340 l 1
 374 488 429 557 460 600 c 1
 570 600 l 1
 518 528 437 445 310 320 c 1
 465 180 547 78 610 0 c 1
 490 0 l 1
 433 80 361 176 223 300 c 1
 205 300 l 1
 205 0 l 1
 110 0 l 1
 110 840 l 1
EndSplineSet
Validated: 1
Layer: 3
SplineSet
70 840 m 1
 230 840 l 1
 230 350 l 1
 311 431 370 494 430 600 c 1
 610 600 l 1
 569 526 472 430 370 310 c 1
 496 166 605 56 630 0 c 1
 440 0 l 1
 390 95 311 188 230 270 c 1
 230 0 l 1
 70 0 l 1
 70 840 l 1
EndSplineSet
EndChar

StartChar: y
Encoding: 92 121 207
Width: 680
VWidth: 0
Flags: HMW
LayerCount: 4
Layer: 2
SplineSet
525 600 m 1
 630 600 l 1
 365 -160 l 1
 341 -224 287 -260 205 -260 c 0
 128 -260 80 -215 60 -180 c 1
 130 -135 l 1
 144 -160 164 -185 200 -185 c 0
 248 -185 271 -158 290 -100 c 2
 320 -9 l 1
 276 -3 254 22 240 50 c 0
 218 93 50 600 50 600 c 1
 155 600 l 1
 315 110 l 1
 315 110 326 70 340 70 c 0
 354 70 365 110 365 110 c 1
 525 600 l 1
EndSplineSet
Validated: 1
Layer: 3
SplineSet
100 -90 m 1
 114 -115 140 -140 180 -140 c 0
 229 -140 269 -68 292 -2 c 1
 251 13 226 45 210 75 c 0
 187 120 20 600 20 600 c 1
 190 600 l 1
 275 330 l 1
 275 330 326 150 340 150 c 0
 354 150 405 330 405 330 c 1
 490 600 l 1
 660 600 l 1
 660 600 441 -15 405 -90 c 0
 370 -164 326 -260 190 -260 c 0
 109 -260 50 -215 30 -180 c 1
 100 -90 l 1
EndSplineSet
EndChar

StartChar: z
Encoding: 93 122 208
Width: 670
VWidth: 0
Flags: HMW
LayerCount: 4
Layer: 2
SplineSet
110 600 m 1
 570 600 l 1
 570 520 l 1
 225 150 l 1
 209 130 180 104 180 95 c 0
 180 85 188 80 215 80 c 2
 480 80 l 2
 505 80 510 90 510 105 c 0
 510 125 490 150 490 150 c 1
 575 150 l 1
 575 150 600 125 600 70 c 0
 600 22 563 0 520 0 c 2
 180 0 l 2
 102 0 70 46 70 90 c 0
 70 129 93 147 140 200 c 1
 445 520 l 1
 110 520 l 1
 110 600 l 1
EndSplineSet
Validated: 1
Layer: 3
SplineSet
70 600 m 1
 600 600 l 1
 600 480 l 1
 262 180 l 2
 236 158 220 144 220 135 c 0
 220 125 228 120 255 120 c 2
 460 120 l 2
 490 120 500 130 500 145 c 0
 500 159 490 190 490 190 c 1
 615 190 l 1
 615 190 630 160 630 120 c 0
 630 42 583 0 500 0 c 2
 170 0 l 2
 93 0 40 40 40 100 c 0
 40 134 62 179 105 215 c 1
 410 480 l 1
 70 480 l 1
 70 600 l 1
EndSplineSet
EndChar

StartChar: v
Encoding: 89 118 209
Width: 680
VWidth: 0
Flags: HMW
LayerCount: 4
Layer: 2
SplineSet
50 600 m 1
 155 600 l 1
 315 110 l 1
 315 110 326 70 340 70 c 0
 354 70 365 110 365 110 c 1
 525 600 l 1
 630 600 l 1
 630 600 462 93 440 50 c 0
 424 18 398 -10 340 -10 c 0
 282 -10 256 18 240 50 c 0
 218 93 50 600 50 600 c 1
EndSplineSet
Validated: 1
Layer: 3
SplineSet
340 -10 m 0
 270 -10 231 35 210 75 c 0
 187 120 20 600 20 600 c 1
 190 600 l 1
 275 330 l 1
 275 330 326 150 340 150 c 0
 354 150 405 330 405 330 c 1
 490 600 l 1
 660 600 l 1
 660 600 493 120 470 75 c 0
 449 35 410 -10 340 -10 c 0
EndSplineSet
EndChar

StartChar: V
Encoding: 57 86 210
Width: 840
VWidth: 0
Flags: HMW
LayerCount: 4
Layer: 2
SplineSet
420 -10 m 0
 373 -10 335 18 310 80 c 1
 50 780 l 1
 155 780 l 1
 385 130 l 1
 385 130 400 80 420 80 c 0
 440 80 455 130 455 130 c 1
 685 780 l 1
 790 780 l 1
 530 80 l 1
 505 18 467 -10 420 -10 c 0
EndSplineSet
Validated: 1
Layer: 3
SplineSet
420 -10 m 0
 348 -10 297 38 250 160 c 1
 20 780 l 1
 200 780 l 1
 380 220 l 1
 380 220 400 150 420 150 c 0
 440 150 460 220 460 220 c 1
 640 780 l 1
 820 780 l 1
 590 160 l 1
 543 38 492 -10 420 -10 c 0
EndSplineSet
EndChar

StartChar: A
Encoding: 36 65 211
Width: 840
VWidth: 0
Flags: HMW
LayerCount: 4
Layer: 2
SplineSet
420 790 m 0
 467 790 505 762 530 700 c 1
 790 0 l 1
 685 0 l 1
 621 180 l 1
 219 180 l 1
 155 0 l 1
 50 0 l 1
 310 700 l 1
 335 762 373 790 420 790 c 0
247 260 m 1
 593 260 l 1
 455 650 l 1
 455 650 440 700 420 700 c 0
 400 700 385 650 385 650 c 1
 247 260 l 1
EndSplineSet
Validated: 1
Layer: 3
SplineSet
420 790 m 0
 492 790 543 742 590 620 c 1
 820 0 l 1
 640 0 l 1
 589 160 l 1
 251 160 l 1
 200 0 l 1
 20 0 l 1
 250 620 l 1
 297 742 348 790 420 790 c 0
550 280 m 1
 460 560 l 1
 460 560 440 630 420 630 c 0
 400 630 380 560 380 560 c 1
 290 280 l 1
 550 280 l 1
EndSplineSet
EndChar

StartChar: G
Encoding: 42 71 212
Width: 800
VWidth: 0
Flags: HMW
LayerCount: 4
Layer: 2
SplineSet
410 800 m 0
 602 800 710 680 710 570 c 0
 710 542 705 515 690 490 c 1
 565 490 l 1
 586 513 595 544 595 570 c 0
 595 623 559 720 410 720 c 0
 265 720 180 625 180 510 c 2
 180 250 l 2
 180 121 293 60 410 60 c 0
 527 60 630 131 630 250 c 2
 630 290 l 1
 430 290 l 1
 430 370 l 1
 710 370 l 1
 710 370 720 318 720 250 c 0
 720 85 584 -20 410 -20 c 0
 236 -20 80 68 80 250 c 2
 80 510 l 2
 80 682 223 800 410 800 c 0
EndSplineSet
Validated: 1
Layer: 3
SplineSet
440 380 m 1
 730 380 l 1
 730 380 740 327 740 260 c 0
 740 88 612 -20 410 -20 c 0
 203 -20 60 78 60 260 c 2
 60 500 l 2
 60 672 203 800 410 800 c 0
 625 800 730 670 730 560 c 0
 730 532 725 505 710 480 c 1
 510 480 l 1
 531 503 540 529 540 555 c 0
 540 619 497 670 410 670 c 0
 308 670 230 615 230 500 c 2
 230 260 l 2
 230 165 313 110 410 110 c 0
 512 110 590 165 590 260 c 1
 440 260 l 1
 440 380 l 1
EndSplineSet
EndChar

StartChar: B
Encoding: 37 66 213
Width: 750
VWidth: 0
Flags: HMW
LayerCount: 4
Layer: 2
SplineSet
340 460 m 2
 426 460 500 507 500 575 c 0
 500 662 438 705 350 705 c 2
 210 705 l 1
 210 460 l 1
 340 460 l 2
340 390 m 2
 210 390 l 1
 210 110 l 2
 210 87 217 80 240 80 c 2
 400 80 l 2
 506 80 575 127 575 220 c 0
 575 336 467 390 340 390 c 2
490 433 m 1
 606 404 680 337 680 230 c 0
 680 78 556 0 420 0 c 2
 200 0 l 2
 148 0 110 28 110 90 c 2
 110 780 l 1
 340 780 l 2
 494 780 600 704 600 585 c 0
 600 515 553 464 490 433 c 1
EndSplineSet
Validated: 1
Layer: 3
SplineSet
290 120 m 2
 430 120 l 2
 499 120 540 167 540 220 c 0
 540 295 479 350 360 350 c 2
 230 350 l 1
 230 180 l 2
 230 128 238 120 290 120 c 2
230 0 m 2
 111 0 70 43 70 160 c 2
 70 780 l 1
 340 780 l 2
 506 780 620 689 620 570 c 0
 620 504 584 455 532 424 c 1
 638 388 700 315 700 220 c 0
 700 85 597 0 430 0 c 2
 230 0 l 2
230 470 m 1
 360 470 l 2
 411 470 460 499 460 560 c 0
 460 621 415 660 350 660 c 2
 230 660 l 1
 230 470 l 1
EndSplineSet
EndChar

StartChar: bracketright
Encoding: 64 93 214
Width: 400
VWidth: 0
Flags: HMW
LayerCount: 4
Layer: 2
SplineSet
310 360 m 1
 310 -160 l 1
 70 -160 l 1
 70 -100 l 1
 230 -100 l 1
 230 360 l 1
 230 820 l 1
 70 820 l 1
 70 880 l 1
 310 880 l 1
 310 360 l 1
EndSplineSet
Validated: 1
Layer: 3
SplineSet
340 360 m 1
 340 -160 l 1
 40 -160 l 1
 40 -70 l 1
 220 -70 l 1
 220 360 l 1
 220 790 l 1
 40 790 l 1
 40 880 l 1
 340 880 l 1
 340 360 l 1
EndSplineSet
EndChar

StartChar: D
Encoding: 39 68 215
Width: 770
VWidth: 0
Flags: HMW
LayerCount: 4
Layer: 2
SplineSet
230 80 m 2
 330 80 l 2
 449 80 580 143 580 300 c 2
 580 440 l 2
 580 599 481 705 290 705 c 2
 200 705 l 1
 200 110 l 2
 200 87 207 80 230 80 c 2
100 780 m 1
 290 780 l 2
 510 780 680 674 680 440 c 2
 680 300 l 2
 680 71 502 0 340 0 c 2
 190 0 l 2
 138 0 100 28 100 90 c 2
 100 780 l 1
EndSplineSet
Validated: 1
Layer: 3
SplineSet
290 120 m 2
 330 120 l 2
 449 120 550 163 550 320 c 2
 550 420 l 2
 550 579 481 660 290 660 c 2
 230 660 l 1
 230 180 l 2
 230 128 238 120 290 120 c 2
70 780 m 1
 290 780 l 2
 561 780 710 654 710 420 c 2
 710 320 l 2
 710 91 581 0 340 0 c 2
 230 0 l 2
 111 0 70 43 70 160 c 2
 70 780 l 1
EndSplineSet
EndChar

StartChar: S
Encoding: 54 83 216
Width: 800
VWidth: 0
Flags: HMW
LayerCount: 4
Layer: 2
SplineSet
710 200 m 0
 710 58 581 -20 405 -20 c 0
 254 -20 90 50 90 195 c 0
 90 234 106 275 120 300 c 1
 235 250 l 1
 216 229 210 212 210 185 c 0
 210 112 293 60 405 60 c 0
 535 60 600 132 600 190 c 0
 600 285 540 314 400 355 c 0
 300 384 110 410 110 580 c 0
 110 684 222 800 400 800 c 0
 578 800 690 684 690 580 c 1
 590 580 l 1
 590 650 518 720 400 720 c 0
 282 720 210 645 210 590 c 0
 210 504 294 496 420 455 c 0
 557 410 710 380 710 200 c 0
EndSplineSet
Validated: 1
Layer: 3
SplineSet
740 210 m 0
 740 68 611 -20 405 -20 c 0
 224 -20 60 60 60 205 c 0
 60 244 76 285 90 310 c 1
 275 260 l 1
 256 239 250 222 250 205 c 0
 250 142 323 110 405 110 c 0
 503 110 570 142 570 200 c 0
 570 265 510 299 400 330 c 0
 300 358 80 390 80 570 c 0
 80 674 192 800 400 800 c 0
 608 800 720 674 720 570 c 1
 550 570 l 1
 550 640 488 680 400 680 c 0
 312 680 250 635 250 580 c 0
 250 523 324 511 420 480 c 0
 557 435 740 400 740 210 c 0
EndSplineSet
EndChar

StartChar: J
Encoding: 45 74 217
Width: 500
VWidth: 0
Flags: HMW
LayerCount: 4
Layer: 2
SplineSet
270 780 m 1
 365 780 l 1
 365 160 l 2
 365 48 293 -10 200 -10 c 0
 111 -10 56 40 40 65 c 1
 90 115 l 1
 106 94 143 65 190 65 c 0
 247 65 270 99 270 150 c 2
 270 780 l 1
EndSplineSet
Validated: 1
Layer: 3
SplineSet
400 170 m 2
 400 58 319 -10 190 -10 c 0
 94 -10 38 40 10 65 c 1
 90 160 l 1
 110 137 142 110 175 110 c 0
 217 110 240 130 240 170 c 2
 240 780 l 1
 400 780 l 1
 400 170 l 2
EndSplineSet
EndChar

StartChar: P
Encoding: 51 80 218
Width: 730
VWidth: 0
Flags: HMW
LayerCount: 4
Layer: 2
SplineSet
210 705 m 1
 210 345 l 1
 390 345 l 2
 486 345 580 408 580 525 c 0
 580 642 486 705 390 705 c 2
 210 705 l 1
210 270 m 1
 210 0 l 1
 110 0 l 1
 110 270 l 1
 110 780 l 1
 390 780 l 2
 557 780 680 678 680 525 c 0
 680 372 557 270 390 270 c 2
 210 270 l 1
EndSplineSet
Validated: 1
Layer: 3
SplineSet
230 660 m 1
 230 390 l 1
 390 390 l 2
 486 390 540 441 540 525 c 0
 540 609 486 660 390 660 c 2
 230 660 l 1
230 270 m 1
 230 0 l 1
 70 0 l 1
 70 270 l 1
 70 780 l 1
 410 780 l 2
 577 780 700 678 700 525 c 0
 700 372 577 270 410 270 c 2
 230 270 l 1
EndSplineSet
EndChar

StartChar: R
Encoding: 53 82 219
Width: 770
VWidth: 0
Flags: HMW
LayerCount: 4
Layer: 2
SplineSet
210 705 m 1
 210 345 l 1
 390 345 l 2
 486 345 580 408 580 525 c 0
 580 642 486 705 390 705 c 2
 210 705 l 1
210 270 m 1
 210 0 l 1
 110 0 l 1
 110 270 l 1
 110 780 l 1
 390 780 l 2
 557 780 680 678 680 525 c 0
 680 417 619 334 524 295 c 1
 606 229 677 113 720 0 c 1
 600 0 l 1
 574 91 517 193 433 272 c 1
 419 271 405 270 390 270 c 2
 210 270 l 1
EndSplineSet
Validated: 1
Layer: 3
SplineSet
401 270 m 1
 230 270 l 1
 230 0 l 1
 70 0 l 1
 70 270 l 1
 70 780 l 1
 410 780 l 2
 577 780 700 678 700 525 c 0
 700 420 642 339 551 298 c 1
 612 231 693 123 740 0 c 1
 550 0 l 1
 521 104 459 199 401 270 c 1
230 390 m 1
 390 390 l 2
 486 390 540 441 540 525 c 0
 540 609 486 660 390 660 c 2
 230 660 l 1
 230 390 l 1
EndSplineSet
EndChar

StartChar: M
Encoding: 48 77 220
Width: 940
VWidth: 0
Flags: HMW
LayerCount: 4
Layer: 2
SplineSet
890 15 m 1
 879 7 851 -10 810 -10 c 0
 749 -10 725 28 725 90 c 2
 725 610 l 1
 495 0 l 1
 460 0 l 1
 425 0 l 1
 195 610 l 1
 195 0 l 1
 100 0 l 1
 100 780 l 1
 195 780 l 1
 220 780 l 1
 460 130 l 1
 700 780 l 1
 725 780 l 1
 820 780 l 1
 820 90 l 2
 820 65 825 55 845 55 c 0
 860 55 869 61 875 65 c 1
 890 15 l 1
EndSplineSet
Validated: 1
Layer: 3
SplineSet
230 0 m 1
 70 0 l 1
 70 780 l 1
 190 780 l 1
 230 780 l 1
 260 780 l 1
 460 170 l 1
 660 780 l 1
 690 780 l 1
 730 780 l 1
 850 780 l 1
 850 140 l 2
 850 108 854 99 865 95 c 0
 874 92 885 100 885 100 c 1
 910 15 l 1
 888 4 867 -10 810 -10 c 0
 722 -10 690 42 690 120 c 2
 690 515 l 1
 510 0 l 1
 460 0 l 1
 410 0 l 1
 230 515 l 1
 230 0 l 1
EndSplineSet
EndChar

StartChar: N
Encoding: 49 78 221
Width: 780
VWidth: 0
Flags: HMW
LayerCount: 4
Layer: 2
SplineSet
200 0 m 1
 100 0 l 1
 100 780 l 1
 200 780 l 1
 580 150 l 1
 580 780 l 1
 680 780 l 1
 680 60 l 2
 680 10 655 -10 625 -10 c 0
 590 -10 568 5 535 60 c 2
 200 620 l 1
 200 0 l 1
EndSplineSet
Validated: 1
Layer: 3
SplineSet
230 0 m 1
 70 0 l 1
 70 780 l 1
 230 780 l 1
 550 230 l 1
 550 780 l 1
 710 780 l 1
 710 90 l 2
 710 20 673 -10 630 -10 c 0
 582 -10 544 5 495 90 c 2
 230 540 l 1
 230 0 l 1
EndSplineSet
EndChar

StartChar: W
Encoding: 58 87 222
Width: 1120
VWidth: 0
Flags: HMW
LayerCount: 4
Layer: 2
SplineSet
50 780 m 1
 160 780 l 1
 315 130 l 2
 322 103 331 80 342 80 c 0
 356 80 361 95 370 130 c 1
 510 780 l 1
 560 780 l 1
 610 780 l 1
 750 130 l 1
 759 95 764 80 778 80 c 0
 789 80 798 103 805 130 c 2
 960 780 l 1
 1070 780 l 1
 890 90 l 2
 872 20 840 -10 775 -10 c 0
 716 -10 679 29 665 90 c 1
 560 590 l 1
 455 90 l 1
 441 29 404 -10 345 -10 c 0
 280 -10 248 20 230 90 c 2
 50 780 l 1
EndSplineSet
Validated: 1
Layer: 3
SplineSet
20 780 m 1
 190 780 l 1
 330 200 l 2
 337 173 339 150 350 150 c 0
 364 150 361 165 370 200 c 1
 490 780 l 1
 560 780 l 1
 630 780 l 1
 750 200 l 1
 759 165 756 150 770 150 c 0
 781 150 783 173 790 200 c 2
 930 780 l 1
 1100 780 l 1
 920 90 l 2
 901 18 845 -10 780 -10 c 0
 731 -10 669 19 650 90 c 1
 560 510 l 1
 470 90 l 1
 451 19 389 -10 340 -10 c 0
 275 -10 219 18 200 90 c 2
 20 780 l 1
EndSplineSet
EndChar

StartChar: Y
Encoding: 60 89 223
Width: 720
VWidth: 0
Flags: HMW
LayerCount: 4
Layer: 2
SplineSet
50 780 m 1
 160 780 l 1
 330 400 l 1
 330 400 343 370 360 370 c 0
 377 370 390 400 390 400 c 1
 560 780 l 1
 670 780 l 1
 670 780 482 378 460 335 c 0
 450 316 433 296 410 283 c 1
 410 0 l 1
 310 0 l 1
 310 283 l 1
 287 296 270 316 260 335 c 0
 238 378 50 780 50 780 c 1
EndSplineSet
Validated: 1
Layer: 3
SplineSet
20 780 m 1
 195 780 l 1
 325 480 l 1
 325 480 346 425 360 425 c 0
 374 425 395 480 395 480 c 1
 525 780 l 1
 700 780 l 1
 700 780 533 425 510 380 c 0
 493 346 469 314 440 291 c 1
 440 0 l 1
 280 0 l 1
 280 291 l 1
 251 314 227 346 210 380 c 0
 187 425 20 780 20 780 c 1
EndSplineSet
EndChar

StartChar: Z
Encoding: 61 90 224
Width: 730
VWidth: 0
Flags: HMW
LayerCount: 4
Layer: 2
SplineSet
90 780 m 1
 650 780 l 1
 650 700 l 1
 200 150 l 2
 184 130 165 104 165 95 c 0
 165 85 173 80 200 80 c 2
 560 80 l 2
 585 80 590 90 590 105 c 0
 590 125 570 150 570 150 c 1
 655 150 l 1
 655 150 680 125 680 70 c 0
 680 22 643 0 600 0 c 2
 160 0 l 2
 82 0 50 46 50 90 c 0
 50 129 63 147 110 200 c 1
 520 700 l 1
 90 700 l 1
 90 780 l 1
EndSplineSet
Validated: 1
Layer: 3
SplineSet
60 780 m 1
 680 780 l 1
 680 660 l 1
 262 190 l 1
 232 160 220 144 220 135 c 0
 220 125 228 120 255 120 c 2
 540 120 l 2
 570 120 580 130 580 145 c 0
 580 159 570 190 570 190 c 1
 695 190 l 1
 695 190 710 160 710 120 c 0
 710 42 663 0 580 0 c 2
 150 0 l 2
 73 0 20 40 20 100 c 0
 20 134 41 181 85 225 c 1
 480 660 l 1
 60 660 l 1
 60 780 l 1
EndSplineSet
EndChar

StartChar: Q
Encoding: 52 81 225
Width: 820
VWidth: 0
Flags: HMW
LayerCount: 4
Layer: 2
SplineSet
670 -225 m 1
 657 -232 623 -250 570 -250 c 0
 500 -250 460 -214 460 -150 c 2
 460 -18 l 1
 444 -19 427 -20 410 -20 c 0
 212 -20 80 88 80 270 c 2
 80 490 l 2
 80 666 213 800 410 800 c 0
 607 800 740 666 740 490 c 2
 740 270 l 2
 740 137 670 44 555 3 c 1
 555 -150 l 2
 555 -176 576 -185 600 -185 c 0
 623 -185 641 -175 650 -170 c 1
 670 -225 l 1
410 720 m 0
 271 720 180 609 180 490 c 2
 180 270 l 2
 180 147 267 60 410 60 c 0
 553 60 640 147 640 270 c 2
 640 490 l 2
 640 609 549 720 410 720 c 0
EndSplineSet
Validated: 1
Layer: 3
SplineSet
670 -225 m 1
 648 -236 607 -250 550 -250 c 0
 462 -250 410 -198 410 -120 c 2
 410 -20 l 1
 203 -20 60 98 60 280 c 2
 60 490 l 2
 60 666 203 800 410 800 c 0
 617 800 760 666 760 490 c 2
 760 280 l 2
 760 143 679 42 550 1 c 1
 550 -100 l 2
 550 -137 586 -144 603 -144 c 0
 624 -144 645 -135 645 -135 c 1
 670 -225 l 1
410 670 m 0
 301 670 230 609 230 490 c 2
 230 280 l 2
 230 175 293 110 410 110 c 0
 527 110 590 175 590 280 c 2
 590 490 l 2
 590 609 519 670 410 670 c 0
EndSplineSet
EndChar

StartChar: bracketleft
Encoding: 62 91 226
Width: 400
VWidth: 0
Flags: HMW
LayerCount: 4
Layer: 2
SplineSet
90 360 m 1
 90 880 l 1
 330 880 l 1
 330 820 l 1
 170 820 l 1
 170 360 l 1
 170 -100 l 1
 330 -100 l 1
 330 -160 l 1
 90 -160 l 1
 90 360 l 1
EndSplineSet
Validated: 1
Layer: 3
SplineSet
60 360 m 1
 60 880 l 1
 360 880 l 1
 360 790 l 1
 180 790 l 1
 180 360 l 1
 180 -70 l 1
 360 -70 l 1
 360 -160 l 1
 60 -160 l 1
 60 360 l 1
EndSplineSet
EndChar

StartChar: numbersign
Encoding: 6 35 227
Width: 910
VWidth: 0
Flags: HMW
LayerCount: 4
Layer: 2
SplineSet
541 290 m 1
 579 490 l 1
 369 490 l 1
 331 290 l 1
 541 290 l 1
621 290 m 1
 810 290 l 1
 810 220 l 1
 608 220 l 1
 565 0 l 1
 485 0 l 1
 528 220 l 1
 318 220 l 1
 275 0 l 1
 195 0 l 1
 238 220 l 1
 80 220 l 1
 80 290 l 1
 251 290 l 1
 289 490 l 1
 100 490 l 1
 100 560 l 1
 302 560 l 1
 345 780 l 1
 425 780 l 1
 382 560 l 1
 592 560 l 1
 635 780 l 1
 715 780 l 1
 672 560 l 1
 830 560 l 1
 830 490 l 1
 659 490 l 1
 621 290 l 1
EndSplineSet
Validated: 1
Layer: 3
SplineSet
654 305 m 1
 840 305 l 1
 840 205 l 1
 635 205 l 1
 595 0 l 1
 465 0 l 1
 505 205 l 1
 335 205 l 1
 295 0 l 1
 165 0 l 1
 205 205 l 1
 50 205 l 1
 50 305 l 1
 224 305 l 1
 256 465 l 1
 70 465 l 1
 70 565 l 1
 275 565 l 1
 315 780 l 1
 445 780 l 1
 405 565 l 1
 575 565 l 1
 615 780 l 1
 745 780 l 1
 705 565 l 1
 860 565 l 1
 860 465 l 1
 686 465 l 1
 654 305 l 1
524 305 m 1
 556 465 l 1
 386 465 l 1
 354 305 l 1
 524 305 l 1
EndSplineSet
EndChar

StartChar: percent
Encoding: 8 37 228
Width: 880
VWidth: 0
Flags: HMW
LayerCount: 4
Layer: 2
SplineSet
645 340 m 0
 739 340 800 264 800 165 c 0
 800 66 739 -10 645 -10 c 0
 551 -10 490 66 490 165 c 0
 490 264 551 340 645 340 c 0
645 280 m 0
 588 280 565 217 565 165 c 0
 565 113 588 50 645 50 c 0
 702 50 725 113 725 165 c 0
 725 217 702 280 645 280 c 0
690 780 m 1
 780 780 l 1
 190 0 l 1
 100 0 l 1
 690 780 l 1
235 790 m 0
 329 790 390 714 390 615 c 0
 390 516 329 440 235 440 c 0
 141 440 80 516 80 615 c 0
 80 714 141 790 235 790 c 0
235 730 m 0
 178 730 155 667 155 615 c 0
 155 563 178 500 235 500 c 0
 292 500 315 563 315 615 c 0
 315 667 292 730 235 730 c 0
EndSplineSet
Validated: 1
Layer: 3
SplineSet
660 780 m 1
 800 780 l 1
 220 0 l 1
 80 0 l 1
 660 780 l 1
220 790 m 0
 314 790 380 709 380 610 c 0
 380 511 314 430 220 430 c 0
 126 430 60 511 60 610 c 0
 60 709 126 790 220 790 c 0
221 695 m 0
 183 695 165 648 165 610 c 0
 165 572 183 525 221 525 c 0
 259 525 275 572 275 610 c 0
 275 648 259 695 221 695 c 0
660 350 m 0
 754 350 820 269 820 170 c 0
 820 71 754 -10 660 -10 c 0
 566 -10 500 71 500 170 c 0
 500 269 566 350 660 350 c 0
661 255 m 0
 623 255 605 208 605 170 c 0
 605 132 623 85 661 85 c 0
 699 85 715 132 715 170 c 0
 715 208 699 255 661 255 c 0
EndSplineSet
EndChar

StartChar: parenleft
Encoding: 11 40 229
Width: 400
VWidth: 0
Flags: HMW
LayerCount: 4
Layer: 2
SplineSet
90 360 m 1
 90 390 l 2
 90 706 160 828 360 900 c 1
 360 850 l 1
 208 774 180 667 180 390 c 2
 180 360 l 1
 180 330 l 2
 180 53 208 -54 360 -130 c 1
 360 -180 l 1
 160 -108 90 14 90 330 c 2
 90 360 l 1
EndSplineSet
Validated: 1
Layer: 3
SplineSet
60 360 m 1
 60 390 l 2
 60 706 160 828 360 900 c 1
 360 835 l 1
 223 749 190 667 190 390 c 2
 190 360 l 1
 190 330 l 2
 190 53 223 -29 360 -115 c 1
 360 -180 l 1
 160 -108 60 14 60 330 c 2
 60 360 l 1
EndSplineSet
EndChar

StartChar: exclam
Encoding: 4 33 230
Width: 360
VWidth: 0
Flags: HMW
LayerCount: 4
Layer: 2
SplineSet
245 60 m 0
 245 27 218 0 180 0 c 0
 142 0 115 27 115 60 c 0
 115 93 142 120 180 120 c 0
 218 120 245 93 245 60 c 0
120 840 m 1
 180 840 l 1
 240 840 l 1
 230 360 l 2
 230 314 200 240 200 240 c 1
 180 240 l 1
 160 240 l 1
 160 240 130 314 130 360 c 2
 120 840 l 1
EndSplineSet
Validated: 1
Layer: 3
SplineSet
270 70 m 0
 270 26 234 -10 180 -10 c 0
 126 -10 90 26 90 70 c 0
 90 114 126 150 180 150 c 0
 234 150 270 114 270 70 c 0
90 840 m 1
 180 840 l 1
 270 840 l 1
 260 360 l 2
 260 314 220 240 220 240 c 1
 180 240 l 1
 140 240 l 1
 140 240 100 314 100 360 c 2
 90 840 l 1
EndSplineSet
EndChar

StartChar: quotedbl
Encoding: 5 34 231
Width: 400
VWidth: 0
Flags: HMW
LayerCount: 4
Layer: 2
SplineSet
80 780 m 1
 160 780 l 1
 145 540 l 1
 95 540 l 1
 80 780 l 1
240 780 m 1
 320 780 l 1
 305 540 l 1
 255 540 l 1
 240 780 l 1
EndSplineSet
Validated: 1
Layer: 3
SplineSet
50 780 m 1
 160 780 l 1
 140 540 l 1
 70 540 l 1
 50 780 l 1
240 780 m 1
 350 780 l 1
 330 540 l 1
 260 540 l 1
 240 780 l 1
EndSplineSet
EndChar

StartChar: quotesingle
Encoding: 10 39 232
Width: 220
VWidth: 0
Flags: HMW
LayerCount: 4
Layer: 2
SplineSet
65 780 m 1
 155 780 l 1
 140 540 l 1
 80 540 l 1
 65 780 l 1
EndSplineSet
Validated: 1
Layer: 3
SplineSet
50 780 m 1
 170 780 l 1
 150 540 l 1
 70 540 l 1
 50 780 l 1
EndSplineSet
EndChar

StartChar: asterisk
Encoding: 13 42 233
Width: 540
VWidth: 0
Flags: HMW
LayerCount: 4
Layer: 2
SplineSet
448 776 m 1
 469 710 l 1
 327 663 l 1
 415 542 l 1
 359 500 l 1
 270 622 l 1
 181 500 l 1
 125 542 l 1
 213 663 l 1
 71 710 l 1
 92 776 l 1
 235 730 l 1
 235 880 l 1
 305 880 l 1
 305 730 l 1
 448 776 l 1
EndSplineSet
Validated: 1
Layer: 3
SplineSet
457 459 m 1
 376 400 l 1
 270 546 l 1
 164 400 l 1
 83 459 l 1
 189 605 l 1
 18 661 l 1
 49 756 l 1
 220 700 l 1
 220 880 l 1
 320 880 l 1
 320 700 l 1
 491 756 l 1
 522 661 l 1
 351 605 l 1
 457 459 l 1
EndSplineSet
EndChar

StartChar: plus
Encoding: 14 43 234
Width: 560
VWidth: 0
Flags: HMW
LayerCount: 4
Layer: 2
SplineSet
320 130 m 1
 240 130 l 1
 240 285 l 1
 80 285 l 1
 80 355 l 1
 240 355 l 1
 240 510 l 1
 320 510 l 1
 320 355 l 1
 480 355 l 1
 480 285 l 1
 320 285 l 1
 320 130 l 1
EndSplineSet
Validated: 1
Layer: 3
SplineSet
340 270 m 1
 340 90 l 1
 220 90 l 1
 220 270 l 1
 50 270 l 1
 50 370 l 1
 220 370 l 1
 220 550 l 1
 340 550 l 1
 340 370 l 1
 510 370 l 1
 510 270 l 1
 340 270 l 1
EndSplineSet
EndChar

StartChar: hyphen
Encoding: 16 45 235
Width: 560
VWidth: 0
Flags: HMW
LayerCount: 4
Layer: 2
SplineSet
80 355 m 1
 480 355 l 1
 480 285 l 1
 80 285 l 1
 80 355 l 1
EndSplineSet
Validated: 1
Layer: 3
SplineSet
50 370 m 1
 510 370 l 1
 510 270 l 1
 50 270 l 1
 50 370 l 1
EndSplineSet
EndChar

StartChar: slash
Encoding: 18 47 236
Width: 480
VWidth: 0
Flags: HMW
LayerCount: 4
Layer: 2
SplineSet
345 880 m 1
 420 880 l 1
 135 -160 l 1
 60 -160 l 1
 345 880 l 1
EndSplineSet
Validated: 1
Layer: 3
SplineSet
320 880 m 1
 440 880 l 1
 160 -160 l 1
 40 -160 l 1
 320 880 l 1
EndSplineSet
EndChar

StartChar: less
Encoding: 31 60 237
Width: 600
VWidth: 0
Flags: HMW
LayerCount: 4
Layer: 2
SplineSet
110 260 m 1
 110 260 80 275 80 300 c 0
 80 325 110 340 110 340 c 1
 530 570 l 1
 530 480 l 1
 180 300 l 1
 530 120 l 1
 530 30 l 1
 110 260 l 1
EndSplineSet
Validated: 1
Layer: 3
SplineSet
80 250 m 1
 80 250 50 265 50 300 c 0
 50 335 80 350 80 350 c 1
 560 620 l 1
 560 480 l 1
 230 300 l 1
 560 120 l 1
 560 -20 l 1
 80 250 l 1
EndSplineSet
EndChar

StartChar: equal
Encoding: 32 61 238
Width: 560
VWidth: 0
Flags: HMW
LayerCount: 4
Layer: 2
SplineSet
80 460 m 1
 480 460 l 1
 480 390 l 1
 80 390 l 1
 80 460 l 1
80 250 m 1
 480 250 l 1
 480 180 l 1
 80 180 l 1
 80 250 l 1
EndSplineSet
Validated: 1
Layer: 3
SplineSet
50 250 m 1
 510 250 l 1
 510 150 l 1
 50 150 l 1
 50 250 l 1
50 490 m 1
 510 490 l 1
 510 390 l 1
 50 390 l 1
 50 490 l 1
EndSplineSet
EndChar

StartChar: question
Encoding: 34 63 239
Width: 640
VWidth: 0
Flags: HMW
LayerCount: 4
Layer: 2
SplineSet
385 60 m 0
 385 27 358 0 320 0 c 0
 282 0 255 27 255 60 c 0
 255 93 282 120 320 120 c 0
 358 120 385 93 385 60 c 0
320 860 m 0
 456 860 550 773 550 640 c 0
 550 532 460 480 400 420 c 0
 364 384 340 350 340 295 c 0
 340 279 344 261 350 240 c 1
 280 240 l 1
 280 240 260 274 260 330 c 0
 260 384 300 440 350 490 c 0
 395 535 450 570 450 640 c 0
 450 716 408 780 320 780 c 0
 232 780 185 716 185 640 c 0
 185 606 197 595 202 583 c 1
 100 546 l 1
 87 575 80 607 80 640 c 0
 80 773 184 860 320 860 c 0
EndSplineSet
Validated: 1
Layer: 3
SplineSet
310 860 m 0
 466 860 580 763 580 630 c 0
 580 522 490 480 430 420 c 0
 394 384 360 350 360 295 c 0
 360 279 364 261 370 240 c 1
 260 240 l 1
 260 240 230 274 230 330 c 0
 230 384 270 440 320 490 c 0
 365 535 420 570 420 630 c 0
 420 696 383 740 320 740 c 0
 257 740 220 696 220 630 c 0
 220 596 232 585 237 573 c 1
 70 536 l 1
 57 565 50 597 50 630 c 0
 50 763 154 860 310 860 c 0
410 70 m 0
 410 26 374 -10 320 -10 c 0
 266 -10 230 26 230 70 c 0
 230 114 266 150 320 150 c 0
 374 150 410 114 410 70 c 0
EndSplineSet
EndChar

StartChar: underscore
Encoding: 66 95 240
Width: 720
VWidth: 0
Flags: HMW
LayerCount: 4
Layer: 2
SplineSet
90 0 m 1
 630 0 l 1
 630 -70 l 1
 90 -70 l 1
 90 0 l 1
EndSplineSet
Validated: 1
Layer: 3
SplineSet
60 0 m 1
 660 0 l 1
 660 -100 l 1
 60 -100 l 1
 60 0 l 1
EndSplineSet
EndChar

StartChar: asciicircum
Encoding: 65 94 241
Width: 500
VWidth: 0
Flags: HMW
LayerCount: 4
Layer: 2
SplineSet
250 740 m 1
 145 620 l 1
 50 620 l 1
 200 775 l 1
 200 775 220 800 250 800 c 0
 280 800 300 775 300 775 c 1
 450 620 l 1
 355 620 l 1
 250 740 l 1
EndSplineSet
Validated: 1
Layer: 3
SplineSet
250 700 m 1
 170 600 l 1
 30 600 l 1
 200 775 l 1
 200 775 217 800 250 800 c 0
 283 800 300 775 300 775 c 1
 470 600 l 1
 330 600 l 1
 250 700 l 1
EndSplineSet
EndChar

StartChar: grave
Encoding: 67 96 242
Width: 390
VWidth: 0
Flags: HMW
LayerCount: 4
Layer: 2
SplineSet
60 755 m 1
 100 824 l 1
 332 667 l 1
 312 632 l 1
 60 755 l 1
EndSplineSet
Validated: 1
Layer: 3
SplineSet
43 733 m 1
 97 828 l 1
 347 661 l 1
 312 600 l 1
 43 733 l 1
EndSplineSet
EndChar

StartChar: asciitilde
Encoding: 97 126 243
Width: 580
VWidth: 0
Flags: HMW
LayerCount: 4
Layer: 2
SplineSet
200 400 m 0
 251 400 274 384 305 355 c 0
 331 331 348 300 379 300 c 0
 413 300 443 354 444 390 c 1
 510 380 l 1
 503 303 449 240 379 240 c 0
 328 240 304 259 275 285 c 0
 247 311 231 340 200 340 c 0
 166 340 136 286 135 250 c 1
 70 260 l 1
 77 337 130 400 200 400 c 0
EndSplineSet
Validated: 1
Layer: 3
SplineSet
195 420 m 0
 241 420 266 407 305 372 c 0
 334 346 349 315 385 315 c 0
 419 315 439 369 445 405 c 1
 530 385 l 1
 520 308 470 220 385 220 c 0
 339 220 312 235 275 268 c 0
 244 296 231 325 195 325 c 0
 161 325 141 271 135 235 c 1
 50 255 l 1
 60 332 110 420 195 420 c 0
EndSplineSet
EndChar

